<?xml version="1.0" encoding="UTF-8" standalone="no"?><svg xmlns="http://www.w3.org/2000/svg" xmlns:xlink="http://www.w3.org/1999/xlink" contentScriptType="application/ecmascript" contentStyleType="text/css" height="396px" preserveAspectRatio="none" style="width:933px;height:396px;background:#FFFFFF;" version="1.1" viewBox="0 0 933 396" width="933px" zoomAndPan="magnify"><defs><filter height="300%" id="f12id7o9rv9pan" width="300%" x="-1" y="-1"><feGaussianBlur result="blurOut" stdDeviation="2.0"/><feColorMatrix in="blurOut" result="blurOut2" type="matrix" values="0 0 0 0 0 0 0 0 0 0 0 0 0 0 0 0 0 0 .4 0"/><feOffset dx="4.0" dy="4.0" in="blurOut2" result="blurOut3"/><feBlend in="SourceGraphic" in2="blurOut3" mode="normal"/></filter></defs><g><!--MD5=[4fd3bb6c1d79f4919f90c95b62a35422]
class Endpoint--><rect codeLine="2" fill="#FEFECE" filter="url(#f12id7o9rv9pan)" height="83.8594" id="Endpoint" style="stroke:#A80036;stroke-width:1.5;" width="117" x="407" y="7"/><ellipse cx="422" cy="27.0938" fill="#57D4FF" rx="11" ry="11" style="stroke:#A80036;stroke-width:1.0;"/><path d="M424.7656,22.9688 Q424.9219,22.75 425.1094,22.6406 Q425.2969,22.5313 425.5156,22.5313 Q425.8906,22.5313 426.125,22.7969 Q426.3594,23.0469 426.3594,23.6563 L426.3594,25.1094 Q426.3594,25.7188 426.125,25.9844 Q425.8906,26.25 425.5156,26.25 Q425.1719,26.25 424.9688,26.0469 Q424.7656,25.8594 424.6563,25.3438 Q424.6094,24.9844 424.4219,24.7969 Q424.0938,24.4219 423.4844,24.2031 Q422.875,23.9844 422.25,23.9844 Q421.4844,23.9844 420.8438,24.3125 Q420.2188,24.6406 419.7188,25.3906 Q419.2344,26.1406 419.2344,27.1719 L419.2344,28.2656 Q419.2344,29.5 420.125,30.3281 Q421.0156,31.1406 422.6094,31.1406 Q423.5469,31.1406 424.2031,30.8906 Q424.5938,30.7344 425.0156,30.2969 Q425.2813,30.0313 425.4219,29.9531 Q425.5781,29.875 425.7813,29.875 Q426.1094,29.875 426.3594,30.1406 Q426.625,30.3906 426.625,30.7344 Q426.625,31.0781 426.2813,31.4844 Q425.7813,32.0625 424.9844,32.3906 Q423.9063,32.8438 422.6094,32.8438 Q421.0938,32.8438 419.8906,32.2188 Q418.9063,31.7188 418.2188,30.6563 Q417.5313,29.5781 417.5313,28.2969 L417.5313,27.1406 Q417.5313,25.8125 418.1406,24.6719 Q418.7656,23.5156 419.8594,22.9063 Q420.9531,22.2813 422.1875,22.2813 Q422.9219,22.2813 423.5625,22.4531 Q424.2188,22.6094 424.7656,22.9688 Z " fill="#000000"/><text fill="#000000" font-family="sans-serif" font-size="12" font-style="italic" lengthAdjust="spacing" textLength="89" x="434" y="24.457">«basicConcept»</text><text fill="#000000" font-family="sans-serif" font-size="12" lengthAdjust="spacing" textLength="49" x="454" y="39.5508">Endpoint</text><line style="stroke:#A80036;stroke-width:1.5;" x1="408" x2="523" y1="47.1875" y2="47.1875"/><text fill="#000000" font-family="sans-serif" font-size="11" lengthAdjust="spacing" textLength="81" x="413" y="62.6064">Address location</text><text fill="#000000" font-family="sans-serif" font-size="11" lengthAdjust="spacing" textLength="93" x="413" y="76.4424">MAPDecorator role</text><line style="stroke:#A80036;stroke-width:1.5;" x1="408" x2="523" y1="82.8594" y2="82.8594"/><path d="M207.5,27.5 L207.5,70.2031 A0,0 0 0 0 207.5,70.2031 L371.5,70.2031 A0,0 0 0 0 371.5,70.2031 L371.5,53 L406.85,49 L371.5,45 L371.5,37.5 L361.5,27.5 L207.5,27.5 A0,0 0 0 0 207.5,27.5 " fill="#FBFB77" filter="url(#f12id7o9rv9pan)" style="stroke:#A80036;stroke-width:1.0;"/><path d="M361.5,27.5 L361.5,37.5 L371.5,37.5 L361.5,27.5 " fill="#FBFB77" style="stroke:#A80036;stroke-width:1.0;"/><text fill="#000000" font-family="sans-serif" font-size="13" font-weight="bold" lengthAdjust="spacing" textLength="143" x="213.5" y="45.9951">Endpoint Refactorings:</text><text fill="#000000" font-family="sans-serif" font-size="13" lengthAdjust="spacing" textLength="5" x="217.5" y="62.3467">*</text><text fill="#000000" font-family="sans-serif" font-size="13" font-style="italic" lengthAdjust="spacing" textLength="98" x="226.5" y="62.3467">Merge Endpoints</text><!--MD5=[cca5d97aaf46870920fae66c9bd85cdd]
class Operation--><rect codeLine="11" fill="#FEFECE" filter="url(#f12id7o9rv9pan)" height="83.8594" id="Operation" style="stroke:#A80036;stroke-width:1.5;" width="150" x="390.5" y="151"/><ellipse cx="420.35" cy="171.0938" fill="#57D4FF" rx="11" ry="11" style="stroke:#A80036;stroke-width:1.0;"/><path d="M423.1156,166.9688 Q423.2719,166.75 423.4594,166.6406 Q423.6469,166.5313 423.8656,166.5313 Q424.2406,166.5313 424.475,166.7969 Q424.7094,167.0469 424.7094,167.6563 L424.7094,169.1094 Q424.7094,169.7188 424.475,169.9844 Q424.2406,170.25 423.8656,170.25 Q423.5219,170.25 423.3188,170.0469 Q423.1156,169.8594 423.0063,169.3438 Q422.9594,168.9844 422.7719,168.7969 Q422.4438,168.4219 421.8344,168.2031 Q421.225,167.9844 420.6,167.9844 Q419.8344,167.9844 419.1938,168.3125 Q418.5688,168.6406 418.0688,169.3906 Q417.5844,170.1406 417.5844,171.1719 L417.5844,172.2656 Q417.5844,173.5 418.475,174.3281 Q419.3656,175.1406 420.9594,175.1406 Q421.8969,175.1406 422.5531,174.8906 Q422.9438,174.7344 423.3656,174.2969 Q423.6313,174.0313 423.7719,173.9531 Q423.9281,173.875 424.1313,173.875 Q424.4594,173.875 424.7094,174.1406 Q424.975,174.3906 424.975,174.7344 Q424.975,175.0781 424.6313,175.4844 Q424.1313,176.0625 423.3344,176.3906 Q422.2563,176.8438 420.9594,176.8438 Q419.4438,176.8438 418.2406,176.2188 Q417.2563,175.7188 416.5688,174.6563 Q415.8813,173.5781 415.8813,172.2969 L415.8813,171.1406 Q415.8813,169.8125 416.4906,168.6719 Q417.1156,167.5156 418.2094,166.9063 Q419.3031,166.2813 420.5375,166.2813 Q421.2719,166.2813 421.9125,166.4531 Q422.5688,166.6094 423.1156,166.9688 Z " fill="#000000"/><text fill="#000000" font-family="sans-serif" font-size="12" font-style="italic" lengthAdjust="spacing" textLength="89" x="435.65" y="168.457">«basicConcept»</text><text fill="#000000" font-family="sans-serif" font-size="12" lengthAdjust="spacing" textLength="54" x="453.15" y="183.5508">Operation</text><line style="stroke:#A80036;stroke-width:1.5;" x1="391.5" x2="539.5" y1="191.1875" y2="191.1875"/><text fill="#000000" font-family="sans-serif" font-size="11" lengthAdjust="spacing" textLength="58" x="396.5" y="206.6064">String name</text><text fill="#000000" font-family="sans-serif" font-size="11" lengthAdjust="spacing" textLength="138" x="396.5" y="220.4424">MAPDecorator responsibility</text><line style="stroke:#A80036;stroke-width:1.5;" x1="391.5" x2="539.5" y1="226.8594" y2="226.8594"/><path d="M187.5,155.5 L187.5,230.9063 A0,0 0 0 0 187.5,230.9063 L355.5,230.9063 A0,0 0 0 0 355.5,230.9063 L355.5,197 L390.38,193 L355.5,189 L355.5,165.5 L345.5,155.5 L187.5,155.5 A0,0 0 0 0 187.5,155.5 " fill="#FBFB77" filter="url(#f12id7o9rv9pan)" style="stroke:#A80036;stroke-width:1.0;"/><path d="M345.5,155.5 L345.5,165.5 L355.5,165.5 L345.5,155.5 " fill="#FBFB77" style="stroke:#A80036;stroke-width:1.0;"/><text fill="#000000" font-family="sans-serif" font-size="13" font-weight="bold" lengthAdjust="spacing" textLength="147" x="193.5" y="173.9951">Operation Refactorings:</text><text fill="#000000" font-family="sans-serif" font-size="13" lengthAdjust="spacing" textLength="5" x="197.5" y="190.3467">*</text><text fill="#000000" font-family="sans-serif" font-size="13" font-style="italic" lengthAdjust="spacing" textLength="97" x="206.5" y="190.3467">Extract Endpoint</text><text fill="#000000" font-family="sans-serif" font-size="13" lengthAdjust="spacing" textLength="0" x="307.5" y="190.3467"/><text fill="#000000" font-family="sans-serif" font-size="13" lengthAdjust="spacing" textLength="5" x="197.5" y="206.6982">*</text><text fill="#000000" font-family="sans-serif" font-size="13" font-style="italic" lengthAdjust="spacing" textLength="92" x="206.5" y="206.6982">Move Operation</text><text fill="#000000" font-family="sans-serif" font-size="13" lengthAdjust="spacing" textLength="0" x="302.5" y="206.6982"/><text fill="#000000" font-family="sans-serif" font-size="13" lengthAdjust="spacing" textLength="5" x="197.5" y="223.0498">*</text><text fill="#000000" font-family="sans-serif" font-size="13" font-style="italic" lengthAdjust="spacing" textLength="108" x="206.5" y="223.0498">Rename Operation</text><!--MD5=[e93d480bc88e1c582484fbb697036f76]
class ResponseMessagePayload--><rect codeLine="19" fill="#FEFECE" filter="url(#f12id7o9rv9pan)" height="83.8594" id="ResponseMessagePayload" style="stroke:#A80036;stroke-width:1.5;" width="210" x="709.5" y="299"/><ellipse cx="736.65" cy="319.0938" fill="#57D4FF" rx="11" ry="11" style="stroke:#A80036;stroke-width:1.0;"/><path d="M739.4156,314.9688 Q739.5719,314.75 739.7594,314.6406 Q739.9469,314.5313 740.1656,314.5313 Q740.5406,314.5313 740.775,314.7969 Q741.0094,315.0469 741.0094,315.6563 L741.0094,317.1094 Q741.0094,317.7188 740.775,317.9844 Q740.5406,318.25 740.1656,318.25 Q739.8219,318.25 739.6188,318.0469 Q739.4156,317.8594 739.3063,317.3438 Q739.2594,316.9844 739.0719,316.7969 Q738.7438,316.4219 738.1344,316.2031 Q737.525,315.9844 736.9,315.9844 Q736.1344,315.9844 735.4938,316.3125 Q734.8688,316.6406 734.3688,317.3906 Q733.8844,318.1406 733.8844,319.1719 L733.8844,320.2656 Q733.8844,321.5 734.775,322.3281 Q735.6656,323.1406 737.2594,323.1406 Q738.1969,323.1406 738.8531,322.8906 Q739.2438,322.7344 739.6656,322.2969 Q739.9313,322.0313 740.0719,321.9531 Q740.2281,321.875 740.4313,321.875 Q740.7594,321.875 741.0094,322.1406 Q741.275,322.3906 741.275,322.7344 Q741.275,323.0781 740.9313,323.4844 Q740.4313,324.0625 739.6344,324.3906 Q738.5563,324.8438 737.2594,324.8438 Q735.7438,324.8438 734.5406,324.2188 Q733.5563,323.7188 732.8688,322.6563 Q732.1813,321.5781 732.1813,320.2969 L732.1813,319.1406 Q732.1813,317.8125 732.7906,316.6719 Q733.4156,315.5156 734.5094,314.9063 Q735.6031,314.2813 736.8375,314.2813 Q737.5719,314.2813 738.2125,314.4531 Q738.8688,314.6094 739.4156,314.9688 Z " fill="#000000"/><text fill="#000000" font-family="sans-serif" font-size="12" font-style="italic" lengthAdjust="spacing" textLength="89" x="784.35" y="316.457">«basicConcept»</text><text fill="#000000" font-family="sans-serif" font-size="12" lengthAdjust="spacing" textLength="151" x="753.35" y="331.5508">ResponseMessagePayload</text><line style="stroke:#A80036;stroke-width:1.5;" x1="710.5" x2="918.5" y1="339.1875" y2="339.1875"/><text fill="#000000" font-family="sans-serif" font-size="11" lengthAdjust="spacing" textLength="155" x="715.5" y="354.6064">KeyValuePairs protocolHeaders</text><text fill="#000000" font-family="sans-serif" font-size="11" lengthAdjust="spacing" textLength="198" x="715.5" y="368.4424">RepresentationElements requestPayload</text><line style="stroke:#A80036;stroke-width:1.5;" x1="710.5" x2="918.5" y1="374.8594" y2="374.8594"/><path d="M457,295 L457,386.7578 A0,0 0 0 0 457,386.7578 L674,386.7578 A0,0 0 0 0 674,386.7578 L674,345 L709.45,341 L674,337 L674,305 L664,295 L457,295 A0,0 0 0 0 457,295 " fill="#FBFB77" filter="url(#f12id7o9rv9pan)" style="stroke:#A80036;stroke-width:1.0;"/><path d="M664,295 L664,305 L674,305 L664,295 " fill="#FBFB77" style="stroke:#A80036;stroke-width:1.0;"/><text fill="#000000" font-family="sans-serif" font-size="13" font-weight="bold" lengthAdjust="spacing" textLength="140" x="463" y="313.4951">Message Refactorings:</text><text fill="#000000" font-family="sans-serif" font-size="13" lengthAdjust="spacing" textLength="5" x="467" y="329.8467">*</text><text fill="#000000" font-family="sans-serif" font-size="13" font-style="italic" lengthAdjust="spacing" textLength="179" x="476" y="329.8467">Introduce Data Transfer Object</text><text fill="#000000" font-family="sans-serif" font-size="13" lengthAdjust="spacing" textLength="0" x="659" y="329.8467"/><text fill="#000000" font-family="sans-serif" font-size="13" lengthAdjust="spacing" textLength="5" x="467" y="346.1982">*</text><text fill="#000000" font-family="sans-serif" font-size="13" font-style="italic" lengthAdjust="spacing" textLength="152" x="476" y="346.1982">Extract Information Holder</text><text fill="#000000" font-family="sans-serif" font-size="13" lengthAdjust="spacing" textLength="0" x="632" y="346.1982"/><text fill="#000000" font-family="sans-serif" font-size="13" lengthAdjust="spacing" textLength="5" x="467" y="362.5498">*</text><text fill="#000000" font-family="sans-serif" font-size="13" font-style="italic" lengthAdjust="spacing" textLength="141" x="476" y="362.5498">Inline Information Holder</text><text fill="#000000" font-family="sans-serif" font-size="13" lengthAdjust="spacing" textLength="0" x="621" y="362.5498"/><text fill="#000000" font-family="sans-serif" font-size="13" lengthAdjust="spacing" textLength="5" x="467" y="378.9014">*</text><text fill="#000000" font-family="sans-serif" font-size="13" font-style="italic" lengthAdjust="spacing" textLength="119" x="476" y="378.9014">Introduce Pagination</text><!--MD5=[2266c51e2e890c8bcebcea740afba0fd]
class RequestMessagePayload--><rect codeLine="25" fill="#FEFECE" filter="url(#f12id7o9rv9pan)" height="83.8594" id="RequestMessagePayload" style="stroke:#A80036;stroke-width:1.5;" width="219" x="7" y="299"/><ellipse cx="42.7" cy="319.0938" fill="#57D4FF" rx="11" ry="11" style="stroke:#A80036;stroke-width:1.0;"/><path d="M45.4656,314.9688 Q45.6219,314.75 45.8094,314.6406 Q45.9969,314.5313 46.2156,314.5313 Q46.5906,314.5313 46.825,314.7969 Q47.0594,315.0469 47.0594,315.6563 L47.0594,317.1094 Q47.0594,317.7188 46.825,317.9844 Q46.5906,318.25 46.2156,318.25 Q45.8719,318.25 45.6688,318.0469 Q45.4656,317.8594 45.3563,317.3438 Q45.3094,316.9844 45.1219,316.7969 Q44.7938,316.4219 44.1844,316.2031 Q43.575,315.9844 42.95,315.9844 Q42.1844,315.9844 41.5438,316.3125 Q40.9188,316.6406 40.4188,317.3906 Q39.9344,318.1406 39.9344,319.1719 L39.9344,320.2656 Q39.9344,321.5 40.825,322.3281 Q41.7156,323.1406 43.3094,323.1406 Q44.2469,323.1406 44.9031,322.8906 Q45.2938,322.7344 45.7156,322.2969 Q45.9813,322.0313 46.1219,321.9531 Q46.2781,321.875 46.4813,321.875 Q46.8094,321.875 47.0594,322.1406 Q47.325,322.3906 47.325,322.7344 Q47.325,323.0781 46.9813,323.4844 Q46.4813,324.0625 45.6844,324.3906 Q44.6063,324.8438 43.3094,324.8438 Q41.7938,324.8438 40.5906,324.2188 Q39.6063,323.7188 38.9188,322.6563 Q38.2313,321.5781 38.2313,320.2969 L38.2313,319.1406 Q38.2313,317.8125 38.8406,316.6719 Q39.4656,315.5156 40.5594,314.9063 Q41.6531,314.2813 42.8875,314.2813 Q43.6219,314.2813 44.2625,314.4531 Q44.9188,314.6094 45.4656,314.9688 Z " fill="#000000"/><text fill="#000000" font-family="sans-serif" font-size="12" font-style="italic" lengthAdjust="spacing" textLength="89" x="87.3" y="316.457">«basicConcept»</text><text fill="#000000" font-family="sans-serif" font-size="12" lengthAdjust="spacing" textLength="141" x="61.3" y="331.5508">RequestMessagePayload</text><line style="stroke:#A80036;stroke-width:1.5;" x1="8" x2="225" y1="339.1875" y2="339.1875"/><text fill="#000000" font-family="sans-serif" font-size="11" lengthAdjust="spacing" textLength="155" x="13" y="354.6064">KeyValuePairs protocolHeaders</text><text fill="#000000" font-family="sans-serif" font-size="11" lengthAdjust="spacing" textLength="207" x="13" y="368.4424">RepresentationElements responsePayload</text><line style="stroke:#A80036;stroke-width:1.5;" x1="8" x2="225" y1="374.8594" y2="374.8594"/><path d="M261,319.5 L261,337 L226.36,341 L261,345 L261,362.2031 A0,0 0 0 0 261,362.2031 L422,362.2031 A0,0 0 0 0 422,362.2031 L422,329.5 L412,319.5 L261,319.5 A0,0 0 0 0 261,319.5 " fill="#FBFB77" filter="url(#f12id7o9rv9pan)" style="stroke:#A80036;stroke-width:1.0;"/><path d="M412,319.5 L412,329.5 L422,329.5 L412,319.5 " fill="#FBFB77" style="stroke:#A80036;stroke-width:1.0;"/><text fill="#000000" font-family="sans-serif" font-size="13" font-weight="bold" lengthAdjust="spacing" textLength="140" x="267" y="337.9951">Message Refactorings:</text><text fill="#000000" font-family="sans-serif" font-size="13" lengthAdjust="spacing" textLength="5" x="271" y="354.3467">*</text><text fill="#000000" font-family="sans-serif" font-size="13" font-style="italic" lengthAdjust="spacing" textLength="99" x="280" y="354.3467">Bundle Requests</text><!--MD5=[7c1f5f2c5b0ca57c698485f77a5e1a53]
link Endpoint to Operation--><path codeLine="31" d="M465.5,103.07 C465.5,103.07 465.5,126.36 465.5,137.18 " fill="none" id="Endpoint-Operation" style="stroke:#A80036;stroke-width:1.0;"/><polygon fill="#A80036" points="465.5,150.53,469.5,141.53,465.5,145.53,461.5,141.53,465.5,150.53" style="stroke:#A80036;stroke-width:1.0;"/><line style="stroke:#A80036;stroke-width:1.0;" x1="465.5" x2="465.5" y1="145.53" y2="137.53"/><polygon fill="#A80036" points="465.5,91.07,461.5,97.07,465.5,103.07,469.5,97.07,465.5,91.07" style="stroke:#A80036;stroke-width:1.0;"/><!--MD5=[10534098f25f5494bff09396759b179f]
link Operation to RequestMessagePayload--><path codeLine="32" d="M379.2553,232.522 C379.2553,232.522 375.04,234.34 373.5,235 C327.11,254.81 275.7,275.97 231.12,294.07 " fill="none" id="Operation-RequestMessagePayload" style="stroke:#A80036;stroke-width:1.0;"/><polygon fill="#A80036" points="219.04,298.96,228.8836,299.2832,223.6732,297.0803,225.8761,291.87,219.04,298.96" style="stroke:#A80036;stroke-width:1.0;"/><line style="stroke:#A80036;stroke-width:1.0;" x1="223.6732" x2="231.09" y1="297.0803" y2="294.075"/><polygon fill="#A80036" points="390.27,227.76,383.1753,226.4695,379.2553,232.522,386.35,233.8126,390.27,227.76" style="stroke:#A80036;stroke-width:1.0;"/><!--MD5=[f58b5333d27ae3717f5c8afccd67aeff]
link Operation to ResponseMessagePayload--><path codeLine="33" d="M551.8703,230.1313 C551.8703,230.1313 655.35,273.42 704.21,293.86 " fill="none" id="Operation-ResponseMessagePayload" style="stroke:#A80036;stroke-width:1.0;"/><polygon fill="#A80036" points="716.45,298.98,709.6911,291.8164,711.8374,297.0503,706.6035,299.1966,716.45,298.98" style="stroke:#A80036;stroke-width:1.0;"/><line style="stroke:#A80036;stroke-width:1.0;" x1="711.8374" x2="704.455" y1="297.0503" y2="293.965"/><polygon fill="#A80036" points="540.8,225.5,544.7914,231.5057,551.8703,230.1313,547.8789,224.1256,540.8,225.5" style="stroke:#A80036;stroke-width:1.0;"/><!--MD5=[36753c2bd120673ffadecb114f7e0639]
@startuml

class Endpoint <<(C,#57d4ff)basicConcept>> {
 Address location
 MAPDecorator role
}
note left: <b>Endpoint Refactorings:</b>\n * <i>Merge Endpoints</i>

'note right of Endpoint: <b>Evolution Refactorings:</b>\n * <i>Strengthen Evolution Strategy</i> \n * <i>Relax Evolution Strategy</i>


class Operation <<(C,#57d4ff)basicConcept>> {
 String name
 MAPDecorator responsibility
}
note left: <b>Operation Refactorings:</b>\n * <i>Extract Endpoint</i> \n * <i>Move Operation</i> \n * <i>Rename Operation</i> 

'note right of Operation: <b>Evolution Refactorings:</b>\n * <i>Introduce Version Identifier</i>\n * <i>Introduce Version Mediator</i> 

class ResponseMessagePayload <<(C,#57d4ff)basicConcept>> {
  KeyValuePairs protocolHeaders
  RepresentationElements requestPayload
}
note left: <b>Message Refactorings:</b>\n * <i>Introduce Data Transfer Object</i> \n * <i>Extract Information Holder</i> \n * <i>Inline Information Holder</i> \n * <i>Introduce Pagination</i> 

class RequestMessagePayload <<(C,#57d4ff)basicConcept>> {
  KeyValuePairs protocolHeaders
  RepresentationElements responsePayload
}
note right: <b>Message Refactorings:</b>\n * <i>Bundle Requests</i> 

Endpoint *- -> Operation 
Operation *- -> RequestMessagePayload 
Operation *- -> ResponseMessagePayload
' RequestMessage *- - InParameters
' ResponseMessage*- - OutParameters


@enduml

@startuml

class Endpoint <<(C,#57d4ff)basicConcept>> {
 Address location
 MAPDecorator role
}
note left: <b>Endpoint Refactorings:</b>\n * <i>Merge Endpoints</i>



class Operation <<(C,#57d4ff)basicConcept>> {
 String name
 MAPDecorator responsibility
}
note left: <b>Operation Refactorings:</b>\n * <i>Extract Endpoint</i> \n * <i>Move Operation</i> \n * <i>Rename Operation</i> 


class ResponseMessagePayload <<(C,#57d4ff)basicConcept>> {
  KeyValuePairs protocolHeaders
  RepresentationElements requestPayload
}
note left: <b>Message Refactorings:</b>\n * <i>Introduce Data Transfer Object</i> \n * <i>Extract Information Holder</i> \n * <i>Inline Information Holder</i> \n * <i>Introduce Pagination</i> 

class RequestMessagePayload <<(C,#57d4ff)basicConcept>> {
  KeyValuePairs protocolHeaders
  RepresentationElements responsePayload
}
note right: <b>Message Refactorings:</b>\n * <i>Bundle Requests</i> 

Endpoint *- -> Operation 
Operation *- -> RequestMessagePayload 
Operation *- -> ResponseMessagePayload


@enduml

PlantUML version 1.2021.7(Sun May 23 14:40:07 CEST 2021)
(GPL source distribution)
Java Runtime: OpenJDK Runtime Environment
JVM: OpenJDK 64-Bit Server VM
Default Encoding: Cp1252
Language: en
Country: US
--></g></svg>