<?xml version="1.0" encoding="UTF-8" standalone="no"?><svg xmlns="http://www.w3.org/2000/svg" xmlns:xlink="http://www.w3.org/1999/xlink" contentScriptType="application/ecmascript" contentStyleType="text/css" height="436px" preserveAspectRatio="none" style="width:1028px;height:436px;" version="1.1" viewBox="0 0 1028 436" width="1028px" zoomAndPan="magnify"><defs><filter height="300%" id="f6piz0n2a4ev2" width="300%" x="-1" y="-1"><feGaussianBlur result="blurOut" stdDeviation="2.0"/><feColorMatrix in="blurOut" result="blurOut2" type="matrix" values="0 0 0 0 0 0 0 0 0 0 0 0 0 0 0 0 0 0 .4 0"/><feOffset dx="4.0" dy="4.0" in="blurOut2" result="blurOut3"/><feBlend in="SourceGraphic" in2="blurOut3" mode="normal"/></filter></defs><g><!--MD5=[4fd3bb6c1d79f4919f90c95b62a35422]
class Endpoint--><rect codeLine="2" fill="#FEFECE" filter="url(#f6piz0n2a4ev2)" height="83.8594" id="Endpoint" style="stroke:#A80036;stroke-width:1.5;" width="117" x="452" y="7"/><ellipse cx="467" cy="27.0938" fill="#57D4FF" rx="11" ry="11" style="stroke:#A80036;stroke-width:1.0;"/><path d="M469.7656,22.9688 Q469.9219,22.75 470.1094,22.6406 Q470.2969,22.5313 470.5156,22.5313 Q470.8906,22.5313 471.125,22.7969 Q471.3594,23.0469 471.3594,23.6563 L471.3594,25.1094 Q471.3594,25.7188 471.125,25.9844 Q470.8906,26.25 470.5156,26.25 Q470.1719,26.25 469.9688,26.0469 Q469.7656,25.8594 469.6563,25.3438 Q469.6094,24.9844 469.4219,24.7969 Q469.0938,24.4219 468.4844,24.2031 Q467.875,23.9844 467.25,23.9844 Q466.4844,23.9844 465.8438,24.3125 Q465.2188,24.6406 464.7188,25.3906 Q464.2344,26.1406 464.2344,27.1719 L464.2344,28.2656 Q464.2344,29.5 465.125,30.3281 Q466.0156,31.1406 467.6094,31.1406 Q468.5469,31.1406 469.2031,30.8906 Q469.5938,30.7344 470.0156,30.2969 Q470.2813,30.0313 470.4219,29.9531 Q470.5781,29.875 470.7813,29.875 Q471.1094,29.875 471.3594,30.1406 Q471.625,30.3906 471.625,30.7344 Q471.625,31.0781 471.2813,31.4844 Q470.7813,32.0625 469.9844,32.3906 Q468.9063,32.8438 467.6094,32.8438 Q466.0938,32.8438 464.8906,32.2188 Q463.9063,31.7188 463.2188,30.6563 Q462.5313,29.5781 462.5313,28.2969 L462.5313,27.1406 Q462.5313,25.8125 463.1406,24.6719 Q463.7656,23.5156 464.8594,22.9063 Q465.9531,22.2813 467.1875,22.2813 Q467.9219,22.2813 468.5625,22.4531 Q469.2188,22.6094 469.7656,22.9688 Z " fill="#000000"/><text fill="#000000" font-family="sans-serif" font-size="12" font-style="italic" lengthAdjust="spacing" textLength="89" x="479" y="24.457">«basicConcept»</text><text fill="#000000" font-family="sans-serif" font-size="12" lengthAdjust="spacing" textLength="49" x="499" y="39.5508">Endpoint</text><line style="stroke:#A80036;stroke-width:1.5;" x1="453" x2="568" y1="47.1875" y2="47.1875"/><text fill="#000000" font-family="sans-serif" font-size="11" lengthAdjust="spacing" textLength="81" x="458" y="62.6064">Address location</text><text fill="#000000" font-family="sans-serif" font-size="11" lengthAdjust="spacing" textLength="93" x="458" y="76.4424">MAPDecorator role</text><line style="stroke:#A80036;stroke-width:1.5;" x1="453" x2="568" y1="82.8594" y2="82.8594"/><path d="M170.5,11.5 L170.5,86.9063 A0,0 0 0 0 170.5,86.9063 L416.5,86.9063 A0,0 0 0 0 416.5,86.9063 L416.5,53 L451.96,49 L416.5,45 L416.5,21.5 L406.5,11.5 L170.5,11.5 A0,0 0 0 0 170.5,11.5 " fill="#FBFB77" filter="url(#f6piz0n2a4ev2)" style="stroke:#A80036;stroke-width:1.0;"/><path d="M406.5,11.5 L406.5,21.5 L416.5,21.5 L406.5,11.5 " fill="#FBFB77" style="stroke:#A80036;stroke-width:1.0;"/><text fill="#000000" font-family="sans-serif" font-size="13" font-weight="bold" lengthAdjust="spacing" textLength="143" x="176.5" y="29.9951">Endpoint Refactorings:</text><text fill="#000000" font-family="sans-serif" font-size="13" lengthAdjust="spacing" textLength="5" x="180.5" y="46.3467">*</text><text fill="#000000" font-family="sans-serif" font-size="13" font-style="italic" lengthAdjust="spacing" textLength="103" x="189.5" y="46.3467">Rename Endpoint</text><text fill="#000000" font-family="sans-serif" font-size="13" lengthAdjust="spacing" textLength="0" x="296.5" y="46.3467"/><text fill="#000000" font-family="sans-serif" font-size="13" lengthAdjust="spacing" textLength="5" x="180.5" y="62.6982">*</text><text fill="#000000" font-family="sans-serif" font-size="13" font-style="italic" lengthAdjust="spacing" textLength="98" x="189.5" y="62.6982">Merge Endpoints</text><text fill="#000000" font-family="sans-serif" font-size="13" lengthAdjust="spacing" textLength="0" x="291.5" y="62.6982"/><text fill="#000000" font-family="sans-serif" font-size="13" lengthAdjust="spacing" textLength="5" x="180.5" y="79.0498">*</text><text fill="#000000" font-family="sans-serif" font-size="13" font-style="italic" lengthAdjust="spacing" textLength="208" x="189.5" y="79.0498">Segregate Commands from Queries</text><path d="M604.5,19.5 L604.5,45 L569.09,49 L604.5,53 L604.5,78.5547 A0,0 0 0 0 604.5,78.5547 L816.5,78.5547 A0,0 0 0 0 816.5,78.5547 L816.5,29.5 L806.5,19.5 L604.5,19.5 A0,0 0 0 0 604.5,19.5 " fill="#FBFB77" filter="url(#f6piz0n2a4ev2)" style="stroke:#A80036;stroke-width:1.0;"/><path d="M806.5,19.5 L806.5,29.5 L816.5,29.5 L806.5,19.5 " fill="#FBFB77" style="stroke:#A80036;stroke-width:1.0;"/><text fill="#000000" font-family="sans-serif" font-size="13" font-weight="bold" lengthAdjust="spacing" textLength="146" x="610.5" y="37.9951">Evolution Refactorings:</text><text fill="#000000" font-family="sans-serif" font-size="13" lengthAdjust="spacing" textLength="5" x="614.5" y="54.3467">*</text><text fill="#000000" font-family="sans-serif" font-size="13" font-style="italic" lengthAdjust="spacing" textLength="174" x="623.5" y="54.3467">Strengthen Evolution Strategy</text><text fill="#000000" font-family="sans-serif" font-size="13" lengthAdjust="spacing" textLength="0" x="801.5" y="54.3467"/><text fill="#000000" font-family="sans-serif" font-size="13" lengthAdjust="spacing" textLength="5" x="614.5" y="70.6982">*</text><text fill="#000000" font-family="sans-serif" font-size="13" font-style="italic" lengthAdjust="spacing" textLength="144" x="623.5" y="70.6982">Relax Evolution Strategy</text><!--MD5=[cca5d97aaf46870920fae66c9bd85cdd]
class Operation--><rect codeLine="11" fill="#FEFECE" filter="url(#f6piz0n2a4ev2)" height="83.8594" id="Operation" style="stroke:#A80036;stroke-width:1.5;" width="150" x="435.5" y="163"/><ellipse cx="465.35" cy="183.0938" fill="#57D4FF" rx="11" ry="11" style="stroke:#A80036;stroke-width:1.0;"/><path d="M468.1156,178.9688 Q468.2719,178.75 468.4594,178.6406 Q468.6469,178.5313 468.8656,178.5313 Q469.2406,178.5313 469.475,178.7969 Q469.7094,179.0469 469.7094,179.6563 L469.7094,181.1094 Q469.7094,181.7188 469.475,181.9844 Q469.2406,182.25 468.8656,182.25 Q468.5219,182.25 468.3188,182.0469 Q468.1156,181.8594 468.0063,181.3438 Q467.9594,180.9844 467.7719,180.7969 Q467.4438,180.4219 466.8344,180.2031 Q466.225,179.9844 465.6,179.9844 Q464.8344,179.9844 464.1938,180.3125 Q463.5688,180.6406 463.0688,181.3906 Q462.5844,182.1406 462.5844,183.1719 L462.5844,184.2656 Q462.5844,185.5 463.475,186.3281 Q464.3656,187.1406 465.9594,187.1406 Q466.8969,187.1406 467.5531,186.8906 Q467.9438,186.7344 468.3656,186.2969 Q468.6313,186.0313 468.7719,185.9531 Q468.9281,185.875 469.1313,185.875 Q469.4594,185.875 469.7094,186.1406 Q469.975,186.3906 469.975,186.7344 Q469.975,187.0781 469.6313,187.4844 Q469.1313,188.0625 468.3344,188.3906 Q467.2563,188.8438 465.9594,188.8438 Q464.4438,188.8438 463.2406,188.2188 Q462.2563,187.7188 461.5688,186.6563 Q460.8813,185.5781 460.8813,184.2969 L460.8813,183.1406 Q460.8813,181.8125 461.4906,180.6719 Q462.1156,179.5156 463.2094,178.9063 Q464.3031,178.2813 465.5375,178.2813 Q466.2719,178.2813 466.9125,178.4531 Q467.5688,178.6094 468.1156,178.9688 Z " fill="#000000"/><text fill="#000000" font-family="sans-serif" font-size="12" font-style="italic" lengthAdjust="spacing" textLength="89" x="480.65" y="180.457">«basicConcept»</text><text fill="#000000" font-family="sans-serif" font-size="12" lengthAdjust="spacing" textLength="54" x="498.15" y="195.5508">Operation</text><line style="stroke:#A80036;stroke-width:1.5;" x1="436.5" x2="584.5" y1="203.1875" y2="203.1875"/><text fill="#000000" font-family="sans-serif" font-size="11" lengthAdjust="spacing" textLength="58" x="441.5" y="218.6064">String name</text><text fill="#000000" font-family="sans-serif" font-size="11" lengthAdjust="spacing" textLength="138" x="441.5" y="232.4424">MAPDecorator responsibility</text><line style="stroke:#A80036;stroke-width:1.5;" x1="436.5" x2="584.5" y1="238.8594" y2="238.8594"/><path d="M232.5,151 L232.5,259.1094 A0,0 0 0 0 232.5,259.1094 L400.5,259.1094 A0,0 0 0 0 400.5,259.1094 L400.5,209 L435.38,205 L400.5,201 L400.5,161 L390.5,151 L232.5,151 A0,0 0 0 0 232.5,151 " fill="#FBFB77" filter="url(#f6piz0n2a4ev2)" style="stroke:#A80036;stroke-width:1.0;"/><path d="M390.5,151 L390.5,161 L400.5,161 L390.5,151 " fill="#FBFB77" style="stroke:#A80036;stroke-width:1.0;"/><text fill="#000000" font-family="sans-serif" font-size="13" font-weight="bold" lengthAdjust="spacing" textLength="147" x="238.5" y="169.4951">Operation Refactorings:</text><text fill="#000000" font-family="sans-serif" font-size="13" lengthAdjust="spacing" textLength="5" x="242.5" y="185.8467">*</text><text fill="#000000" font-family="sans-serif" font-size="13" font-style="italic" lengthAdjust="spacing" textLength="97" x="251.5" y="185.8467">Extract Endpoint</text><text fill="#000000" font-family="sans-serif" font-size="13" lengthAdjust="spacing" textLength="0" x="352.5" y="185.8467"/><text fill="#000000" font-family="sans-serif" font-size="13" lengthAdjust="spacing" textLength="5" x="242.5" y="202.1982">*</text><text fill="#000000" font-family="sans-serif" font-size="13" font-style="italic" lengthAdjust="spacing" textLength="92" x="251.5" y="202.1982">Move Operation</text><text fill="#000000" font-family="sans-serif" font-size="13" lengthAdjust="spacing" textLength="0" x="347.5" y="202.1982"/><text fill="#000000" font-family="sans-serif" font-size="13" lengthAdjust="spacing" textLength="5" x="242.5" y="218.5498">*</text><text fill="#000000" font-family="sans-serif" font-size="13" font-style="italic" lengthAdjust="spacing" textLength="108" x="251.5" y="218.5498">Rename Operation</text><text fill="#000000" font-family="sans-serif" font-size="13" lengthAdjust="spacing" textLength="0" x="363.5" y="218.5498"/><text fill="#000000" font-family="sans-serif" font-size="13" lengthAdjust="spacing" textLength="5" x="242.5" y="234.9014">*</text><text fill="#000000" font-family="sans-serif" font-size="13" font-style="italic" lengthAdjust="spacing" textLength="86" x="251.5" y="234.9014">Split Operation</text><text fill="#000000" font-family="sans-serif" font-size="13" lengthAdjust="spacing" textLength="0" x="341.5" y="234.9014"/><text fill="#000000" font-family="sans-serif" font-size="13" lengthAdjust="spacing" textLength="5" x="242.5" y="251.2529">*</text><text fill="#000000" font-family="sans-serif" font-size="13" font-style="italic" lengthAdjust="spacing" textLength="103" x="251.5" y="251.2529">Merge Operations</text><path d="M620.5,175.5 L620.5,201 L585.77,205 L620.5,209 L620.5,234.5547 A0,0 0 0 0 620.5,234.5547 L810.5,234.5547 A0,0 0 0 0 810.5,234.5547 L810.5,185.5 L800.5,175.5 L620.5,175.5 A0,0 0 0 0 620.5,175.5 " fill="#FBFB77" filter="url(#f6piz0n2a4ev2)" style="stroke:#A80036;stroke-width:1.0;"/><path d="M800.5,175.5 L800.5,185.5 L810.5,185.5 L800.5,175.5 " fill="#FBFB77" style="stroke:#A80036;stroke-width:1.0;"/><text fill="#000000" font-family="sans-serif" font-size="13" font-weight="bold" lengthAdjust="spacing" textLength="146" x="626.5" y="193.9951">Evolution Refactorings:</text><text fill="#000000" font-family="sans-serif" font-size="13" lengthAdjust="spacing" textLength="5" x="630.5" y="210.3467">*</text><text fill="#000000" font-family="sans-serif" font-size="13" font-style="italic" lengthAdjust="spacing" textLength="156" x="639.5" y="210.3467">Introduce Version Identifier</text><text fill="#000000" font-family="sans-serif" font-size="13" lengthAdjust="spacing" textLength="5" x="630.5" y="226.6982">*</text><text fill="#000000" font-family="sans-serif" font-size="13" font-style="italic" lengthAdjust="spacing" textLength="156" x="639.5" y="226.6982">Introduce Version Mediator</text><!--MD5=[e93d480bc88e1c582484fbb697036f76]
class ResponseMessagePayload--><rect codeLine="19" fill="#FEFECE" filter="url(#f6piz0n2a4ev2)" height="83.8594" id="ResponseMessagePayload" style="stroke:#A80036;stroke-width:1.5;" width="219" x="795" y="331"/><ellipse cx="826.2" cy="351.0938" fill="#57D4FF" rx="11" ry="11" style="stroke:#A80036;stroke-width:1.0;"/><path d="M828.9656,346.9688 Q829.1219,346.75 829.3094,346.6406 Q829.4969,346.5313 829.7156,346.5313 Q830.0906,346.5313 830.325,346.7969 Q830.5594,347.0469 830.5594,347.6563 L830.5594,349.1094 Q830.5594,349.7188 830.325,349.9844 Q830.0906,350.25 829.7156,350.25 Q829.3719,350.25 829.1688,350.0469 Q828.9656,349.8594 828.8563,349.3438 Q828.8094,348.9844 828.6219,348.7969 Q828.2938,348.4219 827.6844,348.2031 Q827.075,347.9844 826.45,347.9844 Q825.6844,347.9844 825.0438,348.3125 Q824.4188,348.6406 823.9188,349.3906 Q823.4344,350.1406 823.4344,351.1719 L823.4344,352.2656 Q823.4344,353.5 824.325,354.3281 Q825.2156,355.1406 826.8094,355.1406 Q827.7469,355.1406 828.4031,354.8906 Q828.7938,354.7344 829.2156,354.2969 Q829.4813,354.0313 829.6219,353.9531 Q829.7781,353.875 829.9813,353.875 Q830.3094,353.875 830.5594,354.1406 Q830.825,354.3906 830.825,354.7344 Q830.825,355.0781 830.4813,355.4844 Q829.9813,356.0625 829.1844,356.3906 Q828.1063,356.8438 826.8094,356.8438 Q825.2938,356.8438 824.0906,356.2188 Q823.1063,355.7188 822.4188,354.6563 Q821.7313,353.5781 821.7313,352.2969 L821.7313,351.1406 Q821.7313,349.8125 822.3406,348.6719 Q822.9656,347.5156 824.0594,346.9063 Q825.1531,346.2813 826.3875,346.2813 Q827.1219,346.2813 827.7625,346.4531 Q828.4188,346.6094 828.9656,346.9688 Z " fill="#000000"/><text fill="#000000" font-family="sans-serif" font-size="12" font-style="italic" lengthAdjust="spacing" textLength="89" x="874.8" y="348.457">«basicConcept»</text><text fill="#000000" font-family="sans-serif" font-size="12" lengthAdjust="spacing" textLength="151" x="843.8" y="363.5508">ResponseMessagePayload</text><line style="stroke:#A80036;stroke-width:1.5;" x1="796" x2="1013" y1="371.1875" y2="371.1875"/><text fill="#000000" font-family="sans-serif" font-size="11" lengthAdjust="spacing" textLength="155" x="801" y="386.6064">KeyValuePairs protocolHeaders</text><text fill="#000000" font-family="sans-serif" font-size="11" lengthAdjust="spacing" textLength="207" x="801" y="400.4424">RepresentationElements responsePayload</text><line style="stroke:#A80036;stroke-width:1.5;" x1="796" x2="1013" y1="406.8594" y2="406.8594"/><path d="M535,319 L535,427.1094 A0,0 0 0 0 535,427.1094 L760,427.1094 A0,0 0 0 0 760,427.1094 L760,377 L794.86,373 L760,369 L760,329 L750,319 L535,319 A0,0 0 0 0 535,319 " fill="#FBFB77" filter="url(#f6piz0n2a4ev2)" style="stroke:#A80036;stroke-width:1.0;"/><path d="M750,319 L750,329 L760,329 L750,319 " fill="#FBFB77" style="stroke:#A80036;stroke-width:1.0;"/><text fill="#000000" font-family="sans-serif" font-size="13" font-weight="bold" lengthAdjust="spacing" textLength="140" x="541" y="337.4951">Message Refactorings:</text><text fill="#000000" font-family="sans-serif" font-size="13" lengthAdjust="spacing" textLength="5" x="545" y="353.8467">*</text><text fill="#000000" font-family="sans-serif" font-size="13" font-style="italic" lengthAdjust="spacing" textLength="179" x="554" y="353.8467">Introduce Data Transfer Object</text><text fill="#000000" font-family="sans-serif" font-size="13" lengthAdjust="spacing" textLength="0" x="737" y="353.8467"/><text fill="#000000" font-family="sans-serif" font-size="13" lengthAdjust="spacing" textLength="5" x="545" y="370.1982">*</text><text fill="#000000" font-family="sans-serif" font-size="13" font-style="italic" lengthAdjust="spacing" textLength="152" x="554" y="370.1982">Extract Information Holder</text><text fill="#000000" font-family="sans-serif" font-size="13" lengthAdjust="spacing" textLength="0" x="710" y="370.1982"/><text fill="#000000" font-family="sans-serif" font-size="13" lengthAdjust="spacing" textLength="5" x="545" y="386.5498">*</text><text fill="#000000" font-family="sans-serif" font-size="13" font-style="italic" lengthAdjust="spacing" textLength="141" x="554" y="386.5498">Inline Information Holder</text><text fill="#000000" font-family="sans-serif" font-size="13" lengthAdjust="spacing" textLength="0" x="699" y="386.5498"/><text fill="#000000" font-family="sans-serif" font-size="13" lengthAdjust="spacing" textLength="5" x="545" y="402.9014">*</text><text fill="#000000" font-family="sans-serif" font-size="13" font-style="italic" lengthAdjust="spacing" textLength="119" x="554" y="402.9014">Introduce Pagination</text><text fill="#000000" font-family="sans-serif" font-size="13" lengthAdjust="spacing" textLength="0" x="677" y="402.9014"/><text fill="#000000" font-family="sans-serif" font-size="13" lengthAdjust="spacing" textLength="5" x="545" y="419.2529">*</text><text fill="#000000" font-family="sans-serif" font-size="13" font-style="italic" lengthAdjust="spacing" textLength="191" x="554" y="419.2529">Rename Representation Element</text><!--MD5=[2266c51e2e890c8bcebcea740afba0fd]
class RequestMessagePayload--><rect codeLine="25" fill="#FEFECE" filter="url(#f6piz0n2a4ev2)" height="83.8594" id="RequestMessagePayload" style="stroke:#A80036;stroke-width:1.5;" width="219" x="7" y="331"/><ellipse cx="42.7" cy="351.0938" fill="#57D4FF" rx="11" ry="11" style="stroke:#A80036;stroke-width:1.0;"/><path d="M45.4656,346.9688 Q45.6219,346.75 45.8094,346.6406 Q45.9969,346.5313 46.2156,346.5313 Q46.5906,346.5313 46.825,346.7969 Q47.0594,347.0469 47.0594,347.6563 L47.0594,349.1094 Q47.0594,349.7188 46.825,349.9844 Q46.5906,350.25 46.2156,350.25 Q45.8719,350.25 45.6688,350.0469 Q45.4656,349.8594 45.3563,349.3438 Q45.3094,348.9844 45.1219,348.7969 Q44.7938,348.4219 44.1844,348.2031 Q43.575,347.9844 42.95,347.9844 Q42.1844,347.9844 41.5438,348.3125 Q40.9188,348.6406 40.4188,349.3906 Q39.9344,350.1406 39.9344,351.1719 L39.9344,352.2656 Q39.9344,353.5 40.825,354.3281 Q41.7156,355.1406 43.3094,355.1406 Q44.2469,355.1406 44.9031,354.8906 Q45.2938,354.7344 45.7156,354.2969 Q45.9813,354.0313 46.1219,353.9531 Q46.2781,353.875 46.4813,353.875 Q46.8094,353.875 47.0594,354.1406 Q47.325,354.3906 47.325,354.7344 Q47.325,355.0781 46.9813,355.4844 Q46.4813,356.0625 45.6844,356.3906 Q44.6063,356.8438 43.3094,356.8438 Q41.7938,356.8438 40.5906,356.2188 Q39.6063,355.7188 38.9188,354.6563 Q38.2313,353.5781 38.2313,352.2969 L38.2313,351.1406 Q38.2313,349.8125 38.8406,348.6719 Q39.4656,347.5156 40.5594,346.9063 Q41.6531,346.2813 42.8875,346.2813 Q43.6219,346.2813 44.2625,346.4531 Q44.9188,346.6094 45.4656,346.9688 Z " fill="#000000"/><text fill="#000000" font-family="sans-serif" font-size="12" font-style="italic" lengthAdjust="spacing" textLength="89" x="87.3" y="348.457">«basicConcept»</text><text fill="#000000" font-family="sans-serif" font-size="12" lengthAdjust="spacing" textLength="141" x="61.3" y="363.5508">RequestMessagePayload</text><line style="stroke:#A80036;stroke-width:1.5;" x1="8" x2="225" y1="371.1875" y2="371.1875"/><text fill="#000000" font-family="sans-serif" font-size="11" lengthAdjust="spacing" textLength="155" x="13" y="386.6064">KeyValuePairs protocolHeaders</text><text fill="#000000" font-family="sans-serif" font-size="11" lengthAdjust="spacing" textLength="207" x="13" y="400.4424">RepresentationElements responsePayload</text><line style="stroke:#A80036;stroke-width:1.5;" x1="8" x2="225" y1="406.8594" y2="406.8594"/><path d="M261,319 L261,369 L226.07,373 L261,377 L261,427.1094 A0,0 0 0 0 261,427.1094 L500,427.1094 A0,0 0 0 0 500,427.1094 L500,329 L490,319 L261,319 A0,0 0 0 0 261,319 " fill="#FBFB77" filter="url(#f6piz0n2a4ev2)" style="stroke:#A80036;stroke-width:1.0;"/><path d="M490,319 L490,329 L500,329 L490,319 " fill="#FBFB77" style="stroke:#A80036;stroke-width:1.0;"/><text fill="#000000" font-family="sans-serif" font-size="13" font-weight="bold" lengthAdjust="spacing" textLength="140" x="267" y="337.4951">Message Refactorings:</text><text fill="#000000" font-family="sans-serif" font-size="13" lengthAdjust="spacing" textLength="5" x="271" y="353.8467">*</text><text fill="#000000" font-family="sans-serif" font-size="13" font-style="italic" lengthAdjust="spacing" textLength="81" x="280" y="353.8467">Add Wish List</text><text fill="#000000" font-family="sans-serif" font-size="13" lengthAdjust="spacing" textLength="0" x="365" y="353.8467"/><text fill="#000000" font-family="sans-serif" font-size="13" lengthAdjust="spacing" textLength="5" x="271" y="370.1982">*</text><text fill="#000000" font-family="sans-serif" font-size="13" font-style="italic" lengthAdjust="spacing" textLength="88" x="280" y="370.1982">Add Wish Template</text><text fill="#000000" font-family="sans-serif" font-size="13" lengthAdjust="spacing" textLength="0" x="372" y="370.1982"/><text fill="#000000" font-family="sans-serif" font-size="13" lengthAdjust="spacing" textLength="5" x="271" y="386.5498">*</text><text fill="#000000" font-family="sans-serif" font-size="13" font-style="italic" lengthAdjust="spacing" textLength="99" x="280" y="386.5498">Bundle Requests</text><text fill="#000000" font-family="sans-serif" font-size="13" lengthAdjust="spacing" textLength="0" x="383" y="386.5498"/><text fill="#000000" font-family="sans-serif" font-size="13" lengthAdjust="spacing" textLength="5" x="271" y="402.9014">*</text><text fill="#000000" font-family="sans-serif" font-size="13" font-style="italic" lengthAdjust="spacing" textLength="152" x="280" y="402.9014">Make Request Conditional</text><text fill="#000000" font-family="sans-serif" font-size="13" lengthAdjust="spacing" textLength="0" x="436" y="402.9014"/><text fill="#000000" font-family="sans-serif" font-size="13" lengthAdjust="spacing" textLength="5" x="271" y="419.2529">*</text><text fill="#000000" font-family="sans-serif" font-size="13" font-style="italic" lengthAdjust="spacing" textLength="205" x="280" y="419.2529">Externalize Context Representation</text><!--MD5=[7c1f5f2c5b0ca57c698485f77a5e1a53]
link Endpoint to Operation--><path codeLine="31" d="M510.5,103.27 C510.5,103.27 510.5,135.11 510.5,149.8 " fill="none" id="Endpoint-Operation" style="stroke:#A80036;stroke-width:1.0;"/><polygon fill="#A80036" points="510.5,162.88,514.5,153.88,510.5,157.88,506.5,153.88,510.5,162.88" style="stroke:#A80036;stroke-width:1.0;"/><line style="stroke:#A80036;stroke-width:1.0;" x1="510.5" x2="510.5" y1="157.88" y2="149.88"/><polygon fill="#A80036" points="510.5,91.27,506.5,97.27,510.5,103.27,514.5,97.27,510.5,91.27" style="stroke:#A80036;stroke-width:1.0;"/><!--MD5=[10534098f25f5494bff09396759b179f]
link Operation to RequestMessagePayload--><path codeLine="32" d="M431.7736,252.628 C431.7736,252.628 422.57,257.15 418.5,259 C343.64,293.01 320.37,289.82 243.5,319 C237.6,321.24 231.56,323.58 225.48,325.98 " fill="none" id="Operation-RequestMessagePayload" style="stroke:#A80036;stroke-width:1.0;"/><polygon fill="#A80036" points="212.97,330.97,222.8115,331.3514,217.6143,329.1178,219.8479,323.9206,212.97,330.97" style="stroke:#A80036;stroke-width:1.0;"/><line style="stroke:#A80036;stroke-width:1.0;" x1="217.6143" x2="225.045" y1="329.1178" y2="326.155"/><polygon fill="#A80036" points="442.44,247.13,435.2741,246.3235,431.7736,252.628,438.9395,253.4345,442.44,247.13" style="stroke:#A80036;stroke-width:1.0;"/><!--MD5=[f58b5333d27ae3717f5c8afccd67aeff]
link Operation to ResponseMessagePayload--><path codeLine="33" d="M590.0252,252.5613 C590.0252,252.5613 599.4,257.14 603.5,259 C678.02,292.73 701.05,289.9 777.5,319 C783.4,321.25 789.43,323.59 795.51,326 " fill="none" id="Operation-ResponseMessagePayload" style="stroke:#A80036;stroke-width:1.0;"/><polygon fill="#A80036" points="808.02,330.99,801.1464,323.9364,803.3769,329.1349,798.1783,331.3654,808.02,330.99" style="stroke:#A80036;stroke-width:1.0;"/><line style="stroke:#A80036;stroke-width:1.0;" x1="803.3769" x2="795.95" y1="329.1349" y2="326.17"/><polygon fill="#A80036" points="579.34,247.1,582.8622,253.3924,590.0252,252.5613,586.5031,246.2689,579.34,247.1" style="stroke:#A80036;stroke-width:1.0;"/><!--MD5=[be8c0380f19ae729801d2b0430d5127d]
@startuml

class Endpoint <<(C,#57d4ff)basicConcept>> {
 Address location
 MAPDecorator role
}
note left: <b>Endpoint Refactorings:</b>\n * <i>Rename Endpoint</i> \n * <i>Merge Endpoints</i> \n * <i>Segregate Commands from Queries </i>

note right of Endpoint: <b>Evolution Refactorings:</b>\n * <i>Strengthen Evolution Strategy</i> \n * <i>Relax Evolution Strategy</i>


class Operation <<(C,#57d4ff)basicConcept>> {
 String name
 MAPDecorator responsibility
}
note left: <b>Operation Refactorings:</b>\n * <i>Extract Endpoint</i> \n * <i>Move Operation</i> \n * <i>Rename Operation</i> \n * <i>Split Operation</i> \n * <i>Merge Operations</i> 

note right of Operation: <b>Evolution Refactorings:</b>\n * <i>Introduce Version Identifier</i>\n * <i>Introduce Version Mediator</i> 

class ResponseMessagePayload <<(C,#57d4ff)basicConcept>> {
  KeyValuePairs protocolHeaders
  RepresentationElements responsePayload
}
note left: <b>Message Refactorings:</b>\n * <i>Introduce Data Transfer Object</i> \n * <i>Extract Information Holder</i> \n * <i>Inline Information Holder</i> \n * <i>Introduce Pagination</i> \n * <i>Rename Representation Element</i>

class RequestMessagePayload <<(C,#57d4ff)basicConcept>> {
  KeyValuePairs protocolHeaders
  RepresentationElements responsePayload
}
note right: <b>Message Refactorings:</b>\n * <i>Add Wish List</i> \n * <i>Add Wish Template</i> \n * <i>Bundle Requests</i> \n * <i>Make Request Conditional</i> \n * <i>Externalize Context Representation</i>

Endpoint *- -> Operation 
Operation *- -> RequestMessagePayload 
Operation *- -> ResponseMessagePayload
' RequestMessage *- - InParameters
' ResponseMessage*- - OutParameters


@enduml

@startuml

class Endpoint <<(C,#57d4ff)basicConcept>> {
 Address location
 MAPDecorator role
}
note left: <b>Endpoint Refactorings:</b>\n * <i>Rename Endpoint</i> \n * <i>Merge Endpoints</i> \n * <i>Segregate Commands from Queries </i>

note right of Endpoint: <b>Evolution Refactorings:</b>\n * <i>Strengthen Evolution Strategy</i> \n * <i>Relax Evolution Strategy</i>


class Operation <<(C,#57d4ff)basicConcept>> {
 String name
 MAPDecorator responsibility
}
note left: <b>Operation Refactorings:</b>\n * <i>Extract Endpoint</i> \n * <i>Move Operation</i> \n * <i>Rename Operation</i> \n * <i>Split Operation</i> \n * <i>Merge Operations</i> 

note right of Operation: <b>Evolution Refactorings:</b>\n * <i>Introduce Version Identifier</i>\n * <i>Introduce Version Mediator</i> 

class ResponseMessagePayload <<(C,#57d4ff)basicConcept>> {
  KeyValuePairs protocolHeaders
  RepresentationElements responsePayload
}
note left: <b>Message Refactorings:</b>\n * <i>Introduce Data Transfer Object</i> \n * <i>Extract Information Holder</i> \n * <i>Inline Information Holder</i> \n * <i>Introduce Pagination</i> \n * <i>Rename Representation Element</i>

class RequestMessagePayload <<(C,#57d4ff)basicConcept>> {
  KeyValuePairs protocolHeaders
  RepresentationElements responsePayload
}
note right: <b>Message Refactorings:</b>\n * <i>Add Wish List</i> \n * <i>Add Wish Template</i> \n * <i>Bundle Requests</i> \n * <i>Make Request Conditional</i> \n * <i>Externalize Context Representation</i>

Endpoint *- -> Operation 
Operation *- -> RequestMessagePayload 
Operation *- -> ResponseMessagePayload


@enduml

PlantUML version 1.2021.7(Sun May 23 14:40:07 CEST 2021)
(GPL source distribution)
Java Runtime: OpenJDK Runtime Environment
JVM: OpenJDK 64-Bit Server VM
Default Encoding: Cp1252
Language: en
Country: US
--></g></svg>