<?xml version="1.0" encoding="UTF-8" standalone="no"?><svg xmlns="http://www.w3.org/2000/svg" xmlns:xlink="http://www.w3.org/1999/xlink" contentScriptType="application/ecmascript" contentStyleType="text/css" height="396px" preserveAspectRatio="none" style="width:1011px;height:396px;" version="1.1" viewBox="0 0 1011 396" width="1011px" zoomAndPan="magnify"><defs><filter height="300%" id="fwf81k0lv9s2e" width="300%" x="-1" y="-1"><feGaussianBlur result="blurOut" stdDeviation="2.0"/><feColorMatrix in="blurOut" result="blurOut2" type="matrix" values="0 0 0 0 0 0 0 0 0 0 0 0 0 0 0 0 0 0 .4 0"/><feOffset dx="4.0" dy="4.0" in="blurOut2" result="blurOut3"/><feBlend in="SourceGraphic" in2="blurOut3" mode="normal"/></filter></defs><g><!--MD5=[4fd3bb6c1d79f4919f90c95b62a35422]
class Endpoint--><rect codeLine="2" fill="#FEFECE" filter="url(#fwf81k0lv9s2e)" height="83.8594" id="Endpoint" style="stroke:#A80036;stroke-width:1.5;" width="117" x="446" y="7"/><ellipse cx="461" cy="27.0938" fill="#57D4FF" rx="11" ry="11" style="stroke:#A80036;stroke-width:1.0;"/><path d="M463.7656,22.9688 Q463.9219,22.75 464.1094,22.6406 Q464.2969,22.5313 464.5156,22.5313 Q464.8906,22.5313 465.125,22.7969 Q465.3594,23.0469 465.3594,23.6563 L465.3594,25.1094 Q465.3594,25.7188 465.125,25.9844 Q464.8906,26.25 464.5156,26.25 Q464.1719,26.25 463.9688,26.0469 Q463.7656,25.8594 463.6563,25.3438 Q463.6094,24.9844 463.4219,24.7969 Q463.0938,24.4219 462.4844,24.2031 Q461.875,23.9844 461.25,23.9844 Q460.4844,23.9844 459.8438,24.3125 Q459.2188,24.6406 458.7188,25.3906 Q458.2344,26.1406 458.2344,27.1719 L458.2344,28.2656 Q458.2344,29.5 459.125,30.3281 Q460.0156,31.1406 461.6094,31.1406 Q462.5469,31.1406 463.2031,30.8906 Q463.5938,30.7344 464.0156,30.2969 Q464.2813,30.0313 464.4219,29.9531 Q464.5781,29.875 464.7813,29.875 Q465.1094,29.875 465.3594,30.1406 Q465.625,30.3906 465.625,30.7344 Q465.625,31.0781 465.2813,31.4844 Q464.7813,32.0625 463.9844,32.3906 Q462.9063,32.8438 461.6094,32.8438 Q460.0938,32.8438 458.8906,32.2188 Q457.9063,31.7188 457.2188,30.6563 Q456.5313,29.5781 456.5313,28.2969 L456.5313,27.1406 Q456.5313,25.8125 457.1406,24.6719 Q457.7656,23.5156 458.8594,22.9063 Q459.9531,22.2813 461.1875,22.2813 Q461.9219,22.2813 462.5625,22.4531 Q463.2188,22.6094 463.7656,22.9688 Z " fill="#000000"/><text fill="#000000" font-family="sans-serif" font-size="12" font-style="italic" lengthAdjust="spacing" textLength="89" x="473" y="24.457">«basicConcept»</text><text fill="#000000" font-family="sans-serif" font-size="12" lengthAdjust="spacing" textLength="49" x="493" y="39.5508">Endpoint</text><line style="stroke:#A80036;stroke-width:1.5;" x1="447" x2="562" y1="47.1875" y2="47.1875"/><text fill="#000000" font-family="sans-serif" font-size="11" lengthAdjust="spacing" textLength="81" x="452" y="62.6064">Address location</text><text fill="#000000" font-family="sans-serif" font-size="11" lengthAdjust="spacing" textLength="93" x="452" y="76.4424">MAPDecorator role</text><line style="stroke:#A80036;stroke-width:1.5;" x1="447" x2="562" y1="82.8594" y2="82.8594"/><path d="M164.5,19.5 L164.5,78.5547 A0,0 0 0 0 164.5,78.5547 L410.5,78.5547 A0,0 0 0 0 410.5,78.5547 L410.5,53 L445.96,49 L410.5,45 L410.5,29.5 L400.5,19.5 L164.5,19.5 A0,0 0 0 0 164.5,19.5 " fill="#FBFB77" filter="url(#fwf81k0lv9s2e)" style="stroke:#A80036;stroke-width:1.0;"/><path d="M400.5,19.5 L400.5,29.5 L410.5,29.5 L400.5,19.5 " fill="#FBFB77" style="stroke:#A80036;stroke-width:1.0;"/><text fill="#000000" font-family="sans-serif" font-size="13" font-weight="bold" lengthAdjust="spacing" textLength="143" x="170.5" y="37.9951">Endpoint Refactorings:</text><text fill="#000000" font-family="sans-serif" font-size="13" lengthAdjust="spacing" textLength="5" x="174.5" y="54.3467">*</text><text fill="#000000" font-family="sans-serif" font-size="13" font-style="italic" lengthAdjust="spacing" textLength="98" x="183.5" y="54.3467">Merge Endpoints</text><text fill="#000000" font-family="sans-serif" font-size="13" lengthAdjust="spacing" textLength="0" x="285.5" y="54.3467"/><text fill="#000000" font-family="sans-serif" font-size="13" lengthAdjust="spacing" textLength="5" x="174.5" y="70.6982">*</text><text fill="#000000" font-family="sans-serif" font-size="13" font-style="italic" lengthAdjust="spacing" textLength="208" x="183.5" y="70.6982">Segregate Commands from Queries</text><!--MD5=[cca5d97aaf46870920fae66c9bd85cdd]
class Operation--><rect codeLine="11" fill="#FEFECE" filter="url(#fwf81k0lv9s2e)" height="83.8594" id="Operation" style="stroke:#A80036;stroke-width:1.5;" width="150" x="429.5" y="151"/><ellipse cx="459.35" cy="171.0938" fill="#57D4FF" rx="11" ry="11" style="stroke:#A80036;stroke-width:1.0;"/><path d="M462.1156,166.9688 Q462.2719,166.75 462.4594,166.6406 Q462.6469,166.5313 462.8656,166.5313 Q463.2406,166.5313 463.475,166.7969 Q463.7094,167.0469 463.7094,167.6563 L463.7094,169.1094 Q463.7094,169.7188 463.475,169.9844 Q463.2406,170.25 462.8656,170.25 Q462.5219,170.25 462.3188,170.0469 Q462.1156,169.8594 462.0063,169.3438 Q461.9594,168.9844 461.7719,168.7969 Q461.4438,168.4219 460.8344,168.2031 Q460.225,167.9844 459.6,167.9844 Q458.8344,167.9844 458.1938,168.3125 Q457.5688,168.6406 457.0688,169.3906 Q456.5844,170.1406 456.5844,171.1719 L456.5844,172.2656 Q456.5844,173.5 457.475,174.3281 Q458.3656,175.1406 459.9594,175.1406 Q460.8969,175.1406 461.5531,174.8906 Q461.9438,174.7344 462.3656,174.2969 Q462.6313,174.0313 462.7719,173.9531 Q462.9281,173.875 463.1313,173.875 Q463.4594,173.875 463.7094,174.1406 Q463.975,174.3906 463.975,174.7344 Q463.975,175.0781 463.6313,175.4844 Q463.1313,176.0625 462.3344,176.3906 Q461.2563,176.8438 459.9594,176.8438 Q458.4438,176.8438 457.2406,176.2188 Q456.2563,175.7188 455.5688,174.6563 Q454.8813,173.5781 454.8813,172.2969 L454.8813,171.1406 Q454.8813,169.8125 455.4906,168.6719 Q456.1156,167.5156 457.2094,166.9063 Q458.3031,166.2813 459.5375,166.2813 Q460.2719,166.2813 460.9125,166.4531 Q461.5688,166.6094 462.1156,166.9688 Z " fill="#000000"/><text fill="#000000" font-family="sans-serif" font-size="12" font-style="italic" lengthAdjust="spacing" textLength="89" x="474.65" y="168.457">«basicConcept»</text><text fill="#000000" font-family="sans-serif" font-size="12" lengthAdjust="spacing" textLength="54" x="492.15" y="183.5508">Operation</text><line style="stroke:#A80036;stroke-width:1.5;" x1="430.5" x2="578.5" y1="191.1875" y2="191.1875"/><text fill="#000000" font-family="sans-serif" font-size="11" lengthAdjust="spacing" textLength="58" x="435.5" y="206.6064">String name</text><text fill="#000000" font-family="sans-serif" font-size="11" lengthAdjust="spacing" textLength="138" x="435.5" y="220.4424">MAPDecorator responsibility</text><line style="stroke:#A80036;stroke-width:1.5;" x1="430.5" x2="578.5" y1="226.8594" y2="226.8594"/><path d="M226.5,155.5 L226.5,230.9063 A0,0 0 0 0 226.5,230.9063 L394.5,230.9063 A0,0 0 0 0 394.5,230.9063 L394.5,197 L429.38,193 L394.5,189 L394.5,165.5 L384.5,155.5 L226.5,155.5 A0,0 0 0 0 226.5,155.5 " fill="#FBFB77" filter="url(#fwf81k0lv9s2e)" style="stroke:#A80036;stroke-width:1.0;"/><path d="M384.5,155.5 L384.5,165.5 L394.5,165.5 L384.5,155.5 " fill="#FBFB77" style="stroke:#A80036;stroke-width:1.0;"/><text fill="#000000" font-family="sans-serif" font-size="13" font-weight="bold" lengthAdjust="spacing" textLength="147" x="232.5" y="173.9951">Operation Refactorings:</text><text fill="#000000" font-family="sans-serif" font-size="13" lengthAdjust="spacing" textLength="5" x="236.5" y="190.3467">*</text><text fill="#000000" font-family="sans-serif" font-size="13" font-style="italic" lengthAdjust="spacing" textLength="97" x="245.5" y="190.3467">Extract Endpoint</text><text fill="#000000" font-family="sans-serif" font-size="13" lengthAdjust="spacing" textLength="0" x="346.5" y="190.3467"/><text fill="#000000" font-family="sans-serif" font-size="13" lengthAdjust="spacing" textLength="5" x="236.5" y="206.6982">*</text><text fill="#000000" font-family="sans-serif" font-size="13" font-style="italic" lengthAdjust="spacing" textLength="92" x="245.5" y="206.6982">Move Operation</text><text fill="#000000" font-family="sans-serif" font-size="13" lengthAdjust="spacing" textLength="0" x="341.5" y="206.6982"/><text fill="#000000" font-family="sans-serif" font-size="13" lengthAdjust="spacing" textLength="5" x="236.5" y="223.0498">*</text><text fill="#000000" font-family="sans-serif" font-size="13" font-style="italic" lengthAdjust="spacing" textLength="108" x="245.5" y="223.0498">Rename Operation</text><!--MD5=[e93d480bc88e1c582484fbb697036f76]
class ResponseMessagePayload--><rect codeLine="19" fill="#FEFECE" filter="url(#fwf81k0lv9s2e)" height="83.8594" id="ResponseMessagePayload" style="stroke:#A80036;stroke-width:1.5;" width="210" x="787.5" y="299"/><ellipse cx="814.65" cy="319.0938" fill="#57D4FF" rx="11" ry="11" style="stroke:#A80036;stroke-width:1.0;"/><path d="M817.4156,314.9688 Q817.5719,314.75 817.7594,314.6406 Q817.9469,314.5313 818.1656,314.5313 Q818.5406,314.5313 818.775,314.7969 Q819.0094,315.0469 819.0094,315.6563 L819.0094,317.1094 Q819.0094,317.7188 818.775,317.9844 Q818.5406,318.25 818.1656,318.25 Q817.8219,318.25 817.6188,318.0469 Q817.4156,317.8594 817.3063,317.3438 Q817.2594,316.9844 817.0719,316.7969 Q816.7438,316.4219 816.1344,316.2031 Q815.525,315.9844 814.9,315.9844 Q814.1344,315.9844 813.4938,316.3125 Q812.8688,316.6406 812.3688,317.3906 Q811.8844,318.1406 811.8844,319.1719 L811.8844,320.2656 Q811.8844,321.5 812.775,322.3281 Q813.6656,323.1406 815.2594,323.1406 Q816.1969,323.1406 816.8531,322.8906 Q817.2438,322.7344 817.6656,322.2969 Q817.9313,322.0313 818.0719,321.9531 Q818.2281,321.875 818.4313,321.875 Q818.7594,321.875 819.0094,322.1406 Q819.275,322.3906 819.275,322.7344 Q819.275,323.0781 818.9313,323.4844 Q818.4313,324.0625 817.6344,324.3906 Q816.5563,324.8438 815.2594,324.8438 Q813.7438,324.8438 812.5406,324.2188 Q811.5563,323.7188 810.8688,322.6563 Q810.1813,321.5781 810.1813,320.2969 L810.1813,319.1406 Q810.1813,317.8125 810.7906,316.6719 Q811.4156,315.5156 812.5094,314.9063 Q813.6031,314.2813 814.8375,314.2813 Q815.5719,314.2813 816.2125,314.4531 Q816.8688,314.6094 817.4156,314.9688 Z " fill="#000000"/><text fill="#000000" font-family="sans-serif" font-size="12" font-style="italic" lengthAdjust="spacing" textLength="89" x="862.35" y="316.457">«basicConcept»</text><text fill="#000000" font-family="sans-serif" font-size="12" lengthAdjust="spacing" textLength="151" x="831.35" y="331.5508">ResponseMessagePayload</text><line style="stroke:#A80036;stroke-width:1.5;" x1="788.5" x2="996.5" y1="339.1875" y2="339.1875"/><text fill="#000000" font-family="sans-serif" font-size="11" lengthAdjust="spacing" textLength="155" x="793.5" y="354.6064">KeyValuePairs protocolHeaders</text><text fill="#000000" font-family="sans-serif" font-size="11" lengthAdjust="spacing" textLength="198" x="793.5" y="368.4424">RepresentationElements requestPayload</text><line style="stroke:#A80036;stroke-width:1.5;" x1="788.5" x2="996.5" y1="374.8594" y2="374.8594"/><path d="M535,295 L535,386.7578 A0,0 0 0 0 535,386.7578 L752,386.7578 A0,0 0 0 0 752,386.7578 L752,345 L787.45,341 L752,337 L752,305 L742,295 L535,295 A0,0 0 0 0 535,295 " fill="#FBFB77" filter="url(#fwf81k0lv9s2e)" style="stroke:#A80036;stroke-width:1.0;"/><path d="M742,295 L742,305 L752,305 L742,295 " fill="#FBFB77" style="stroke:#A80036;stroke-width:1.0;"/><text fill="#000000" font-family="sans-serif" font-size="13" font-weight="bold" lengthAdjust="spacing" textLength="140" x="541" y="313.4951">Message Refactorings:</text><text fill="#000000" font-family="sans-serif" font-size="13" lengthAdjust="spacing" textLength="5" x="545" y="329.8467">*</text><text fill="#000000" font-family="sans-serif" font-size="13" font-style="italic" lengthAdjust="spacing" textLength="179" x="554" y="329.8467">Introduce Data Transfer Object</text><text fill="#000000" font-family="sans-serif" font-size="13" lengthAdjust="spacing" textLength="0" x="737" y="329.8467"/><text fill="#000000" font-family="sans-serif" font-size="13" lengthAdjust="spacing" textLength="5" x="545" y="346.1982">*</text><text fill="#000000" font-family="sans-serif" font-size="13" font-style="italic" lengthAdjust="spacing" textLength="152" x="554" y="346.1982">Extract Information Holder</text><text fill="#000000" font-family="sans-serif" font-size="13" lengthAdjust="spacing" textLength="0" x="710" y="346.1982"/><text fill="#000000" font-family="sans-serif" font-size="13" lengthAdjust="spacing" textLength="5" x="545" y="362.5498">*</text><text fill="#000000" font-family="sans-serif" font-size="13" font-style="italic" lengthAdjust="spacing" textLength="141" x="554" y="362.5498">Inline Information Holder</text><text fill="#000000" font-family="sans-serif" font-size="13" lengthAdjust="spacing" textLength="0" x="699" y="362.5498"/><text fill="#000000" font-family="sans-serif" font-size="13" lengthAdjust="spacing" textLength="5" x="545" y="378.9014">*</text><text fill="#000000" font-family="sans-serif" font-size="13" font-style="italic" lengthAdjust="spacing" textLength="119" x="554" y="378.9014">Introduce Pagination</text><!--MD5=[2266c51e2e890c8bcebcea740afba0fd]
class RequestMessagePayload--><rect codeLine="25" fill="#FEFECE" filter="url(#fwf81k0lv9s2e)" height="83.8594" id="RequestMessagePayload" style="stroke:#A80036;stroke-width:1.5;" width="219" x="7" y="299"/><ellipse cx="42.7" cy="319.0938" fill="#57D4FF" rx="11" ry="11" style="stroke:#A80036;stroke-width:1.0;"/><path d="M45.4656,314.9688 Q45.6219,314.75 45.8094,314.6406 Q45.9969,314.5313 46.2156,314.5313 Q46.5906,314.5313 46.825,314.7969 Q47.0594,315.0469 47.0594,315.6563 L47.0594,317.1094 Q47.0594,317.7188 46.825,317.9844 Q46.5906,318.25 46.2156,318.25 Q45.8719,318.25 45.6688,318.0469 Q45.4656,317.8594 45.3563,317.3438 Q45.3094,316.9844 45.1219,316.7969 Q44.7938,316.4219 44.1844,316.2031 Q43.575,315.9844 42.95,315.9844 Q42.1844,315.9844 41.5438,316.3125 Q40.9188,316.6406 40.4188,317.3906 Q39.9344,318.1406 39.9344,319.1719 L39.9344,320.2656 Q39.9344,321.5 40.825,322.3281 Q41.7156,323.1406 43.3094,323.1406 Q44.2469,323.1406 44.9031,322.8906 Q45.2938,322.7344 45.7156,322.2969 Q45.9813,322.0313 46.1219,321.9531 Q46.2781,321.875 46.4813,321.875 Q46.8094,321.875 47.0594,322.1406 Q47.325,322.3906 47.325,322.7344 Q47.325,323.0781 46.9813,323.4844 Q46.4813,324.0625 45.6844,324.3906 Q44.6063,324.8438 43.3094,324.8438 Q41.7938,324.8438 40.5906,324.2188 Q39.6063,323.7188 38.9188,322.6563 Q38.2313,321.5781 38.2313,320.2969 L38.2313,319.1406 Q38.2313,317.8125 38.8406,316.6719 Q39.4656,315.5156 40.5594,314.9063 Q41.6531,314.2813 42.8875,314.2813 Q43.6219,314.2813 44.2625,314.4531 Q44.9188,314.6094 45.4656,314.9688 Z " fill="#000000"/><text fill="#000000" font-family="sans-serif" font-size="12" font-style="italic" lengthAdjust="spacing" textLength="89" x="87.3" y="316.457">«basicConcept»</text><text fill="#000000" font-family="sans-serif" font-size="12" lengthAdjust="spacing" textLength="141" x="61.3" y="331.5508">RequestMessagePayload</text><line style="stroke:#A80036;stroke-width:1.5;" x1="8" x2="225" y1="339.1875" y2="339.1875"/><text fill="#000000" font-family="sans-serif" font-size="11" lengthAdjust="spacing" textLength="155" x="13" y="354.6064">KeyValuePairs protocolHeaders</text><text fill="#000000" font-family="sans-serif" font-size="11" lengthAdjust="spacing" textLength="207" x="13" y="368.4424">RepresentationElements responsePayload</text><line style="stroke:#A80036;stroke-width:1.5;" x1="8" x2="225" y1="374.8594" y2="374.8594"/><path d="M261,303.5 L261,337 L226.07,341 L261,345 L261,378.9063 A0,0 0 0 0 261,378.9063 L500,378.9063 A0,0 0 0 0 500,378.9063 L500,313.5 L490,303.5 L261,303.5 A0,0 0 0 0 261,303.5 " fill="#FBFB77" filter="url(#fwf81k0lv9s2e)" style="stroke:#A80036;stroke-width:1.0;"/><path d="M490,303.5 L490,313.5 L500,313.5 L490,303.5 " fill="#FBFB77" style="stroke:#A80036;stroke-width:1.0;"/><text fill="#000000" font-family="sans-serif" font-size="13" font-weight="bold" lengthAdjust="spacing" textLength="140" x="267" y="321.9951">Message Refactorings:</text><text fill="#000000" font-family="sans-serif" font-size="13" lengthAdjust="spacing" textLength="5" x="271" y="338.3467">*</text><text fill="#000000" font-family="sans-serif" font-size="13" font-style="italic" lengthAdjust="spacing" textLength="81" x="280" y="338.3467">Add Wish List</text><text fill="#000000" font-family="sans-serif" font-size="13" lengthAdjust="spacing" textLength="0" x="365" y="338.3467"/><text fill="#000000" font-family="sans-serif" font-size="13" lengthAdjust="spacing" textLength="5" x="271" y="354.6982">*</text><text fill="#000000" font-family="sans-serif" font-size="13" font-style="italic" lengthAdjust="spacing" textLength="99" x="280" y="354.6982">Bundle Requests</text><text fill="#000000" font-family="sans-serif" font-size="13" lengthAdjust="spacing" textLength="0" x="383" y="354.6982"/><text fill="#000000" font-family="sans-serif" font-size="13" lengthAdjust="spacing" textLength="5" x="271" y="371.0498">*</text><text fill="#000000" font-family="sans-serif" font-size="13" font-style="italic" lengthAdjust="spacing" textLength="205" x="280" y="371.0498">Externalize Context Representation</text><!--MD5=[7c1f5f2c5b0ca57c698485f77a5e1a53]
link Endpoint to Operation--><path codeLine="31" d="M504.5,103.07 C504.5,103.07 504.5,126.36 504.5,137.18 " fill="none" id="Endpoint-Operation" style="stroke:#A80036;stroke-width:1.0;"/><polygon fill="#A80036" points="504.5,150.53,508.5,141.53,504.5,145.53,500.5,141.53,504.5,150.53" style="stroke:#A80036;stroke-width:1.0;"/><line style="stroke:#A80036;stroke-width:1.0;" x1="504.5" x2="504.5" y1="145.53" y2="137.53"/><polygon fill="#A80036" points="504.5,91.07,500.5,97.07,504.5,103.07,508.5,97.07,504.5,91.07" style="stroke:#A80036;stroke-width:1.0;"/><!--MD5=[10534098f25f5494bff09396759b179f]
link Operation to RequestMessagePayload--><path codeLine="32" d="M418.3084,232.6541 C418.3084,232.6541 414.05,234.38 412.5,235 C410.25,235.9 319.17,268.2 238.64,296.73 " fill="none" id="Operation-RequestMessagePayload" style="stroke:#A80036;stroke-width:1.0;"/><polygon fill="#A80036" points="226.33,301.09,236.1491,301.8546,231.0429,299.4202,233.4774,294.3139,226.33,301.09" style="stroke:#A80036;stroke-width:1.0;"/><line style="stroke:#A80036;stroke-width:1.0;" x1="231.0429" x2="238.59" y1="299.4202" y2="296.75"/><polygon fill="#A80036" points="429.39,228.05,422.3145,226.6582,418.3084,232.6541,425.3839,234.0459,429.39,228.05" style="stroke:#A80036;stroke-width:1.0;"/><!--MD5=[f58b5333d27ae3717f5c8afccd67aeff]
link Operation to ResponseMessagePayload--><path codeLine="33" d="M591.0038,226.5393 C591.0038,226.5393 716.2,273.66 774.99,295.78 " fill="none" id="Operation-ResponseMessagePayload" style="stroke:#A80036;stroke-width:1.0;"/><polygon fill="#A80036" points="787.36,300.44,780.3482,293.5237,782.6811,298.6772,777.5277,301.01,787.36,300.44" style="stroke:#A80036;stroke-width:1.0;"/><line style="stroke:#A80036;stroke-width:1.0;" x1="782.6811" x2="775.195" y1="298.6772" y2="295.86"/><polygon fill="#A80036" points="579.77,222.32,583.9805,228.1742,591.0038,226.5393,586.7933,220.685,579.77,222.32" style="stroke:#A80036;stroke-width:1.0;"/><!--MD5=[60606547a3fa3b493b24c047df353661]
@startuml

class Endpoint <<(C,#57d4ff)basicConcept>> {
 Address location
 MAPDecorator role
}
note left: <b>Endpoint Refactorings:</b>\n * <i>Merge Endpoints</i> \n * <i>Segregate Commands from Queries </i>

'note right of Endpoint: <b>Evolution Refactorings:</b>\n * <i>Strengthen Evolution Strategy</i> \n * <i>Relax Evolution Strategy</i>


class Operation <<(C,#57d4ff)basicConcept>> {
 String name
 MAPDecorator responsibility
}
note left: <b>Operation Refactorings:</b>\n * <i>Extract Endpoint</i> \n * <i>Move Operation</i> \n * <i>Rename Operation</i> 

'note right of Operation: <b>Evolution Refactorings:</b>\n * <i>Introduce Version Identifier</i>\n * <i>Introduce Version Mediator</i> 

class ResponseMessagePayload <<(C,#57d4ff)basicConcept>> {
  KeyValuePairs protocolHeaders
  RepresentationElements requestPayload
}
note left: <b>Message Refactorings:</b>\n * <i>Introduce Data Transfer Object</i> \n * <i>Extract Information Holder</i> \n * <i>Inline Information Holder</i> \n * <i>Introduce Pagination</i> 

class RequestMessagePayload <<(C,#57d4ff)basicConcept>> {
  KeyValuePairs protocolHeaders
  RepresentationElements responsePayload
}
note right: <b>Message Refactorings:</b>\n * <i>Add Wish List</i> \n * <i>Bundle Requests</i> \n * <i>Externalize Context Representation</i>

Endpoint *- -> Operation 
Operation *- -> RequestMessagePayload 
Operation *- -> ResponseMessagePayload
' RequestMessage *- - InParameters
' ResponseMessage*- - OutParameters


@enduml

@startuml

class Endpoint <<(C,#57d4ff)basicConcept>> {
 Address location
 MAPDecorator role
}
note left: <b>Endpoint Refactorings:</b>\n * <i>Merge Endpoints</i> \n * <i>Segregate Commands from Queries </i>



class Operation <<(C,#57d4ff)basicConcept>> {
 String name
 MAPDecorator responsibility
}
note left: <b>Operation Refactorings:</b>\n * <i>Extract Endpoint</i> \n * <i>Move Operation</i> \n * <i>Rename Operation</i> 


class ResponseMessagePayload <<(C,#57d4ff)basicConcept>> {
  KeyValuePairs protocolHeaders
  RepresentationElements requestPayload
}
note left: <b>Message Refactorings:</b>\n * <i>Introduce Data Transfer Object</i> \n * <i>Extract Information Holder</i> \n * <i>Inline Information Holder</i> \n * <i>Introduce Pagination</i> 

class RequestMessagePayload <<(C,#57d4ff)basicConcept>> {
  KeyValuePairs protocolHeaders
  RepresentationElements responsePayload
}
note right: <b>Message Refactorings:</b>\n * <i>Add Wish List</i> \n * <i>Bundle Requests</i> \n * <i>Externalize Context Representation</i>

Endpoint *- -> Operation 
Operation *- -> RequestMessagePayload 
Operation *- -> ResponseMessagePayload


@enduml

PlantUML version 1.2021.7(Sun May 23 14:40:07 CEST 2021)
(GPL source distribution)
Java Runtime: OpenJDK Runtime Environment
JVM: OpenJDK 64-Bit Server VM
Default Encoding: Cp1252
Language: en
Country: US
--></g></svg>