<?xml version="1.0" encoding="UTF-8" standalone="no"?><svg xmlns="http://www.w3.org/2000/svg" xmlns:xlink="http://www.w3.org/1999/xlink" contentScriptType="application/ecmascript" contentStyleType="text/css" height="391px" preserveAspectRatio="none" style="width:1077px;height:391px;" version="1.1" viewBox="0 0 1077 391" width="1077px" zoomAndPan="magnify"><defs><filter height="300%" id="f1cfad38k6zsq" width="300%" x="-1" y="-1"><feGaussianBlur result="blurOut" stdDeviation="2.0"/><feColorMatrix in="blurOut" result="blurOut2" type="matrix" values="0 0 0 0 0 0 0 0 0 0 0 0 0 0 0 0 0 0 .4 0"/><feOffset dx="4.0" dy="4.0" in="blurOut2" result="blurOut3"/><feBlend in="SourceGraphic" in2="blurOut3" mode="normal"/></filter></defs><g><!--MD5=[4fd3bb6c1d79f4919f90c95b62a35422]
class Endpoint--><rect codeLine="2" fill="#FEFECE" filter="url(#f1cfad38k6zsq)" height="80.1758" id="Endpoint" style="stroke:#A80036;stroke-width:1.5;" width="117" x="479" y="7"/><ellipse cx="494" cy="26.1328" fill="#57D4FF" rx="11" ry="11" style="stroke:#A80036;stroke-width:1.0;"/><path d="M496.4731,32.2759 Q495.8921,32.5747 495.2529,32.7241 Q494.6138,32.8735 493.9082,32.8735 Q491.4014,32.8735 490.0815,31.2217 Q488.7617,29.5698 488.7617,26.4487 Q488.7617,23.3193 490.0815,21.6675 Q491.4014,20.0156 493.9082,20.0156 Q494.6138,20.0156 495.2612,20.165 Q495.9087,20.3145 496.4731,20.6133 L496.4731,23.3359 Q495.8423,22.7549 495.2488,22.4851 Q494.6553,22.2153 494.0244,22.2153 Q492.6797,22.2153 491.9949,23.282 Q491.3101,24.3486 491.3101,26.4487 Q491.3101,28.5405 491.9949,29.6072 Q492.6797,30.6738 494.0244,30.6738 Q494.6553,30.6738 495.2488,30.4041 Q495.8423,30.1343 496.4731,29.5532 Z " fill="#000000"/><text fill="#000000" font-family="sans-serif" font-size="12" font-style="italic" lengthAdjust="spacing" textLength="89" x="506" y="23.6016">«basicConcept»</text><text fill="#000000" font-family="sans-serif" font-size="12" lengthAdjust="spacing" textLength="51" x="525" y="37.7344">Endpoint</text><line style="stroke:#A80036;stroke-width:1.5;" x1="480" x2="595" y1="45.2656" y2="45.2656"/><text fill="#000000" font-family="sans-serif" font-size="11" lengthAdjust="spacing" textLength="91" x="485" y="59.9004">Address location</text><text fill="#000000" font-family="sans-serif" font-size="11" lengthAdjust="spacing" textLength="101" x="485" y="72.8555">MAPDecorator role</text><line style="stroke:#A80036;stroke-width:1.5;" x1="480" x2="595" y1="79.1758" y2="79.1758"/><path d="M183,11.5 L183,82.7422 A0,0 0 0 0 183,82.7422 L444,82.7422 A0,0 0 0 0 444,82.7422 L444,51 L478.89,47 L444,43 L444,21.5 L434,11.5 L183,11.5 A0,0 0 0 0 183,11.5 " fill="#FBFB77" filter="url(#f1cfad38k6zsq)" style="stroke:#A80036;stroke-width:1.0;"/><path d="M434,11.5 L434,21.5 L444,21.5 L434,11.5 " fill="#FBFB77" style="stroke:#A80036;stroke-width:1.0;"/><text fill="#000000" font-family="sans-serif" font-size="13" font-weight="bold" lengthAdjust="spacing" textLength="153" x="189" y="29.0684">Endpoint Refactorings:</text><text fill="#000000" font-family="sans-serif" font-size="13" lengthAdjust="spacing" textLength="6" x="193" y="44.3789">*</text><text fill="#000000" font-family="sans-serif" font-size="13" font-style="italic" lengthAdjust="spacing" textLength="109" x="203" y="44.3789">Rename Endpoint</text><text fill="#000000" font-family="sans-serif" font-size="13" lengthAdjust="spacing" textLength="0" x="316" y="44.3789"/><text fill="#000000" font-family="sans-serif" font-size="13" lengthAdjust="spacing" textLength="6" x="193" y="59.6895">*</text><text fill="#000000" font-family="sans-serif" font-size="13" font-style="italic" lengthAdjust="spacing" textLength="105" x="203" y="59.6895">Merge Endpoints</text><text fill="#000000" font-family="sans-serif" font-size="13" lengthAdjust="spacing" textLength="0" x="312" y="59.6895"/><text fill="#000000" font-family="sans-serif" font-size="13" lengthAdjust="spacing" textLength="6" x="193" y="75">*</text><text fill="#000000" font-family="sans-serif" font-size="13" font-style="italic" lengthAdjust="spacing" textLength="222" x="203" y="75">Segregate Commands from Queries</text><!--MD5=[cca5d97aaf46870920fae66c9bd85cdd]
class Operation--><rect codeLine="11" fill="#FEFECE" filter="url(#f1cfad38k6zsq)" height="80.1758" id="Operation" style="stroke:#A80036;stroke-width:1.5;" width="165" x="455" y="150.5"/><ellipse cx="491.6" cy="169.6328" fill="#57D4FF" rx="11" ry="11" style="stroke:#A80036;stroke-width:1.0;"/><path d="M494.0731,175.7759 Q493.4921,176.0747 492.8529,176.2241 Q492.2138,176.3735 491.5082,176.3735 Q489.0014,176.3735 487.6815,174.7217 Q486.3617,173.0698 486.3617,169.9487 Q486.3617,166.8193 487.6815,165.1675 Q489.0014,163.5156 491.5082,163.5156 Q492.2138,163.5156 492.8612,163.665 Q493.5087,163.8145 494.0731,164.1133 L494.0731,166.8359 Q493.4423,166.2549 492.8488,165.9851 Q492.2553,165.7153 491.6244,165.7153 Q490.2797,165.7153 489.5949,166.782 Q488.9101,167.8486 488.9101,169.9487 Q488.9101,172.0405 489.5949,173.1072 Q490.2797,174.1738 491.6244,174.1738 Q492.2553,174.1738 492.8488,173.9041 Q493.4423,173.6343 494.0731,173.0532 Z " fill="#000000"/><text fill="#000000" font-family="sans-serif" font-size="12" font-style="italic" lengthAdjust="spacing" textLength="89" x="508.4" y="167.1016">«basicConcept»</text><text fill="#000000" font-family="sans-serif" font-size="12" lengthAdjust="spacing" textLength="57" x="524.4" y="181.2344">Operation</text><line style="stroke:#A80036;stroke-width:1.5;" x1="456" x2="619" y1="188.7656" y2="188.7656"/><text fill="#000000" font-family="sans-serif" font-size="11" lengthAdjust="spacing" textLength="64" x="461" y="203.4004">String name</text><text fill="#000000" font-family="sans-serif" font-size="11" lengthAdjust="spacing" textLength="153" x="461" y="216.3555">MAPDecorator responsibility</text><line style="stroke:#A80036;stroke-width:1.5;" x1="456" x2="619" y1="222.6758" y2="222.6758"/><path d="M239,147 L239,233.5527 A0,0 0 0 0 239,233.5527 L420,233.5527 A0,0 0 0 0 420,233.5527 L420,194.5 L454.95,190.5 L420,186.5 L420,157 L410,147 L239,147 A0,0 0 0 0 239,147 " fill="#FBFB77" filter="url(#f1cfad38k6zsq)" style="stroke:#A80036;stroke-width:1.0;"/><path d="M410,147 L410,157 L420,157 L410,147 " fill="#FBFB77" style="stroke:#A80036;stroke-width:1.0;"/><text fill="#000000" font-family="sans-serif" font-size="13" font-weight="bold" lengthAdjust="spacing" textLength="160" x="245" y="164.5684">Operation Refactorings:</text><text fill="#000000" font-family="sans-serif" font-size="13" lengthAdjust="spacing" textLength="6" x="249" y="179.8789">*</text><text fill="#000000" font-family="sans-serif" font-size="13" font-style="italic" lengthAdjust="spacing" textLength="104" x="259" y="179.8789">Extract Endpoint</text><text fill="#000000" font-family="sans-serif" font-size="13" lengthAdjust="spacing" textLength="0" x="367" y="179.8789"/><text fill="#000000" font-family="sans-serif" font-size="13" lengthAdjust="spacing" textLength="6" x="249" y="195.1895">*</text><text fill="#000000" font-family="sans-serif" font-size="13" font-style="italic" lengthAdjust="spacing" textLength="99" x="259" y="195.1895">Move Operation</text><text fill="#000000" font-family="sans-serif" font-size="13" lengthAdjust="spacing" textLength="0" x="362" y="195.1895"/><text fill="#000000" font-family="sans-serif" font-size="13" lengthAdjust="spacing" textLength="6" x="249" y="210.5">*</text><text fill="#000000" font-family="sans-serif" font-size="13" font-style="italic" lengthAdjust="spacing" textLength="115" x="259" y="210.5">Rename Operation</text><text fill="#000000" font-family="sans-serif" font-size="13" lengthAdjust="spacing" textLength="0" x="378" y="210.5"/><text fill="#000000" font-family="sans-serif" font-size="13" lengthAdjust="spacing" textLength="6" x="249" y="225.8105">*</text><text fill="#000000" font-family="sans-serif" font-size="13" font-style="italic" lengthAdjust="spacing" textLength="94" x="259" y="225.8105">Split Operation</text><!--MD5=[e93d480bc88e1c582484fbb697036f76]
class ResponseMessagePayload--><rect codeLine="19" fill="#FEFECE" filter="url(#f1cfad38k6zsq)" height="80.1758" id="ResponseMessagePayload" style="stroke:#A80036;stroke-width:1.5;" width="226" x="837.5" y="297.5"/><ellipse cx="871.85" cy="316.6328" fill="#57D4FF" rx="11" ry="11" style="stroke:#A80036;stroke-width:1.0;"/><path d="M874.3231,322.7759 Q873.7421,323.0747 873.1029,323.2241 Q872.4638,323.3735 871.7582,323.3735 Q869.2514,323.3735 867.9315,321.7217 Q866.6117,320.0698 866.6117,316.9487 Q866.6117,313.8193 867.9315,312.1675 Q869.2514,310.5156 871.7582,310.5156 Q872.4638,310.5156 873.1112,310.665 Q873.7587,310.8145 874.3231,311.1133 L874.3231,313.8359 Q873.6923,313.2549 873.0988,312.9851 Q872.5053,312.7153 871.8744,312.7153 Q870.5297,312.7153 869.8449,313.782 Q869.1601,314.8486 869.1601,316.9487 Q869.1601,319.0405 869.8449,320.1072 Q870.5297,321.1738 871.8744,321.1738 Q872.5053,321.1738 873.0988,320.9041 Q873.6923,320.6343 874.3231,320.0532 Z " fill="#000000"/><text fill="#000000" font-family="sans-serif" font-size="12" font-style="italic" lengthAdjust="spacing" textLength="89" x="921.15" y="314.1016">«basicConcept»</text><text fill="#000000" font-family="sans-serif" font-size="12" lengthAdjust="spacing" textLength="151" x="890.15" y="328.2344">ResponseMessagePayload</text><line style="stroke:#A80036;stroke-width:1.5;" x1="838.5" x2="1062.5" y1="335.7656" y2="335.7656"/><text fill="#000000" font-family="sans-serif" font-size="11" lengthAdjust="spacing" textLength="167" x="843.5" y="350.4004">KeyValuePairs protocolHeaders</text><text fill="#000000" font-family="sans-serif" font-size="11" lengthAdjust="spacing" textLength="214" x="843.5" y="363.3555">RepresentationElements requestPayload</text><line style="stroke:#A80036;stroke-width:1.5;" x1="838.5" x2="1062.5" y1="369.6758" y2="369.6758"/><path d="M569,294 L569,380.5527 A0,0 0 0 0 569,380.5527 L802,380.5527 A0,0 0 0 0 802,380.5527 L802,341.5 L837.26,337.5 L802,333.5 L802,304 L792,294 L569,294 A0,0 0 0 0 569,294 " fill="#FBFB77" filter="url(#f1cfad38k6zsq)" style="stroke:#A80036;stroke-width:1.0;"/><path d="M792,294 L792,304 L802,304 L792,294 " fill="#FBFB77" style="stroke:#A80036;stroke-width:1.0;"/><text fill="#000000" font-family="sans-serif" font-size="13" font-weight="bold" lengthAdjust="spacing" textLength="151" x="575" y="311.5684">Message Refactorings:</text><text fill="#000000" font-family="sans-serif" font-size="13" lengthAdjust="spacing" textLength="6" x="579" y="326.8789">*</text><text fill="#000000" font-family="sans-serif" font-size="13" font-style="italic" lengthAdjust="spacing" textLength="194" x="589" y="326.8789">Introduce Data Transfer Object</text><text fill="#000000" font-family="sans-serif" font-size="13" lengthAdjust="spacing" textLength="0" x="787" y="326.8789"/><text fill="#000000" font-family="sans-serif" font-size="13" lengthAdjust="spacing" textLength="6" x="579" y="342.1895">*</text><text fill="#000000" font-family="sans-serif" font-size="13" font-style="italic" lengthAdjust="spacing" textLength="168" x="589" y="342.1895">Extract Information Holder</text><text fill="#000000" font-family="sans-serif" font-size="13" lengthAdjust="spacing" textLength="0" x="761" y="342.1895"/><text fill="#000000" font-family="sans-serif" font-size="13" lengthAdjust="spacing" textLength="6" x="579" y="357.5">*</text><text fill="#000000" font-family="sans-serif" font-size="13" font-style="italic" lengthAdjust="spacing" textLength="159" x="589" y="357.5">Inline Information Holder</text><text fill="#000000" font-family="sans-serif" font-size="13" lengthAdjust="spacing" textLength="0" x="752" y="357.5"/><text fill="#000000" font-family="sans-serif" font-size="13" lengthAdjust="spacing" textLength="6" x="579" y="372.8105">*</text><text fill="#000000" font-family="sans-serif" font-size="13" font-style="italic" lengthAdjust="spacing" textLength="130" x="589" y="372.8105">Introduce Pagination</text><!--MD5=[2266c51e2e890c8bcebcea740afba0fd]
class RequestMessagePayload--><rect codeLine="25" fill="#FEFECE" filter="url(#f1cfad38k6zsq)" height="80.1758" id="RequestMessagePayload" style="stroke:#A80036;stroke-width:1.5;" width="235" x="7" y="297.5"/><ellipse cx="49.45" cy="316.6328" fill="#57D4FF" rx="11" ry="11" style="stroke:#A80036;stroke-width:1.0;"/><path d="M51.9231,322.7759 Q51.3421,323.0747 50.7029,323.2241 Q50.0638,323.3735 49.3582,323.3735 Q46.8514,323.3735 45.5315,321.7217 Q44.2117,320.0698 44.2117,316.9487 Q44.2117,313.8193 45.5315,312.1675 Q46.8514,310.5156 49.3582,310.5156 Q50.0638,310.5156 50.7112,310.665 Q51.3587,310.8145 51.9231,311.1133 L51.9231,313.8359 Q51.2923,313.2549 50.6988,312.9851 Q50.1053,312.7153 49.4744,312.7153 Q48.1297,312.7153 47.4449,313.782 Q46.7601,314.8486 46.7601,316.9487 Q46.7601,319.0405 47.4449,320.1072 Q48.1297,321.1738 49.4744,321.1738 Q50.1053,321.1738 50.6988,320.9041 Q51.2923,320.6343 51.9231,320.0532 Z " fill="#000000"/><text fill="#000000" font-family="sans-serif" font-size="12" font-style="italic" lengthAdjust="spacing" textLength="89" x="96.05" y="314.1016">«basicConcept»</text><text fill="#000000" font-family="sans-serif" font-size="12" lengthAdjust="spacing" textLength="142" x="69.55" y="328.2344">RequestMessagePayload</text><line style="stroke:#A80036;stroke-width:1.5;" x1="8" x2="241" y1="335.7656" y2="335.7656"/><text fill="#000000" font-family="sans-serif" font-size="11" lengthAdjust="spacing" textLength="167" x="13" y="350.4004">KeyValuePairs protocolHeaders</text><text fill="#000000" font-family="sans-serif" font-size="11" lengthAdjust="spacing" textLength="223" x="13" y="363.3555">RepresentationElements responsePayload</text><line style="stroke:#A80036;stroke-width:1.5;" x1="8" x2="241" y1="369.6758" y2="369.6758"/><path d="M277.5,294 L277.5,333.5 L242.22,337.5 L277.5,341.5 L277.5,380.5527 A0,0 0 0 0 277.5,380.5527 L533.5,380.5527 A0,0 0 0 0 533.5,380.5527 L533.5,304 L523.5,294 L277.5,294 A0,0 0 0 0 277.5,294 " fill="#FBFB77" filter="url(#f1cfad38k6zsq)" style="stroke:#A80036;stroke-width:1.0;"/><path d="M523.5,294 L523.5,304 L533.5,304 L523.5,294 " fill="#FBFB77" style="stroke:#A80036;stroke-width:1.0;"/><text fill="#000000" font-family="sans-serif" font-size="13" font-weight="bold" lengthAdjust="spacing" textLength="151" x="283.5" y="311.5684">Message Refactorings:</text><text fill="#000000" font-family="sans-serif" font-size="13" lengthAdjust="spacing" textLength="6" x="287.5" y="326.8789">*</text><text fill="#000000" font-family="sans-serif" font-size="13" font-style="italic" lengthAdjust="spacing" textLength="86" x="297.5" y="326.8789">Add Wish List</text><text fill="#000000" font-family="sans-serif" font-size="13" lengthAdjust="spacing" textLength="0" x="387.5" y="326.8789"/><text fill="#000000" font-family="sans-serif" font-size="13" lengthAdjust="spacing" textLength="6" x="287.5" y="342.1895">*</text><text fill="#000000" font-family="sans-serif" font-size="13" font-style="italic" lengthAdjust="spacing" textLength="103" x="297.5" y="342.1895">Bundle Requests</text><text fill="#000000" font-family="sans-serif" font-size="13" lengthAdjust="spacing" textLength="0" x="404.5" y="342.1895"/><text fill="#000000" font-family="sans-serif" font-size="13" lengthAdjust="spacing" textLength="6" x="287.5" y="357.5">*</text><text fill="#000000" font-family="sans-serif" font-size="13" font-style="italic" lengthAdjust="spacing" textLength="164" x="297.5" y="357.5">Make Request Conditional</text><text fill="#000000" font-family="sans-serif" font-size="13" lengthAdjust="spacing" textLength="0" x="465.5" y="357.5"/><text fill="#000000" font-family="sans-serif" font-size="13" lengthAdjust="spacing" textLength="6" x="287.5" y="372.8105">*</text><text fill="#000000" font-family="sans-serif" font-size="13" font-style="italic" lengthAdjust="spacing" textLength="221" x="297.5" y="372.8105">Externalize Context Representation</text><!--MD5=[7c1f5f2c5b0ca57c698485f77a5e1a53]
link Endpoint to Operation--><path codeLine="31" d="M537.5,99.04 C537.5,99.04 537.5,125.06 537.5,137.01 " fill="none" id="Endpoint-Operation" style="stroke:#A80036;stroke-width:1.0;"/><polygon fill="#A80036" points="537.5,150.1,541.5,141.1,537.5,145.1,533.5,141.1,537.5,150.1" style="stroke:#A80036;stroke-width:1.0;"/><line style="stroke:#A80036;stroke-width:1.0;" x1="537.5" x2="537.5" y1="145.1" y2="137.1"/><polygon fill="#A80036" points="537.5,87.04,533.5,93.04,537.5,99.04,541.5,93.04,537.5,87.04" style="stroke:#A80036;stroke-width:1.0;"/><!--MD5=[10534098f25f5494bff09396759b179f]
link Operation to RequestMessagePayload--><path codeLine="32" d="M443.6076,231.6793 C443.6076,231.6793 439.18,233.37 437.5,234 C403.16,246.89 324.63,272.61 254.82,295.05 " fill="none" id="Operation-RequestMessagePayload" style="stroke:#A80036;stroke-width:1.0;"/><polygon fill="#A80036" points="242.35,299.06,252.1419,300.1177,247.1107,297.5317,249.6967,292.5005,242.35,299.06" style="stroke:#A80036;stroke-width:1.0;"/><line style="stroke:#A80036;stroke-width:1.0;" x1="247.1107" x2="254.73" y1="297.5317" y2="295.08"/><polygon fill="#A80036" points="454.78,227.3,447.7341,225.7655,443.6076,231.6793,450.6536,233.2138,454.78,227.3" style="stroke:#A80036;stroke-width:1.0;"/><!--MD5=[f58b5333d27ae3717f5c8afccd67aeff]
link Operation to ResponseMessagePayload--><path codeLine="33" d="M631.3993,224.4742 C631.3993,224.4742 764.56,271.22 826.82,293.08 " fill="none" id="Operation-ResponseMessagePayload" style="stroke:#A80036;stroke-width:1.0;"/><polygon fill="#A80036" points="839.11,297.39,831.9461,290.6314,834.393,295.7316,829.2928,298.1785,839.11,297.39" style="stroke:#A80036;stroke-width:1.0;"/><line style="stroke:#A80036;stroke-width:1.0;" x1="834.393" x2="826.84" y1="295.7316" y2="293.085"/><polygon fill="#A80036" points="620.08,220.49,624.4116,226.2552,631.3993,224.4742,627.0677,218.709,620.08,220.49" style="stroke:#A80036;stroke-width:1.0;"/><!--MD5=[8d5258129994008e059ec96b59ded193]
@startuml

class Endpoint <<(C,#57d4ff)basicConcept>> {
 Address location
 MAPDecorator role
}
note left: <b>Endpoint Refactorings:</b>\n * <i>Rename Endpoint</i> \n * <i>Merge Endpoints</i> \n * <i>Segregate Commands from Queries </i>

'note right of Endpoint: <b>Evolution Refactorings:</b>\n * <i>Strengthen Evolution Strategy</i> \n * <i>Relax Evolution Strategy</i>


class Operation <<(C,#57d4ff)basicConcept>> {
 String name
 MAPDecorator responsibility
}
note left: <b>Operation Refactorings:</b>\n * <i>Extract Endpoint</i> \n * <i>Move Operation</i> \n * <i>Rename Operation</i> \n * <i>Split Operation</i> 

'note right of Operation: <b>Evolution Refactorings:</b>\n * <i>Introduce Version Identifier</i>\n * <i>Introduce Version Mediator</i> 

class ResponseMessagePayload <<(C,#57d4ff)basicConcept>> {
  KeyValuePairs protocolHeaders
  RepresentationElements requestPayload
}
note left: <b>Message Refactorings:</b>\n * <i>Introduce Data Transfer Object</i> \n * <i>Extract Information Holder</i> \n * <i>Inline Information Holder</i> \n * <i>Introduce Pagination</i> 

class RequestMessagePayload <<(C,#57d4ff)basicConcept>> {
  KeyValuePairs protocolHeaders
  RepresentationElements responsePayload
}
note right: <b>Message Refactorings:</b>\n * <i>Add Wish List</i> \n * <i>Bundle Requests</i> \n * <i>Make Request Conditional</i> \n * <i>Externalize Context Representation</i>

Endpoint *- -> Operation 
Operation *- -> RequestMessagePayload 
Operation *- -> ResponseMessagePayload
' RequestMessage *- - InParameters
' ResponseMessage*- - OutParameters


@enduml

@startuml

class Endpoint <<(C,#57d4ff)basicConcept>> {
 Address location
 MAPDecorator role
}
note left: <b>Endpoint Refactorings:</b>\n * <i>Rename Endpoint</i> \n * <i>Merge Endpoints</i> \n * <i>Segregate Commands from Queries </i>



class Operation <<(C,#57d4ff)basicConcept>> {
 String name
 MAPDecorator responsibility
}
note left: <b>Operation Refactorings:</b>\n * <i>Extract Endpoint</i> \n * <i>Move Operation</i> \n * <i>Rename Operation</i> \n * <i>Split Operation</i> 


class ResponseMessagePayload <<(C,#57d4ff)basicConcept>> {
  KeyValuePairs protocolHeaders
  RepresentationElements requestPayload
}
note left: <b>Message Refactorings:</b>\n * <i>Introduce Data Transfer Object</i> \n * <i>Extract Information Holder</i> \n * <i>Inline Information Holder</i> \n * <i>Introduce Pagination</i> 

class RequestMessagePayload <<(C,#57d4ff)basicConcept>> {
  KeyValuePairs protocolHeaders
  RepresentationElements responsePayload
}
note right: <b>Message Refactorings:</b>\n * <i>Add Wish List</i> \n * <i>Bundle Requests</i> \n * <i>Make Request Conditional</i> \n * <i>Externalize Context Representation</i>

Endpoint *- -> Operation 
Operation *- -> RequestMessagePayload 
Operation *- -> ResponseMessagePayload


@enduml

PlantUML version 1.2021.7(Sun May 23 14:40:07 CEST 2021)
(GPL source distribution)
Java Runtime: OpenJDK Runtime Environment
JVM: OpenJDK 64-Bit Server VM
Default Encoding: UTF-8
Language: en
Country: GB
--></g></svg>