<?xml version="1.0" encoding="UTF-8" standalone="no"?><svg xmlns="http://www.w3.org/2000/svg" xmlns:xlink="http://www.w3.org/1999/xlink" contentScriptType="application/ecmascript" contentStyleType="text/css" height="571px" preserveAspectRatio="none" style="width:392px;height:571px;" version="1.1" viewBox="0 0 392 571" width="392px" zoomAndPan="magnify"><defs><filter height="300%" id="fi9qc73c4724x" width="300%" x="-1" y="-1"><feGaussianBlur result="blurOut" stdDeviation="2.0"/><feColorMatrix in="blurOut" result="blurOut2" type="matrix" values="0 0 0 0 0 0 0 0 0 0 0 0 0 0 0 0 0 0 .4 0"/><feOffset dx="4.0" dy="4.0" in="blurOut2" result="blurOut3"/><feBlend in="SourceGraphic" in2="blurOut3" mode="normal"/></filter></defs><g><!--MD5=[2cdd83b4c38aa41753247bf04090638f]
cluster 'MicroserviceAPIPatternsTerminology' --><rect fill="#FFFFFF" filter="url(#fi9qc73c4724x)" height="502" style="stroke:#000000;stroke-width:1.5;" width="373" x="7" y="7"/><text fill="#000000" font-family="sans-serif" font-size="14" font-weight="bold" lengthAdjust="spacing" textLength="259" x="62" y="23.5332">'MicroserviceAPIPatternsTerminology'</text><!--MD5=[68767c78be08caa96780c014af9fbeaa]
class API--><rect codeLine="5" fill="#FEFECE" filter="url(#fi9qc73c4724x)" height="83.8594" id="API" style="stroke:#A80036;stroke-width:1.5;" width="188" x="98" y="43"/><ellipse cx="167.75" cy="63.0938" fill="#8FBC8F" rx="11" ry="11" style="stroke:#A80036;stroke-width:1.0;"/><path d="M166.6094,63.8906 L166.6094,66.3906 L170.9375,66.3906 L170.9375,65.4688 Q170.9375,64.8594 171.1719,64.5938 Q171.4219,64.3281 171.7969,64.3281 Q172.1719,64.3281 172.4063,64.5938 Q172.6406,64.8594 172.6406,65.4688 L172.6406,68.0938 L164.6406,68.0938 Q164.0156,68.0938 163.75,67.8594 Q163.5,67.625 163.5,67.2344 Q163.5,66.8594 163.7656,66.625 Q164.0313,66.3906 164.6406,66.3906 L164.9063,66.3906 L164.9063,59.7344 L164.6406,59.7344 Q164.0156,59.7344 163.75,59.5 Q163.5,59.2656 163.5,58.875 Q163.5,58.5 163.75,58.2656 Q164.0156,58.0313 164.6406,58.0313 L172.2656,58.0313 L172.2656,60.625 Q172.2656,61.2344 172.0313,61.5 Q171.8125,61.75 171.4219,61.75 Q171.0469,61.75 170.8125,61.5 Q170.5781,61.2344 170.5781,60.625 L170.5781,59.7344 L166.6094,59.7344 L166.6094,62.1875 L168.0938,62.1875 Q168.0938,61.5313 168.2188,61.3438 Q168.4844,60.9375 168.9531,60.9375 Q169.3281,60.9375 169.5625,61.2031 Q169.7969,61.4531 169.7969,62.0625 L169.7969,64.0313 Q169.7969,64.5781 169.6719,64.7656 Q169.4063,65.1563 168.9531,65.1563 Q168.4844,65.1563 168.2188,64.75 Q168.0938,64.5625 168.0938,63.8906 L166.6094,63.8906 Z " fill="#000000"/><text fill="#000000" font-family="sans-serif" font-size="12" font-style="italic" lengthAdjust="spacing" textLength="44" x="186.25" y="60.457">«Entity»</text><text fill="#000000" font-family="sans-serif" font-size="12" lengthAdjust="spacing" textLength="19" x="198.75" y="75.5508">API</text><line style="stroke:#A80036;stroke-width:1.5;" x1="99" x2="285" y1="83.1875" y2="83.1875"/><text fill="#000000" font-family="sans-serif" font-size="11" lengthAdjust="spacing" textLength="176" x="104" y="98.6064">APIDescription contractSpecification</text><text fill="#000000" font-family="sans-serif" font-size="11" lengthAdjust="spacing" textLength="131" x="104" y="112.4424">Set&lt;APIEndpoint&gt; contains</text><line style="stroke:#A80036;stroke-width:1.5;" x1="99" x2="285" y1="118.8594" y2="118.8594"/><!--MD5=[e3b0fe3630a8c4a230c9dfaef9a65733]
class APIDescription--><rect codeLine="9" fill="#FEFECE" filter="url(#fi9qc73c4724x)" height="70.0234" id="APIDescription" style="stroke:#A80036;stroke-width:1.5;" width="162" x="23" y="219"/><ellipse cx="60.05" cy="239.0938" fill="#8FBC8F" rx="11" ry="11" style="stroke:#A80036;stroke-width:1.0;"/><path d="M58.9094,239.8906 L58.9094,242.3906 L63.2375,242.3906 L63.2375,241.4688 Q63.2375,240.8594 63.4719,240.5938 Q63.7219,240.3281 64.0969,240.3281 Q64.4719,240.3281 64.7063,240.5938 Q64.9406,240.8594 64.9406,241.4688 L64.9406,244.0938 L56.9406,244.0938 Q56.3156,244.0938 56.05,243.8594 Q55.8,243.625 55.8,243.2344 Q55.8,242.8594 56.0656,242.625 Q56.3313,242.3906 56.9406,242.3906 L57.2063,242.3906 L57.2063,235.7344 L56.9406,235.7344 Q56.3156,235.7344 56.05,235.5 Q55.8,235.2656 55.8,234.875 Q55.8,234.5 56.05,234.2656 Q56.3156,234.0313 56.9406,234.0313 L64.5656,234.0313 L64.5656,236.625 Q64.5656,237.2344 64.3313,237.5 Q64.1125,237.75 63.7219,237.75 Q63.3469,237.75 63.1125,237.5 Q62.8781,237.2344 62.8781,236.625 L62.8781,235.7344 L58.9094,235.7344 L58.9094,238.1875 L60.3938,238.1875 Q60.3938,237.5313 60.5188,237.3438 Q60.7844,236.9375 61.2531,236.9375 Q61.6281,236.9375 61.8625,237.2031 Q62.0969,237.4531 62.0969,238.0625 L62.0969,240.0313 Q62.0969,240.5781 61.9719,240.7656 Q61.7063,241.1563 61.2531,241.1563 Q60.7844,241.1563 60.5188,240.75 Q60.3938,240.5625 60.3938,239.8906 L58.9094,239.8906 Z " fill="#000000"/><text fill="#000000" font-family="sans-serif" font-size="12" font-style="italic" lengthAdjust="spacing" textLength="44" x="97.45" y="236.457">«Entity»</text><text fill="#000000" font-family="sans-serif" font-size="12" lengthAdjust="spacing" textLength="81" x="78.95" y="251.5508">APIDescription</text><line style="stroke:#A80036;stroke-width:1.5;" x1="24" x2="184" y1="259.1875" y2="259.1875"/><text fill="#000000" font-family="sans-serif" font-size="11" lengthAdjust="spacing" textLength="150" x="29" y="274.6064">VerbosityLevel amountOfDetail</text><line style="stroke:#A80036;stroke-width:1.5;" x1="24" x2="184" y1="281.0234" y2="281.0234"/><!--MD5=[d14b4c5ece69ff560bae0d1e968859ce]
class APIEndpoint--><rect codeLine="12" fill="#FEFECE" filter="url(#fi9qc73c4724x)" height="97.6953" id="APIEndpoint" style="stroke:#A80036;stroke-width:1.5;" width="143" x="220.5" y="205"/><ellipse cx="254.85" cy="225.0938" fill="#8FBC8F" rx="11" ry="11" style="stroke:#A80036;stroke-width:1.0;"/><path d="M253.7094,225.8906 L253.7094,228.3906 L258.0375,228.3906 L258.0375,227.4688 Q258.0375,226.8594 258.2719,226.5938 Q258.5219,226.3281 258.8969,226.3281 Q259.2719,226.3281 259.5063,226.5938 Q259.7406,226.8594 259.7406,227.4688 L259.7406,230.0938 L251.7406,230.0938 Q251.1156,230.0938 250.85,229.8594 Q250.6,229.625 250.6,229.2344 Q250.6,228.8594 250.8656,228.625 Q251.1313,228.3906 251.7406,228.3906 L252.0063,228.3906 L252.0063,221.7344 L251.7406,221.7344 Q251.1156,221.7344 250.85,221.5 Q250.6,221.2656 250.6,220.875 Q250.6,220.5 250.85,220.2656 Q251.1156,220.0313 251.7406,220.0313 L259.3656,220.0313 L259.3656,222.625 Q259.3656,223.2344 259.1313,223.5 Q258.9125,223.75 258.5219,223.75 Q258.1469,223.75 257.9125,223.5 Q257.6781,223.2344 257.6781,222.625 L257.6781,221.7344 L253.7094,221.7344 L253.7094,224.1875 L255.1938,224.1875 Q255.1938,223.5313 255.3188,223.3438 Q255.5844,222.9375 256.0531,222.9375 Q256.4281,222.9375 256.6625,223.2031 Q256.8969,223.4531 256.8969,224.0625 L256.8969,226.0313 Q256.8969,226.5781 256.7719,226.7656 Q256.5063,227.1563 256.0531,227.1563 Q255.5844,227.1563 255.3188,226.75 Q255.1938,226.5625 255.1938,225.8906 L253.7094,225.8906 Z " fill="#000000"/><text fill="#000000" font-family="sans-serif" font-size="12" font-style="italic" lengthAdjust="spacing" textLength="44" x="285.15" y="222.457">«Entity»</text><text fill="#000000" font-family="sans-serif" font-size="12" lengthAdjust="spacing" textLength="68" x="273.15" y="237.5508">APIEndpoint</text><line style="stroke:#A80036;stroke-width:1.5;" x1="221.5" x2="362.5" y1="245.1875" y2="245.1875"/><text fill="#000000" font-family="sans-serif" font-size="11" lengthAdjust="spacing" textLength="58" x="226.5" y="260.6064">String name</text><text fill="#000000" font-family="sans-serif" font-size="11" lengthAdjust="spacing" textLength="73" x="226.5" y="274.4424">String[0..1] role</text><text fill="#000000" font-family="sans-serif" font-size="11" lengthAdjust="spacing" textLength="131" x="226.5" y="288.2783">List&lt;Operation&gt; operations</text><line style="stroke:#A80036;stroke-width:1.5;" x1="221.5" x2="362.5" y1="294.6953" y2="294.6953"/><!--MD5=[cca5d97aaf46870920fae66c9bd85cdd]
class Operation--><rect codeLine="17" fill="#FEFECE" filter="url(#fi9qc73c4724x)" height="111.5313" id="Operation" style="stroke:#A80036;stroke-width:1.5;" width="130" x="60" y="381"/><ellipse cx="94.8" cy="401.0938" fill="#8FBC8F" rx="11" ry="11" style="stroke:#A80036;stroke-width:1.0;"/><path d="M93.6594,401.8906 L93.6594,404.3906 L97.9875,404.3906 L97.9875,403.4688 Q97.9875,402.8594 98.2219,402.5938 Q98.4719,402.3281 98.8469,402.3281 Q99.2219,402.3281 99.4563,402.5938 Q99.6906,402.8594 99.6906,403.4688 L99.6906,406.0938 L91.6906,406.0938 Q91.0656,406.0938 90.8,405.8594 Q90.55,405.625 90.55,405.2344 Q90.55,404.8594 90.8156,404.625 Q91.0813,404.3906 91.6906,404.3906 L91.9563,404.3906 L91.9563,397.7344 L91.6906,397.7344 Q91.0656,397.7344 90.8,397.5 Q90.55,397.2656 90.55,396.875 Q90.55,396.5 90.8,396.2656 Q91.0656,396.0313 91.6906,396.0313 L99.3156,396.0313 L99.3156,398.625 Q99.3156,399.2344 99.0813,399.5 Q98.8625,399.75 98.4719,399.75 Q98.0969,399.75 97.8625,399.5 Q97.6281,399.2344 97.6281,398.625 L97.6281,397.7344 L93.6594,397.7344 L93.6594,400.1875 L95.1438,400.1875 Q95.1438,399.5313 95.2688,399.3438 Q95.5344,398.9375 96.0031,398.9375 Q96.3781,398.9375 96.6125,399.2031 Q96.8469,399.4531 96.8469,400.0625 L96.8469,402.0313 Q96.8469,402.5781 96.7219,402.7656 Q96.4563,403.1563 96.0031,403.1563 Q95.5344,403.1563 95.2688,402.75 Q95.1438,402.5625 95.1438,401.8906 L93.6594,401.8906 Z " fill="#000000"/><text fill="#000000" font-family="sans-serif" font-size="12" font-style="italic" lengthAdjust="spacing" textLength="44" x="118.2" y="398.457">«Entity»</text><text fill="#000000" font-family="sans-serif" font-size="12" lengthAdjust="spacing" textLength="54" x="113.2" y="413.5508">Operation</text><line style="stroke:#A80036;stroke-width:1.5;" x1="61" x2="189" y1="421.1875" y2="421.1875"/><text fill="#000000" font-family="sans-serif" font-size="11" lengthAdjust="spacing" textLength="58" x="66" y="436.6064">String name</text><text fill="#000000" font-family="sans-serif" font-size="11" lengthAdjust="spacing" textLength="118" x="66" y="450.4424">String[0..1] responsibility</text><text fill="#000000" font-family="sans-serif" font-size="11" lengthAdjust="spacing" textLength="72" x="66" y="464.2783">Message send</text><text fill="#000000" font-family="sans-serif" font-size="11" lengthAdjust="spacing" textLength="90" x="66" y="478.1143">Message receives</text><line style="stroke:#A80036;stroke-width:1.5;" x1="61" x2="189" y1="484.5313" y2="484.5313"/><!--MD5=[bea5b0d46523efab5ea1c1d339f396f0]
class Message--><rect codeLine="23" fill="#FEFECE" filter="url(#fi9qc73c4724x)" height="70.0234" id="Message" style="stroke:#A80036;stroke-width:1.5;" width="95" x="268.5" y="402"/><ellipse cx="289.35" cy="422.0938" fill="#8FBC8F" rx="11" ry="11" style="stroke:#A80036;stroke-width:1.0;"/><path d="M288.2094,422.8906 L288.2094,425.3906 L292.5375,425.3906 L292.5375,424.4688 Q292.5375,423.8594 292.7719,423.5938 Q293.0219,423.3281 293.3969,423.3281 Q293.7719,423.3281 294.0063,423.5938 Q294.2406,423.8594 294.2406,424.4688 L294.2406,427.0938 L286.2406,427.0938 Q285.6156,427.0938 285.35,426.8594 Q285.1,426.625 285.1,426.2344 Q285.1,425.8594 285.3656,425.625 Q285.6313,425.3906 286.2406,425.3906 L286.5063,425.3906 L286.5063,418.7344 L286.2406,418.7344 Q285.6156,418.7344 285.35,418.5 Q285.1,418.2656 285.1,417.875 Q285.1,417.5 285.35,417.2656 Q285.6156,417.0313 286.2406,417.0313 L293.8656,417.0313 L293.8656,419.625 Q293.8656,420.2344 293.6313,420.5 Q293.4125,420.75 293.0219,420.75 Q292.6469,420.75 292.4125,420.5 Q292.1781,420.2344 292.1781,419.625 L292.1781,418.7344 L288.2094,418.7344 L288.2094,421.1875 L289.6938,421.1875 Q289.6938,420.5313 289.8188,420.3438 Q290.0844,419.9375 290.5531,419.9375 Q290.9281,419.9375 291.1625,420.2031 Q291.3969,420.4531 291.3969,421.0625 L291.3969,423.0313 Q291.3969,423.5781 291.2719,423.7656 Q291.0063,424.1563 290.5531,424.1563 Q290.0844,424.1563 289.8188,423.75 Q289.6938,423.5625 289.6938,422.8906 L288.2094,422.8906 Z " fill="#000000"/><text fill="#000000" font-family="sans-serif" font-size="12" font-style="italic" lengthAdjust="spacing" textLength="44" x="307.65" y="419.457">«Entity»</text><text fill="#000000" font-family="sans-serif" font-size="12" lengthAdjust="spacing" textLength="50" x="304.65" y="434.5508">Message</text><line style="stroke:#A80036;stroke-width:1.5;" x1="269.5" x2="362.5" y1="442.1875" y2="442.1875"/><text fill="#000000" font-family="sans-serif" font-size="11" lengthAdjust="spacing" textLength="83" x="274.5" y="457.6064">DataContract dto</text><line style="stroke:#A80036;stroke-width:1.5;" x1="269.5" x2="362.5" y1="464.0234" y2="464.0234"/><!--MD5=[01d20e042ebea7e4a506c3133bb7c1f6]
link API to APIDescription--><path codeLine="27" d="M140.65,127.35 C132.26,136.31 124.52,146.32 119,157 C110.01,174.4 106.09,195.75 104.49,213.91 " fill="none" id="API-to-APIDescription" style="stroke:#A80036;stroke-width:1.0;"/><polygon fill="#A80036" points="104.09,218.93,108.7969,210.2787,104.4899,213.946,100.8226,209.6389,104.09,218.93" style="stroke:#A80036;stroke-width:1.0;"/><text fill="#000000" font-family="sans-serif" font-size="13" lengthAdjust="spacing" textLength="122" x="120" y="171.4951">contractSpecification</text><!--MD5=[92466b180f02ee5624f957b14c40832c]
reverse link API to APIEndpoint--><path codeLine="28" d="M234.51,138.25 C238.93,144.43 243.19,150.76 247,157 C256.12,171.92 264.67,188.99 271.81,204.55 " fill="none" id="API-backto-APIEndpoint" style="stroke:#A80036;stroke-width:1.0;"/><polygon fill="#FFFFFF" points="226.46,127.33,226.803,134.5329,233.5838,136.9867,233.2408,129.7837,226.46,127.33" style="stroke:#A80036;stroke-width:1.0;"/><text fill="#000000" font-family="sans-serif" font-size="13" lengthAdjust="spacing" textLength="49" x="258" y="171.4951">contains</text><!--MD5=[16a8169051001d568cde2853c4843471]
reverse link APIEndpoint to Operation--><path codeLine="29" d="M238.68,312.79 C218.62,334.53 195.88,359.18 176.03,380.69 " fill="none" id="APIEndpoint-backto-Operation" style="stroke:#A80036;stroke-width:1.0;"/><polygon fill="#FFFFFF" points="247.69,303.03,240.6806,304.7235,239.5479,311.8451,246.5573,310.1516,247.69,303.03" style="stroke:#A80036;stroke-width:1.0;"/><text fill="#000000" font-family="sans-serif" font-size="13" lengthAdjust="spacing" textLength="60" x="219" y="347.4951">operations</text><!--MD5=[29bb008bcc0806589aebd1240c51d636]
link Operation to Message--><path codeLine="30" d="M190.18,456.04 C207.7,459.09 226.67,460.52 244.25,458 C250.37,457.12 256.7,455.84 262.95,454.34 " fill="none" id="Operation-to-Message" style="stroke:#A80036;stroke-width:1.0;"/><polygon fill="#A80036" points="268.17,453.04,258.4686,451.3423,263.3193,454.2527,260.4089,459.1034,268.17,453.04" style="stroke:#A80036;stroke-width:1.0;"/><text fill="#000000" font-family="sans-serif" font-size="13" lengthAdjust="spacing" textLength="28" x="215.25" y="454.4951">send</text><!--MD5=[46c345ed026cb2463a2e8f403e508059]
reverse link Operation to Message--><path codeLine="31" d="M195.34,437 C219.62,437 246.23,437 268.28,437 " fill="none" id="Operation-backto-Message" style="stroke:#A80036;stroke-width:1.0;"/><polygon fill="#A80036" points="190.2,437,199.2,441,195.2,437,199.2,433,190.2,437" style="stroke:#A80036;stroke-width:1.0;"/><text fill="#000000" font-family="sans-serif" font-size="13" lengthAdjust="spacing" textLength="42" x="208.25" y="430.4951">receive</text><rect fill="#DDDDDD" height="27.6094" rx="5" ry="5" style="stroke:#000000;stroke-width:1.0;" width="327" x="8" y="528"/><text fill="#000000" font-family="sans-serif" font-size="14" lengthAdjust="spacing" textLength="315" x="14" y="547.5332">This subdomain is part of the 'APIDesign' domain.</text><!--MD5=[23525be4652df7374fc42f901d8cc503]
@startuml

skinparam componentStyle uml2

package "'MicroserviceAPIPatternsTerminology' " <<Rectangle>> {
	class API <<(E,DarkSeaGreen) Entity>> {
		APIDescription contractSpecification
		Set<APIEndpoint> contains
	}
	class APIDescription <<(E,DarkSeaGreen) Entity>> {
		VerbosityLevel amountOfDetail
	}
	class APIEndpoint <<(E,DarkSeaGreen) Entity>> {
		String name
		String[0..1] role
		List<Operation> operations
	}
	class Operation <<(E,DarkSeaGreen) Entity>> {
		String name
		String[0..1] responsibility
		Message send
		Message receives
	}
	class Message <<(E,DarkSeaGreen) Entity>> {
		DataContract dto
	}
}
API - -> APIDescription : contractSpecification
API o- - APIEndpoint : contains
APIEndpoint o- - Operation : operations
Operation -> Message : send
Operation <- Message : receive
legend left
  This subdomain is part of the 'APIDesign' domain.
end legend


@enduml

PlantUML version 1.2021.00(Sun Jan 10 11:25:05 CET 2021)
(GPL source distribution)
Java Runtime: OpenJDK Runtime Environment
JVM: OpenJDK 64-Bit Server VM
Default Encoding: Cp1252
Language: en
Country: US
--></g></svg>