<?xml version="1.0" encoding="UTF-8" standalone="no"?><svg xmlns="http://www.w3.org/2000/svg" xmlns:xlink="http://www.w3.org/1999/xlink" contentScriptType="application/ecmascript" contentStyleType="text/css" height="718px" preserveAspectRatio="none" style="width:787px;height:718px;background:#F3F6F6;" version="1.1" viewBox="0 0 787 718" width="787px" zoomAndPan="magnify"><defs/><g><rect fill="#FEFECE" height="40" rx="12.5" ry="12.5" style="stroke:#A80036;stroke-width:1.5;" width="156" x="350.5" y="136"/><text fill="#000000" font-family="sans-serif" font-size="14" lengthAdjust="spacing" textLength="146" x="355.5" y="160.8467">Experimental Preview</text><rect fill="#FEFECE" height="40" rx="12.5" ry="12.5" style="stroke:#A80036;stroke-width:1.5;" width="190" x="224.5" y="286"/><text fill="#000000" font-family="sans-serif" font-size="14" lengthAdjust="spacing" textLength="180" x="229.5" y="310.8467">Aggressive Obsolescence</text><rect fill="#FEFECE" height="40" rx="12.5" ry="12.5" style="stroke:#A80036;stroke-width:1.5;" width="193" x="7" y="436"/><text fill="#000000" font-family="sans-serif" font-size="14" lengthAdjust="spacing" textLength="183" x="12" y="460.8467">Limited Lifetime Guarantee</text><rect fill="#FEFECE" height="40" rx="12.5" ry="12.5" style="stroke:#A80036;stroke-width:1.5;" width="134" x="252.5" y="554"/><text fill="#000000" font-family="sans-serif" font-size="14" lengthAdjust="spacing" textLength="124" x="257.5" y="578.8467">Two In Production</text><rect fill="#FEFECE" height="40" rx="12.5" ry="12.5" style="stroke:#A80036;stroke-width:1.5;" width="115" x="262" y="672"/><text fill="#000000" font-family="sans-serif" font-size="14" lengthAdjust="spacing" textLength="105" x="267" y="696.8467">N In Production</text><ellipse cx="428.5" cy="16" fill="#000000" rx="10" ry="10" style="stroke:none;stroke-width:1.0;"/><!--MD5=[e544080cde8bd1689682be29138ba2ac]
link *start to ExperimentalPreview--><path d="M428.5,26.05 C428.5,47.03 428.5,99.52 428.5,130.68 " fill="none" id="*start-to-ExperimentalPreview" style="stroke:#A80036;stroke-width:1.0;"/><polygon fill="#A80036" points="428.5,135.87,432.5,126.87,428.5,130.87,424.5,126.87,428.5,135.87" style="stroke:#A80036;stroke-width:1.0;"/><text fill="#000000" font-family="sans-serif" font-size="14" lengthAdjust="spacing" textLength="209" x="430.5" y="69.9951">Introduce changes and gather</text><text fill="#000000" font-family="sans-serif" font-size="14" lengthAdjust="spacing" textLength="207" x="433.5" y="86.292">feedback from clients, without</text><text fill="#000000" font-family="sans-serif" font-size="14" lengthAdjust="spacing" textLength="157" x="458.5" y="102.5889">long term commitment</text><!--MD5=[a798065845942ec30beb66163cd7d932]
link ExperimentalPreview to AggressiveObsolescence--><path d="M368.3,176.07 C354.18,183.29 340.6,193.03 331.5,206 C316.28,227.69 314.97,258.82 316.38,280.36 " fill="none" id="ExperimentalPreview-to-AggressiveObsolescence" style="stroke:#A80036;stroke-width:1.0;"/><polygon fill="#A80036" points="316.79,285.62,320.0839,276.3383,316.4043,280.6349,312.1077,276.9553,316.79,285.62" style="stroke:#A80036;stroke-width:1.0;"/><text fill="#000000" font-family="sans-serif" font-size="14" lengthAdjust="spacing" textLength="173" x="332.5" y="219.9951">Increase guarantees, but</text><text fill="#000000" font-family="sans-serif" font-size="14" lengthAdjust="spacing" textLength="161" x="340.5" y="236.292">keep options to sunset</text><text fill="#000000" font-family="sans-serif" font-size="14" lengthAdjust="spacing" textLength="134" x="356" y="252.5889">as early as possible</text><!--MD5=[a6e5ed2fc4293a6bfc927e832fa00bff]
link AggressiveObsolescence to LimitedLifetimeGuarantee--><path d="M224.42,312.63 C191.26,319.13 156.2,331.81 131.5,356 C111.54,375.56 105.52,408.19 103.85,430.61 " fill="none" id="AggressiveObsolescence-to-LimitedLifetimeGuarantee" style="stroke:#A80036;stroke-width:1.0;"/><polygon fill="#A80036" points="103.53,435.79,108.0867,427.0587,103.8437,430.7998,100.1025,426.5568,103.53,435.79" style="stroke:#A80036;stroke-width:1.0;"/><text fill="#000000" font-family="sans-serif" font-size="14" lengthAdjust="spacing" textLength="156" x="132.5" y="369.9951">Give a fixed time-frame</text><text fill="#000000" font-family="sans-serif" font-size="14" lengthAdjust="spacing" textLength="140" x="142.5" y="386.292">during which the API</text><text fill="#000000" font-family="sans-serif" font-size="14" lengthAdjust="spacing" textLength="122" x="153.5" y="402.5889">will not be broken</text><!--MD5=[3b173a64a632c8e86347825c1e23701b]
link ExperimentalPreview to TwoInProduction--><path d="M482.08,176.22 C494.93,183.5 507.07,193.22 514.5,206 C546.87,261.7 601.74,308.01 491.5,476 C467.47,512.62 424.58,536.85 387.65,551.93 " fill="none" id="ExperimentalPreview-to-TwoInProduction" style="stroke:#A80036;stroke-width:1.0;"/><polygon fill="#A80036" points="382.71,553.91,392.5522,554.2709,387.3504,552.0481,389.5732,546.8463,382.71,553.91" style="stroke:#A80036;stroke-width:1.0;"/><text fill="#000000" font-family="sans-serif" font-size="14" lengthAdjust="spacing" textLength="193" x="569.5" y="377.9951">Ease migration for clients by</text><text fill="#000000" font-family="sans-serif" font-size="14" lengthAdjust="spacing" textLength="223" x="556.5" y="394.292">providing more than one version</text><!--MD5=[c70f81133d84ece8b3618dfe2453e404]
link AggressiveObsolescence to TwoInProduction--><path d="M319.5,326.13 C319.5,373.46 319.5,496.02 319.5,548.53 " fill="none" id="AggressiveObsolescence-to-TwoInProduction" style="stroke:#A80036;stroke-width:1.0;"/><polygon fill="#A80036" points="319.5,553.69,323.5,544.69,319.5,548.69,315.5,544.69,319.5,553.69" style="stroke:#A80036;stroke-width:1.0;"/><text fill="#000000" font-family="sans-serif" font-size="14" lengthAdjust="spacing" textLength="97" x="353" y="452.9951">Provide stable</text><text fill="#000000" font-family="sans-serif" font-size="14" lengthAdjust="spacing" textLength="158" x="324.5" y="469.292">and less stable version</text><!--MD5=[d86f38044db54ce2832e8ad2bdc9032b]
link LimitedLifetimeGuarantee to TwoInProduction--><path d="M82.55,476.22 C69.64,490.38 57.65,509.6 69.5,524 C91.69,550.96 181.6,563.3 247.26,568.8 " fill="none" id="LimitedLifetimeGuarantee-to-TwoInProduction" style="stroke:#A80036;stroke-width:1.0;"/><polygon fill="#A80036" points="252.34,569.22,243.6887,564.5131,247.356,568.8201,243.0489,572.4874,252.34,569.22" style="stroke:#A80036;stroke-width:1.0;"/><text fill="#000000" font-family="sans-serif" font-size="14" lengthAdjust="spacing" textLength="222" x="70.5" y="519.9951">Guarantee overlapping life times</text><!--MD5=[d25dc466dac75a0dcd9324dde00e371f]
link TwoInProduction to NInProduction--><path d="M319.5,594.16 C319.5,613.97 319.5,644.98 319.5,666.55 " fill="none" id="TwoInProduction-to-NInProduction" style="stroke:#A80036;stroke-width:1.0;"/><polygon fill="#A80036" points="319.5,671.82,323.5,662.82,319.5,666.82,315.5,662.82,319.5,671.82" style="stroke:#A80036;stroke-width:1.0;"/><text fill="#000000" font-family="sans-serif" font-size="14" lengthAdjust="spacing" textLength="194" x="320.5" y="637.9951">Offer three or more versions</text><!--MD5=[8e8efa58f01c200bf51ebbf15e11d4a2]
@startuml

skinparam defaultFontName sans-serif
skinparam ClassBackgroundColor White
hide empty members
hide circle
skinparam defaultFontSize 14
skinparam classfontstyle bold
skinparam shadowing false
skinparam backgroundColor #f3f6f6
hide empty description

state "Experimental Preview" as ExperimentalPreview
state "Aggressive Obsolescence" as AggressiveObsolescence
state "Limited Lifetime Guarantee" as LimitedLifetimeGuarantee
state "Two In Production" as TwoInProduction
state "N In Production" as NInProduction

[*] - -> ExperimentalPreview : Introduce changes and gather \n feedback from clients, without \nlong term commitment

ExperimentalPreview - -> AggressiveObsolescence : Increase guarantees, but \n keep options to sunset \n as early as possible

AggressiveObsolescence - -> LimitedLifetimeGuarantee : Give a fixed time-frame \n during which the API \n will not be broken

ExperimentalPreview - -> TwoInProduction : Ease migration for clients by\n providing more than one version

AggressiveObsolescence - -> TwoInProduction : Provide stable\n and less stable version

LimitedLifetimeGuarantee - -> TwoInProduction : Guarantee overlapping life times  

TwoInProduction - -> NInProduction: Offer three or more versions

@enduml

PlantUML version 1.2021.14(Fri Nov 12 16:46:50 GMT 2021)
(GPL source distribution)
Java Runtime: OpenJDK Runtime Environment
JVM: OpenJDK 64-Bit Server VM
Default Encoding: UTF-8
Language: en
Country: US
--></g></svg>