<?xml version="1.0" encoding="UTF-8" standalone="no"?><svg xmlns="http://www.w3.org/2000/svg" xmlns:xlink="http://www.w3.org/1999/xlink" contentScriptType="application/ecmascript" contentStyleType="text/css" height="421px" preserveAspectRatio="none" style="width:1210px;height:421px;background:#F3F6F6;" version="1.1" viewBox="0 0 1210 421" width="1210px" zoomAndPan="magnify"><defs/><g><!--MD5=[6aecd51c4208337097d56a0a23607946]
class CC--><rect codeLine="2" fill="#FFFFFF" height="42.5938" id="CC" style="stroke:#A80036;stroke-width:1.5;" width="126" x="263" y="373"/><text fill="#000000" font-family="sans-serif" font-size="14" font-style="italic" lengthAdjust="spacing" textLength="99" x="276.5" y="390.9951">«Spring Boot»</text><text fill="#000000" font-family="sans-serif" font-size="14" font-weight="bold" lengthAdjust="spacing" textLength="120" x="266" y="407.292">Customer Core</text><!--MD5=[b78d2c44ee870aa41a633ad897a42aea]
class CMB--><rect codeLine="3" fill="#FFFFFF" height="42.5938" id="CMB" style="stroke:#A80036;stroke-width:1.5;" width="261" x="18.5" y="190"/><text fill="#000000" font-family="sans-serif" font-size="14" font-style="italic" lengthAdjust="spacing" textLength="99" x="99.5" y="207.9951">«Spring Boot»</text><text fill="#000000" font-family="sans-serif" font-size="14" font-weight="bold" lengthAdjust="spacing" textLength="255" x="21.5" y="224.292">Customer Management Backend</text><!--MD5=[2c0d5c2c4d929f4a2f8f8c997ca0162d]
class CMF--><rect codeLine="4" fill="#FFFFFF" height="42.5938" id="CMF" style="stroke:#A80036;stroke-width:1.5;" width="266" x="7" y="7"/><text fill="#000000" font-family="sans-serif" font-size="14" font-style="italic" lengthAdjust="spacing" textLength="58" x="111" y="24.9951">«React»</text><text fill="#000000" font-family="sans-serif" font-size="14" font-weight="bold" lengthAdjust="spacing" textLength="260" x="10" y="41.292">Customer Management Frontend</text><!--MD5=[a50de965cee2169ff3f21c7468f89483]
class CCB--><rect codeLine="5" fill="#FFFFFF" height="42.5938" id="CCB" style="stroke:#A80036;stroke-width:1.5;" width="255" x="314.5" y="190"/><text fill="#000000" font-family="sans-serif" font-size="14" font-style="italic" lengthAdjust="spacing" textLength="99" x="392.5" y="207.9951">«Spring Boot»</text><text fill="#000000" font-family="sans-serif" font-size="14" font-weight="bold" lengthAdjust="spacing" textLength="249" x="317.5" y="224.292">Customer Self-Service Backend</text><!--MD5=[2af383ea664cbbe0e7bf9fa8db3cd5e8]
class CCF--><rect codeLine="6" fill="#FFFFFF" height="42.5938" id="CCF" style="stroke:#A80036;stroke-width:1.5;" width="260" x="351" y="7"/><text fill="#000000" font-family="sans-serif" font-size="14" font-style="italic" lengthAdjust="spacing" textLength="58" x="452" y="24.9951">«React»</text><text fill="#000000" font-family="sans-serif" font-size="14" font-weight="bold" lengthAdjust="spacing" textLength="254" x="354" y="41.292">Customer Self-Service Frontend</text><!--MD5=[1365c867641375691971a7675d8ac25f]
class PMB--><rect codeLine="7" fill="#FFFFFF" height="42.5938" id="PMB" style="stroke:#A80036;stroke-width:1.5;" width="230" x="670" y="190"/><text fill="#000000" font-family="sans-serif" font-size="14" font-style="italic" lengthAdjust="spacing" textLength="99" x="735.5" y="207.9951">«Spring Boot»</text><text fill="#000000" font-family="sans-serif" font-size="14" font-weight="bold" lengthAdjust="spacing" textLength="224" x="673" y="224.292">Policy Management Backend</text><!--MD5=[0f2dfe727bd5b8b4d34b2803d51c623a]
class PMF--><rect codeLine="8" fill="#FFFFFF" height="42.5938" id="PMF" style="stroke:#A80036;stroke-width:1.5;" width="235" x="667.5" y="7"/><text fill="#000000" font-family="sans-serif" font-size="14" font-style="italic" lengthAdjust="spacing" textLength="60" x="755" y="24.9951">«Vue.js»</text><text fill="#000000" font-family="sans-serif" font-size="14" font-weight="bold" lengthAdjust="spacing" textLength="229" x="670.5" y="41.292">Policy Management Frontend</text><!--MD5=[fd12daa3a64de61a09fa6a458a4ab225]
class RMS--><rect codeLine="9" fill="#FFFFFF" height="42.5938" id="RMS" style="stroke:#A80036;stroke-width:1.5;" width="202" x="1001" y="190"/><text fill="#000000" font-family="sans-serif" font-size="14" font-style="italic" lengthAdjust="spacing" textLength="70" x="1067" y="207.9951">«Node.js»</text><text fill="#000000" font-family="sans-serif" font-size="14" font-weight="bold" lengthAdjust="spacing" textLength="196" x="1004" y="224.292">Risk Management Server</text><!--MD5=[a4ff842f27ee66e3f22b4fec667e9a49]
class RMC--><rect codeLine="10" fill="#FFFFFF" height="42.5938" id="RMC" style="stroke:#A80036;stroke-width:1.5;" width="194" x="1005" y="7"/><text fill="#000000" font-family="sans-serif" font-size="14" font-style="italic" lengthAdjust="spacing" textLength="70" x="1067" y="24.9951">«Node.js»</text><text fill="#000000" font-family="sans-serif" font-size="14" font-weight="bold" lengthAdjust="spacing" textLength="188" x="1008" y="41.292">Risk Management Client</text><!--MD5=[dde38052db3e5eacf0c8e0dd96ed1c1b]
class SBA--><rect codeLine="11" fill="#FFFFFF" height="42.5938" id="SBA" style="stroke:#A80036;stroke-width:1.5;" width="152" x="468" y="373"/><text fill="#000000" font-family="sans-serif" font-size="14" font-style="italic" lengthAdjust="spacing" textLength="99" x="494.5" y="390.9951">«Spring Boot»</text><text fill="#000000" font-family="sans-serif" font-size="14" font-weight="bold" lengthAdjust="spacing" textLength="146" x="471" y="407.292">Spring Boot Admin</text><!--MD5=[e118123fbca6e9c49541e60aa45bc88f]
link PMB to CC--><path codeLine="13" d="M736.94,233.03 C688.64,253.53 611.95,285.67 545,312 C492.18,332.77 431.69,355.18 387.68,371.23 " fill="none" id="PMB-to-CC" style="stroke:#A80036;stroke-width:1.0;"/><polygon fill="#A80036" points="382.94,372.96,392.7639,373.6603,387.6419,371.2593,390.0428,366.1373,382.94,372.96" style="stroke:#A80036;stroke-width:1.0;"/><text fill="#000000" font-family="sans-serif" font-size="14" lengthAdjust="spacing" textLength="37" x="590" y="307.9951">HTTP</text><!--MD5=[074b9ec6b0749ec3f540c6b0f95cebc9]
link CCB to CC--><path codeLine="14" d="M411.87,233.07 C392.37,247.87 367.93,269.49 353,294 C339.18,316.69 332.31,346.51 328.97,367.57 " fill="none" id="CCB-to-CC" style="stroke:#A80036;stroke-width:1.0;"/><polygon fill="#A80036" points="328.2,372.73,333.4932,364.4244,328.9431,367.7855,325.582,363.2355,328.2,372.73" style="stroke:#A80036;stroke-width:1.0;"/><text fill="#000000" font-family="sans-serif" font-size="14" lengthAdjust="spacing" textLength="37" x="354" y="307.9951">HTTP</text><!--MD5=[f163beb73b85ebdd5588b7447324c80f]
link CMB to CC--><path codeLine="15" d="M169.3,233.26 C202.25,266.95 267.18,333.35 302.22,369.19 " fill="none" id="CMB-to-CC" style="stroke:#A80036;stroke-width:1.0;"/><polygon fill="#A80036" points="305.93,372.98,302.4875,363.7524,302.4304,369.4089,296.7738,369.3518,305.93,372.98" style="stroke:#A80036;stroke-width:1.0;"/><text fill="#000000" font-family="sans-serif" font-size="14" lengthAdjust="spacing" textLength="37" x="246" y="307.9951">HTTP</text><!--MD5=[e0836b3bb309b6f2671f22bebe754ab4]
link CMF to CMB--><path codeLine="16" d="M141.03,50.26 C142.69,83.54 145.93,148.74 147.73,184.87 " fill="none" id="CMF-to-CMB" style="stroke:#A80036;stroke-width:1.0;"/><polygon fill="#A80036" points="147.98,189.98,151.5387,180.7965,147.7374,184.9859,143.5481,181.1847,147.98,189.98" style="stroke:#A80036;stroke-width:1.0;"/><text fill="#000000" font-family="sans-serif" font-size="14" lengthAdjust="spacing" textLength="136" x="146" y="124.9951">HTTP + WebSocket</text><!--MD5=[0973a78413ed45e8437739186e35ecdf]
link CMF to CCF--><!--MD5=[415b92da9f542b741ea84a2226da1d2d]
link CMB to CCB--><!--MD5=[33bb1a11465a2cfeceff6e65a09ebeb2]
link CCF to CMB--><path codeLine="19" d="M441.02,50.13 C409.62,66.43 364.86,89.87 326,111 C279.02,136.55 225.57,166.75 189.81,187.13 " fill="none" id="CCF-to-CMB" style="stroke:#A80036;stroke-width:1.0;"/><polygon fill="#A80036" points="185.11,189.81,194.9094,188.8246,189.453,187.3324,190.9452,181.8759,185.11,189.81" style="stroke:#A80036;stroke-width:1.0;"/><text fill="#000000" font-family="sans-serif" font-size="14" lengthAdjust="spacing" textLength="136" x="327" y="124.9951">HTTP + WebSocket</text><!--MD5=[452bbfab3fa41a10ed1ef4fac92ab177]
link CCF to CCB--><path codeLine="20" d="M480.7,50.33 C480.04,70.63 478.02,102.26 472,129 C467.65,148.33 459.86,169.29 453.31,185.11 " fill="none" id="CCF-to-CCB" style="stroke:#A80036;stroke-width:1.0;"/><polygon fill="#A80036" points="451.32,189.85,458.4991,183.1075,453.2603,185.2418,451.126,180.0031,451.32,189.85" style="stroke:#A80036;stroke-width:1.0;"/><text fill="#000000" font-family="sans-serif" font-size="14" lengthAdjust="spacing" textLength="37" x="477" y="124.9951">HTTP</text><!--MD5=[a8fd38c235f06acf2f7c17b2468af412]
link CCF to PMB--><path codeLine="21" d="M515.58,50.09 C572.6,84.04 686.02,151.57 745.89,187.21 " fill="none" id="CCF-to-PMB" style="stroke:#A80036;stroke-width:1.0;"/><polygon fill="#A80036" points="750.46,189.93,744.769,181.8918,746.1625,187.3743,740.68,188.7678,750.46,189.93" style="stroke:#A80036;stroke-width:1.0;"/><text fill="#000000" font-family="sans-serif" font-size="14" lengthAdjust="spacing" textLength="37" x="647" y="124.9951">HTTP</text><!--MD5=[acab13ba5422b6c4a578b2a7ec65af0b]
link PMF to PMB--><path codeLine="22" d="M785,50.26 C785,83.54 785,148.74 785,184.87 " fill="none" id="PMF-to-PMB" style="stroke:#A80036;stroke-width:1.0;"/><polygon fill="#A80036" points="785,189.98,789,180.98,785,184.98,781,180.98,785,189.98" style="stroke:#A80036;stroke-width:1.0;"/><text fill="#000000" font-family="sans-serif" font-size="14" lengthAdjust="spacing" textLength="37" x="786" y="124.9951">HTTP</text><!--MD5=[0696c41910ea9be22ade9a0cd1adef65]
link RMC to RMS--><path codeLine="23" d="M1102,50.26 C1102,83.54 1102,148.74 1102,184.87 " fill="none" id="RMC-to-RMS" style="stroke:#A80036;stroke-width:1.0;"/><polygon fill="#A80036" points="1102,189.98,1106,180.98,1102,184.98,1098,180.98,1102,189.98" style="stroke:#A80036;stroke-width:1.0;"/><text fill="#000000" font-family="sans-serif" font-size="14" lengthAdjust="spacing" textLength="38" x="1103" y="124.9951">gRPC</text><!--MD5=[a1a7d99663b0f0ef921c75d90faadee9]
link PMB to RMS--><path codeLine="24" d="M900.34,211.5 C931.47,211.5 965,211.5 995.61,211.5 " fill="none" id="PMB-to-RMS" style="stroke:#A80036;stroke-width:1.0;"/><polygon fill="#A80036" points="1000.89,211.5,991.89,207.5,995.89,211.5,991.89,215.5,1000.89,211.5" style="stroke:#A80036;stroke-width:1.0;"/><text fill="#000000" font-family="sans-serif" font-size="14" lengthAdjust="spacing" textLength="64" x="918.5" y="204.4951">ActiveMQ</text><!--MD5=[2217d46d77c10a0ca240d93f28f3c8a8]
link CCB to PMB--><path codeLine="25" d="M574.74,211.5 C604.42,211.5 635.73,211.5 664.87,211.5 " fill="none" id="CCB-PMB" style="stroke:#A80036;stroke-width:1.0;"/><polygon fill="#A80036" points="669.9,211.5,660.9,207.5,664.9,211.5,660.9,215.5,669.9,211.5" style="stroke:#A80036;stroke-width:1.0;"/><polygon fill="#A80036" points="569.72,211.5,578.72,215.5,574.72,211.5,578.72,207.5,569.72,211.5" style="stroke:#A80036;stroke-width:1.0;"/><text fill="#000000" font-family="sans-serif" font-size="14" lengthAdjust="spacing" textLength="64" x="587.75" y="204.4951">ActiveMQ</text><!--MD5=[f1a083ca0c33c73ac0491ccada2e38b3]
reverse link CMB to SBA--><path codeLine="26" d="M234.56,234.47 C283.17,248.48 344.44,268.76 396,294 C441.6,316.33 489.52,350.88 518.06,372.84 " fill="none" id="CMB-backto-SBA" style="stroke:#A80036;stroke-width:1.0;"/><polygon fill="#A80036" points="229.6,233.05,237.1548,239.3686,234.4076,234.4236,239.3526,231.6764,229.6,233.05" style="stroke:#A80036;stroke-width:1.0;"/><text fill="#000000" font-family="sans-serif" font-size="14" lengthAdjust="spacing" textLength="37" x="428" y="307.9951">HTTP</text><!--MD5=[f65bb010d881854a795cd9e21b6c90e7]
reverse link CCB to SBA--><path codeLine="27" d="M456.34,237.95 C476.73,274.13 513.69,339.72 532.44,372.98 " fill="none" id="CCB-backto-SBA" style="stroke:#A80036;stroke-width:1.0;"/><polygon fill="#A80036" points="453.7,233.26,454.6367,243.0642,456.1561,237.6152,461.6051,239.1345,453.7,233.26" style="stroke:#A80036;stroke-width:1.0;"/><text fill="#000000" font-family="sans-serif" font-size="14" lengthAdjust="spacing" textLength="37" x="499" y="307.9951">HTTP</text><!--MD5=[ca957371905dea50d659d094c5392d4d]
reverse link PMB to SBA--><path codeLine="28" d="M772.72,237.73 C757.26,267 728.06,314.83 690,343 C669.52,358.16 644.14,369.02 620.31,376.69 " fill="none" id="PMB-backto-SBA" style="stroke:#A80036;stroke-width:1.0;"/><polygon fill="#A80036" points="775.08,233.2,767.3665,239.3239,772.7642,237.6314,774.4567,243.0291,775.08,233.2" style="stroke:#A80036;stroke-width:1.0;"/><text fill="#000000" font-family="sans-serif" font-size="14" lengthAdjust="spacing" textLength="37" x="739" y="307.9951">HTTP</text><!--MD5=[91427a7d42001157d3cdc33757c93aff]
@startuml

skinparam defaultFontName sans-serif
skinparam ClassBackgroundColor White
hide empty members
hide circle
skinparam defaultFontSize 14
skinparam classfontstyle bold
skinparam shadowing false
skinparam backgroundColor #f3f6f6

class "Customer Core" as CC <<Spring Boot>>
class "Customer Management Backend" as CMB <<Spring Boot>>
class "Customer Management Frontend" as CMF <<React>>
class "Customer Self-Service Backend" as CCB <<Spring Boot>>
class "Customer Self-Service Frontend" as CCF <<React>>
class "Policy Management Backend" as PMB <<Spring Boot>>
class "Policy Management Frontend" as PMF <<Vue.js>>
class "Risk Management Server" as RMS <<Node.js>>
class "Risk Management Client" as RMC <<Node.js>>
class "Spring Boot Admin" as SBA <<Spring Boot>>

PMB -down- -> CC : HTTP
CCB -down- -> CC : HTTP
CMB -down- -> CC : HTTP
CMF -down- -> CMB : HTTP + WebSocket
CMF -[hidden]> CCF
CMB -[hidden]> CCB
CCF -down- -> CMB : HTTP + WebSocket
CCF -down- -> CCB : HTTP
CCF -down- -> PMB : HTTP
PMF -down- -> PMB : HTTP
RMC -down- -> RMS : gRPC  
PMB -right- -> RMS : ActiveMQ
CCB <- -right- -> PMB : ActiveMQ
SBA -up- -> CMB : HTTP
SBA -up- -> CCB : HTTP
SBA -up- -> PMB : HTTP
@enduml

PlantUML version 1.2021.14(Fri Nov 12 16:46:50 GMT 2021)
(GPL source distribution)
Java Runtime: OpenJDK Runtime Environment
JVM: OpenJDK 64-Bit Server VM
Default Encoding: UTF-8
Language: en
Country: US
--></g></svg>