<?xml version="1.0" encoding="UTF-8" standalone="no"?><svg xmlns="http://www.w3.org/2000/svg" xmlns:xlink="http://www.w3.org/1999/xlink" contentScriptType="application/ecmascript" contentStyleType="text/css" height="542px" preserveAspectRatio="none" style="width:1267px;height:542px;background:#F3F6F6;" version="1.1" viewBox="0 0 1267 542" width="1267px" zoomAndPan="magnify"><defs/><g><!--MD5=[68767c78be08caa96780c014af9fbeaa]
class API--><rect codeLine="2" fill="#FFFFFF" height="26.2969" id="API" style="stroke:#A80036;stroke-width:1.5;" width="31" x="607.5" y="22.5"/><text fill="#000000" font-family="sans-serif" font-size="14" font-weight="bold" lengthAdjust="spacing" textLength="25" x="610.5" y="40.4951">API</text><path d="M350,6 L350,64.8906 A0,0 0 0 0 350,64.8906 L572,64.8906 A0,0 0 0 0 572,64.8906 L572,39.5 L607.48,35.5 L572,31.5 L572,16 L562,6 L350,6 A0,0 0 0 0 350,6 " fill="#FBFB77" style="stroke:#A80036;stroke-width:1.0;"/><path d="M562,6 L562,16 L572,16 L562,6 " fill="#FBFB77" style="stroke:#A80036;stroke-width:1.0;"/><text fill="#000000" font-family="sans-serif" font-size="14" font-weight="bold" lengthAdjust="spacing" textLength="136" x="356" y="23.9951">API Refactorings:</text><text fill="#000000" font-family="sans-serif" font-size="14" lengthAdjust="spacing" textLength="193" x="360" y="40.292">• Tighten Evolution Strategy</text><text fill="#000000" font-family="sans-serif" font-size="14" lengthAdjust="spacing" textLength="177" x="360" y="56.5889">• Relax Evolution Strategy</text><!--MD5=[4fd3bb6c1d79f4919f90c95b62a35422]
class Endpoint--><rect codeLine="6" fill="#FFFFFF" height="66.8906" id="Endpoint" style="stroke:#A80036;stroke-width:1.5;" width="127" x="559.5" y="129"/><text fill="#000000" font-family="sans-serif" font-size="14" font-weight="bold" lengthAdjust="spacing" textLength="69" x="588.5" y="146.9951">Endpoint</text><line style="stroke:#A80036;stroke-width:1.5;" x1="560.5" x2="685.5" y1="155.2969" y2="155.2969"/><text fill="#000000" font-family="sans-serif" font-size="14" lengthAdjust="spacing" textLength="115" x="565.5" y="172.292">Address location</text><text fill="#000000" font-family="sans-serif" font-size="14" lengthAdjust="spacing" textLength="101" x="565.5" y="188.5889">APIPattern role</text><path d="M241.5,125 L241.5,200.1875 A0,0 0 0 0 241.5,200.1875 L524.5,200.1875 A0,0 0 0 0 524.5,200.1875 L524.5,166.5 L559.17,162.5 L524.5,158.5 L524.5,135 L514.5,125 L241.5,125 A0,0 0 0 0 241.5,125 " fill="#FBFB77" style="stroke:#A80036;stroke-width:1.0;"/><path d="M514.5,125 L514.5,135 L524.5,135 L514.5,125 " fill="#FBFB77" style="stroke:#A80036;stroke-width:1.0;"/><text fill="#000000" font-family="sans-serif" font-size="14" font-weight="bold" lengthAdjust="spacing" textLength="180" x="247.5" y="142.9951">Endpoint Refactorings:</text><text fill="#000000" font-family="sans-serif" font-size="14" lengthAdjust="spacing" textLength="136" x="251.5" y="159.292">• Rename Endpoint</text><text fill="#000000" font-family="sans-serif" font-size="14" lengthAdjust="spacing" textLength="130" x="251.5" y="175.5889">• Merge Endpoints</text><text fill="#000000" font-family="sans-serif" font-size="14" lengthAdjust="spacing" textLength="8" x="251.5" y="191.8857">•</text><text fill="#000000" font-family="sans-serif" font-size="14" font-style="italic" lengthAdjust="spacing" textLength="246" x="263.5" y="191.8857">Segregate Commands from Queries</text><!--MD5=[119d254d3446821611096c5f81da6997]
class CommunicationParticipant--><rect codeLine="12" fill="#FFFFFF" height="26.2969" id="CommunicationParticipant" style="stroke:#A80036;stroke-width:1.5;" width="216" x="981" y="149.5"/><text fill="#000000" font-family="sans-serif" font-size="14" font-weight="bold" lengthAdjust="spacing" textLength="210" x="984" y="167.4951">Communication Participant</text><!--MD5=[ee77ee4f1cc99ffc3576c650e55b7824]
class API Client--><rect fill="#FFFFFF" height="26.2969" id="API Client" style="stroke:#A80036;stroke-width:1.5;" width="81" x="984.5" y="301"/><text fill="#000000" font-family="sans-serif" font-size="14" font-weight="bold" lengthAdjust="spacing" textLength="75" x="987.5" y="318.9951">API Client</text><!--MD5=[1fd6396914aeefd2df617803eed795d5]
class API Provider--><rect fill="#FFFFFF" height="26.2969" id="API Provider" style="stroke:#A80036;stroke-width:1.5;" width="103" x="1100.5" y="301"/><text fill="#000000" font-family="sans-serif" font-size="14" font-weight="bold" lengthAdjust="spacing" textLength="97" x="1103.5" y="318.9951">API Provider</text><path d="M722,133 L722,158.5 L686.88,162.5 L722,166.5 L722,191.8906 A0,0 0 0 0 722,191.8906 L946,191.8906 A0,0 0 0 0 946,191.8906 L946,143 L936,133 L722,133 A0,0 0 0 0 722,133 " fill="#FBFB77" style="stroke:#A80036;stroke-width:1.0;"/><path d="M936,133 L936,143 L946,143 L936,133 " fill="#FBFB77" style="stroke:#A80036;stroke-width:1.0;"/><text fill="#000000" font-family="sans-serif" font-size="14" font-weight="bold" lengthAdjust="spacing" textLength="183" x="728" y="150.9951">Evolution Refactorings:</text><text fill="#000000" font-family="sans-serif" font-size="14" lengthAdjust="spacing" textLength="197" x="732" y="167.292">• Introduce Version Identifier</text><text fill="#000000" font-family="sans-serif" font-size="14" lengthAdjust="spacing" textLength="8" x="732" y="183.5889">•</text><text fill="#000000" font-family="sans-serif" font-size="14" font-style="italic" lengthAdjust="spacing" textLength="187" x="744" y="183.5889">Introduce Version Mediator</text><!--MD5=[cca5d97aaf46870920fae66c9bd85cdd]
class Operation--><rect codeLine="22" fill="#FFFFFF" height="66.8906" id="Operation" style="stroke:#A80036;stroke-width:1.5;" width="177" x="534.5" y="280.5"/><text fill="#000000" font-family="sans-serif" font-size="14" font-weight="bold" lengthAdjust="spacing" textLength="78" x="584" y="298.4951">Operation</text><line style="stroke:#A80036;stroke-width:1.5;" x1="535.5" x2="710.5" y1="306.7969" y2="306.7969"/><text fill="#000000" font-family="sans-serif" font-size="14" lengthAdjust="spacing" textLength="83" x="540.5" y="323.792">String name</text><text fill="#000000" font-family="sans-serif" font-size="14" lengthAdjust="spacing" textLength="165" x="540.5" y="340.0889">APIPattern responsibility</text><path d="M289,260 L289,367.7813 A0,0 0 0 0 289,367.7813 L499,367.7813 A0,0 0 0 0 499,367.7813 L499,318 L534.44,314 L499,310 L499,270 L489,260 L289,260 A0,0 0 0 0 289,260 " fill="#FBFB77" style="stroke:#A80036;stroke-width:1.0;"/><path d="M489,260 L489,270 L499,270 L489,260 " fill="#FBFB77" style="stroke:#A80036;stroke-width:1.0;"/><text fill="#000000" font-family="sans-serif" font-size="14" font-weight="bold" lengthAdjust="spacing" textLength="189" x="295" y="277.9951">Operation Refactorings:</text><text fill="#000000" font-family="sans-serif" font-size="14" lengthAdjust="spacing" textLength="125" x="299" y="294.292">• Extract Endpoint</text><text fill="#000000" font-family="sans-serif" font-size="14" lengthAdjust="spacing" textLength="121" x="299" y="310.5889">• Move Operation</text><text fill="#000000" font-family="sans-serif" font-size="14" lengthAdjust="spacing" textLength="142" x="299" y="326.8857">• Rename Operation</text><text fill="#000000" font-family="sans-serif" font-size="14" lengthAdjust="spacing" textLength="8" x="299" y="343.1826">•</text><text fill="#000000" font-family="sans-serif" font-size="14" font-style="italic" lengthAdjust="spacing" textLength="101" x="311" y="343.1826">Split Operation</text><text fill="#000000" font-family="sans-serif" font-size="14" lengthAdjust="spacing" textLength="0" x="416" y="343.1826"/><text fill="#000000" font-family="sans-serif" font-size="14" lengthAdjust="spacing" textLength="8" x="299" y="359.4795">•</text><text fill="#000000" font-family="sans-serif" font-size="14" font-style="italic" lengthAdjust="spacing" textLength="123" x="311" y="359.4795">Merge Operations</text><!--MD5=[e93d480bc88e1c582484fbb697036f76]
class ResponseMessagePayload--><rect codeLine="30" fill="#FFFFFF" height="66.8906" id="ResponseMessagePayload" style="stroke:#A80036;stroke-width:1.5;" width="295" x="307.5" y="448.5"/><text fill="#000000" font-family="sans-serif" font-size="14" font-weight="bold" lengthAdjust="spacing" textLength="219" x="345.5" y="466.4951">Response Message Payload</text><line style="stroke:#A80036;stroke-width:1.5;" x1="308.5" x2="601.5" y1="474.7969" y2="474.7969"/><text fill="#000000" font-family="sans-serif" font-size="14" lengthAdjust="spacing" textLength="215" x="313.5" y="491.792">KeyValuePairs protocolHeaders</text><text fill="#000000" font-family="sans-serif" font-size="14" lengthAdjust="spacing" textLength="283" x="313.5" y="508.0889">RepresentationElements requestPayload</text><path d="M6,428 L6,535.7813 A0,0 0 0 0 6,535.7813 L272,535.7813 A0,0 0 0 0 272,535.7813 L272,486 L307.39,482 L272,478 L272,438 L262,428 L6,428 A0,0 0 0 0 6,428 " fill="#FBFB77" style="stroke:#A80036;stroke-width:1.0;"/><path d="M262,428 L262,438 L272,438 L262,428 " fill="#FBFB77" style="stroke:#A80036;stroke-width:1.0;"/><text fill="#000000" font-family="sans-serif" font-size="14" font-weight="bold" lengthAdjust="spacing" textLength="211" x="12" y="445.9951">Message Refactorings 1/2:</text><text fill="#000000" font-family="sans-serif" font-size="14" lengthAdjust="spacing" textLength="8" x="16" y="462.292">•</text><text fill="#000000" font-family="sans-serif" font-size="14" font-style="italic" lengthAdjust="spacing" textLength="212" x="28" y="462.292">Introduce Data Transfer Object</text><text fill="#000000" font-family="sans-serif" font-size="14" lengthAdjust="spacing" textLength="0" x="244" y="462.292"/><text fill="#000000" font-family="sans-serif" font-size="14" lengthAdjust="spacing" textLength="189" x="16" y="478.5889">• Extract Information Holder</text><text fill="#000000" font-family="sans-serif" font-size="14" lengthAdjust="spacing" textLength="178" x="16" y="494.8857">• Inline Information Holder</text><text fill="#000000" font-family="sans-serif" font-size="14" lengthAdjust="spacing" textLength="8" x="16" y="511.1826">•</text><text fill="#000000" font-family="sans-serif" font-size="14" font-style="italic" lengthAdjust="spacing" textLength="142" x="28" y="511.1826">Introduce Pagination</text><text fill="#000000" font-family="sans-serif" font-size="14" lengthAdjust="spacing" textLength="0" x="174" y="511.1826"/><text fill="#000000" font-family="sans-serif" font-size="14" lengthAdjust="spacing" textLength="8" x="16" y="527.4795">•</text><text fill="#000000" font-family="sans-serif" font-size="14" font-style="italic" lengthAdjust="spacing" textLength="229" x="28" y="527.4795">Rename Representation Element</text><!--MD5=[2266c51e2e890c8bcebcea740afba0fd]
class RequestMessagePayload--><rect codeLine="36" fill="#FFFFFF" height="66.8906" id="RequestMessagePayload" style="stroke:#A80036;stroke-width:1.5;" width="307" x="637.5" y="448.5"/><text fill="#000000" font-family="sans-serif" font-size="14" font-weight="bold" lengthAdjust="spacing" textLength="206" x="688" y="466.4951">Request Message Payload</text><line style="stroke:#A80036;stroke-width:1.5;" x1="638.5" x2="943.5" y1="474.7969" y2="474.7969"/><text fill="#000000" font-family="sans-serif" font-size="14" lengthAdjust="spacing" textLength="215" x="643.5" y="491.792">KeyValuePairs protocolHeaders</text><text fill="#000000" font-family="sans-serif" font-size="14" lengthAdjust="spacing" textLength="295" x="643.5" y="508.0889">RepresentationElements responsePayload</text><path d="M979.5,428 L979.5,478 L944.58,482 L979.5,486 L979.5,535.7813 A0,0 0 0 0 979.5,535.7813 L1260.5,535.7813 A0,0 0 0 0 1260.5,535.7813 L1260.5,438 L1250.5,428 L979.5,428 A0,0 0 0 0 979.5,428 " fill="#FBFB77" style="stroke:#A80036;stroke-width:1.0;"/><path d="M1250.5,428 L1250.5,438 L1260.5,438 L1250.5,428 " fill="#FBFB77" style="stroke:#A80036;stroke-width:1.0;"/><text fill="#000000" font-family="sans-serif" font-size="14" font-weight="bold" lengthAdjust="spacing" textLength="211" x="985.5" y="445.9951">Message Refactorings 2/2:</text><text fill="#000000" font-family="sans-serif" font-size="14" lengthAdjust="spacing" textLength="8" x="989.5" y="462.292">•</text><text fill="#000000" font-family="sans-serif" font-size="14" font-style="italic" lengthAdjust="spacing" textLength="92" x="1001.5" y="462.292">Add Wish List</text><text fill="#000000" font-family="sans-serif" font-size="14" lengthAdjust="spacing" textLength="0" x="1097.5" y="462.292"/><text fill="#000000" font-family="sans-serif" font-size="14" lengthAdjust="spacing" textLength="145" x="989.5" y="478.5889">• Add Wish Template</text><text fill="#000000" font-family="sans-serif" font-size="14" lengthAdjust="spacing" textLength="132" x="989.5" y="494.8857">• Bundle Requests</text><text fill="#000000" font-family="sans-serif" font-size="14" lengthAdjust="spacing" textLength="193" x="989.5" y="511.1826">• Make Request Conditional</text><text fill="#000000" font-family="sans-serif" font-size="14" lengthAdjust="spacing" textLength="256" x="989.5" y="527.4795">• Externalize Context Representation</text><!--MD5=[028a0e69489f0a634a6b8b99cb80bf4e]
reverse link Endpoint to CommunicationParticipant--><path codeLine="15" d="M664.52,125.85 C681.08,113.54 701.05,101.33 721.5,95 C816.6,65.54 848.34,73.29 945.5,95 C992.25,105.45 1041.74,132.88 1068.65,149.38 " fill="none" id="Endpoint-backto-CommunicationParticipant" style="stroke:#A80036;stroke-width:1.0;"/><polygon fill="#A80036" points="660.38,128.98,669.9711,126.7416,664.368,125.964,665.1455,120.3609,660.38,128.98" style="stroke:#A80036;stroke-width:1.0;"/><!--MD5=[c7b0b263aec35e52a440834c71b80f86]
reverse link CommunicationParticipant to API Client--><path codeLine="17" d="M1075.81,194.31 C1061.76,227.13 1040.21,277.47 1030.31,300.6 " fill="none" id="CommunicationParticipant-backto-API Client" style="stroke:#A80036;stroke-width:1.0;"/><polygon fill="none" points="1069.46,191.37,1083.76,175.73,1082.33,196.88,1069.46,191.37" style="stroke:#A80036;stroke-width:1.0;"/><!--MD5=[373c089a3607931118fb49bd1c978f15]
reverse link CommunicationParticipant to API Provider--><path codeLine="18" d="M1101.98,194.31 C1115.81,227.13 1137.03,277.47 1146.77,300.6 " fill="none" id="CommunicationParticipant-backto-API Provider" style="stroke:#A80036;stroke-width:1.0;"/><polygon fill="none" points="1095.47,196.88,1094.16,175.73,1108.37,191.45,1095.47,196.88" style="stroke:#A80036;stroke-width:1.0;"/><!--MD5=[0b0864a2bf5314f9d070ebd08a1e0c29]
reverse link API to Endpoint--><path codeLine="42" d="M623,62.06 C623,81.36 623,108.01 623,128.85 " fill="none" id="API-backto-Endpoint" style="stroke:#A80036;stroke-width:1.0;"/><polygon fill="#A80036" points="623,48.94,619,54.94,623,60.94,627,54.94,623,48.94" style="stroke:#A80036;stroke-width:1.0;"/><!--MD5=[60da6c4a67454334c72f872775e73766]
reverse link Endpoint to Operation--><path codeLine="43" d="M623,209.56 C623,232.44 623,259.54 623,280.27 " fill="none" id="Endpoint-backto-Operation" style="stroke:#A80036;stroke-width:1.0;"/><polygon fill="#A80036" points="623,196.31,619,202.31,623,208.31,627,202.31,623,196.31" style="stroke:#A80036;stroke-width:1.0;"/><!--MD5=[e944a18fce392a08bc691f299d3dab8b]
reverse link Operation to RequestMessagePayload--><path codeLine="44" d="M665.55,357.04 C694.2,385.35 731.43,422.14 757.88,448.27 " fill="none" id="Operation-backto-RequestMessagePayload" style="stroke:#A80036;stroke-width:1.0;"/><polygon fill="#A80036" points="656.19,347.8,657.6427,354.8633,664.7213,356.239,663.2687,349.1757,656.19,347.8" style="stroke:#A80036;stroke-width:1.0;"/><!--MD5=[86135add3d6fd75ff6dc2a8efd99e1cf]
reverse link Operation to ResponseMessagePayload--><path codeLine="45" d="M580.45,357.04 C551.8,385.35 514.57,422.14 488.12,448.27 " fill="none" id="Operation-backto-ResponseMessagePayload" style="stroke:#A80036;stroke-width:1.0;"/><polygon fill="#A80036" points="589.81,347.8,582.7313,349.1757,581.2787,356.239,588.3573,354.8633,589.81,347.8" style="stroke:#A80036;stroke-width:1.0;"/><!--MD5=[7eced41abf523d4f87b75df5dd930856]
@startuml

skinparam defaultFontName sans-serif
skinparam ClassBackgroundColor White
hide empty members
hide circle
skinparam defaultFontSize 14
skinparam classfontstyle bold
skinparam shadowing false
skinparam backgroundColor #f3f6f6

class API {
}
note left: <b>API Refactorings:</b>\n • Tighten Evolution Strategy \n • Relax Evolution Strategy

class Endpoint {
 Address location
 APIPattern role
}
note left: <b>Endpoint Refactorings:</b>\n • Rename Endpoint \n • Merge Endpoints \n • <i>Segregate Commands from Queries</i>

class "Communication Participant" as CommunicationParticipant {
}

CommunicationParticipant -left-> Endpoint

"API Client" -up-|> CommunicationParticipant
"API Provider" -up-|> CommunicationParticipant

note "<b>Evolution Refactorings:</b>\n • Introduce Version Identifier\n • <i>Introduce Version Mediator</i>" as EvolutionRefactoringNote

class Operation {
 String name
 APIPattern responsibility
}
note left: <b>Operation Refactorings:</b>\n • Extract Endpoint \n • Move Operation \n • Rename Operation \n • <i>Split Operation</i> \n • <i>Merge Operations</i> 

EvolutionRefactoringNote -left- Endpoint

class "Response Message Payload" as ResponseMessagePayload {
  KeyValuePairs protocolHeaders
  RepresentationElements requestPayload
}
note left: <b>Message Refactorings 1/2:</b>\n • <i>Introduce Data Transfer Object</i> \n • Extract Information Holder \n • Inline Information Holder \n • <i>Introduce Pagination</i> \n • <i>Rename Representation Element</i>

class "Request Message Payload" as RequestMessagePayload {
  KeyValuePairs protocolHeaders
  RepresentationElements responsePayload
}
note right: <b>Message Refactorings 2/2:</b>\n • <i>Add Wish List</i> \n • Add Wish Template \n • Bundle Requests \n • Make Request Conditional \n • Externalize Context Representation

API *- - Endpoint
Endpoint *- - Operation 
Operation *- - RequestMessagePayload 
Operation *- - ResponseMessagePayload
' RequestMessage *- - InParameters
' ResponseMessage*- - OutParameters

@enduml

@startuml

skinparam defaultFontName sans-serif
skinparam ClassBackgroundColor White
hide empty members
hide circle
skinparam defaultFontSize 14
skinparam classfontstyle bold
skinparam shadowing false
skinparam backgroundColor #f3f6f6

class API {
}
note left: <b>API Refactorings:</b>\n • Tighten Evolution Strategy \n • Relax Evolution Strategy

class Endpoint {
 Address location
 APIPattern role
}
note left: <b>Endpoint Refactorings:</b>\n • Rename Endpoint \n • Merge Endpoints \n • <i>Segregate Commands from Queries</i>

class "Communication Participant" as CommunicationParticipant {
}

CommunicationParticipant -left-> Endpoint

"API Client" -up-|> CommunicationParticipant
"API Provider" -up-|> CommunicationParticipant

note "<b>Evolution Refactorings:</b>\n • Introduce Version Identifier\n • <i>Introduce Version Mediator</i>" as EvolutionRefactoringNote

class Operation {
 String name
 APIPattern responsibility
}
note left: <b>Operation Refactorings:</b>\n • Extract Endpoint \n • Move Operation \n • Rename Operation \n • <i>Split Operation</i> \n • <i>Merge Operations</i> 

EvolutionRefactoringNote -left- Endpoint

class "Response Message Payload" as ResponseMessagePayload {
  KeyValuePairs protocolHeaders
  RepresentationElements requestPayload
}
note left: <b>Message Refactorings 1/2:</b>\n • <i>Introduce Data Transfer Object</i> \n • Extract Information Holder \n • Inline Information Holder \n • <i>Introduce Pagination</i> \n • <i>Rename Representation Element</i>

class "Request Message Payload" as RequestMessagePayload {
  KeyValuePairs protocolHeaders
  RepresentationElements responsePayload
}
note right: <b>Message Refactorings 2/2:</b>\n • <i>Add Wish List</i> \n • Add Wish Template \n • Bundle Requests \n • Make Request Conditional \n • Externalize Context Representation

API *- - Endpoint
Endpoint *- - Operation 
Operation *- - RequestMessagePayload 
Operation *- - ResponseMessagePayload

@enduml

PlantUML version 1.2021.14(Fri Nov 12 16:46:50 GMT 2021)
(GPL source distribution)
Java Runtime: OpenJDK Runtime Environment
JVM: OpenJDK 64-Bit Server VM
Default Encoding: UTF-8
Language: en
Country: US
--></g></svg>