<?xml version="1.0" encoding="UTF-8" standalone="no"?><svg xmlns="http://www.w3.org/2000/svg" xmlns:xlink="http://www.w3.org/1999/xlink" contentScriptType="application/ecmascript" contentStyleType="text/css" height="682px" preserveAspectRatio="none" style="width:411px;height:682px;" version="1.1" viewBox="0 0 411 682" width="411px" zoomAndPan="magnify"><defs><filter height="300%" id="f47u3kehk4a9o" width="300%" x="-1" y="-1"><feGaussianBlur result="blurOut" stdDeviation="2.0"/><feColorMatrix in="blurOut" result="blurOut2" type="matrix" values="0 0 0 0 0 0 0 0 0 0 0 0 0 0 0 0 0 0 .4 0"/><feOffset dx="4.0" dy="4.0" in="blurOut2" result="blurOut3"/><feBlend in="SourceGraphic" in2="blurOut3" mode="normal"/></filter></defs><g><!--MD5=[4809e00bb9a025f21ca4471bf841174a]
cluster 'PublicationEndpoint' Aggregate--><rect fill="#FFFFFF" filter="url(#f47u3kehk4a9o)" height="663" style="stroke:#000000;stroke-width:1.5;" width="392" x="7" y="7"/><text fill="#000000" font-family="sans-serif" font-size="14" font-weight="bold" lengthAdjust="spacing" textLength="222" x="92" y="23.5332">'PublicationEndpoint' Aggregate</text><!--MD5=[fd31816d3b08c53072fad4d9de776098]
class PublicationArchive--><rect codeLine="5" fill="#FEFECE" filter="url(#f47u3kehk4a9o)" height="70.0234" id="PublicationArchive" style="stroke:#A80036;stroke-width:1.5;" width="211" x="23.5" y="246"/><ellipse cx="73.75" cy="266.0938" fill="#8FBC8F" rx="11" ry="11" style="stroke:#A80036;stroke-width:1.0;"/><path d="M72.6094,266.8906 L72.6094,269.3906 L76.9375,269.3906 L76.9375,268.4688 Q76.9375,267.8594 77.1719,267.5938 Q77.4219,267.3281 77.7969,267.3281 Q78.1719,267.3281 78.4063,267.5938 Q78.6406,267.8594 78.6406,268.4688 L78.6406,271.0938 L70.6406,271.0938 Q70.0156,271.0938 69.75,270.8594 Q69.5,270.625 69.5,270.2344 Q69.5,269.8594 69.7656,269.625 Q70.0313,269.3906 70.6406,269.3906 L70.9063,269.3906 L70.9063,262.7344 L70.6406,262.7344 Q70.0156,262.7344 69.75,262.5 Q69.5,262.2656 69.5,261.875 Q69.5,261.5 69.75,261.2656 Q70.0156,261.0313 70.6406,261.0313 L78.2656,261.0313 L78.2656,263.625 Q78.2656,264.2344 78.0313,264.5 Q77.8125,264.75 77.4219,264.75 Q77.0469,264.75 76.8125,264.5 Q76.5781,264.2344 76.5781,263.625 L76.5781,262.7344 L72.6094,262.7344 L72.6094,265.1875 L74.0938,265.1875 Q74.0938,264.5313 74.2188,264.3438 Q74.4844,263.9375 74.9531,263.9375 Q75.3281,263.9375 75.5625,264.2031 Q75.7969,264.4531 75.7969,265.0625 L75.7969,267.0313 Q75.7969,267.5781 75.6719,267.7656 Q75.4063,268.1563 74.9531,268.1563 Q74.4844,268.1563 74.2188,267.75 Q74.0938,267.5625 74.0938,266.8906 L72.6094,266.8906 Z " fill="#000000"/><text fill="#000000" font-family="sans-serif" font-size="12" font-style="italic" lengthAdjust="spacing" textLength="44" x="123.25" y="263.457">«Entity»</text><text fill="#000000" font-family="sans-serif" font-size="12" lengthAdjust="spacing" textLength="102" x="94.25" y="278.5508">PublicationArchive</text><line style="stroke:#A80036;stroke-width:1.5;" x1="24.5" x2="233.5" y1="286.1875" y2="286.1875"/><text fill="#000000" font-family="sans-serif" font-size="11" lengthAdjust="spacing" textLength="199" x="29.5" y="301.6064">List&lt;PublicationEntryDTO&gt; paperitemList</text><line style="stroke:#A80036;stroke-width:1.5;" x1="24.5" x2="233.5" y1="308.0234" y2="308.0234"/><!--MD5=[37e308c654c87ebce488e51b0c1aa8ad]
class PublicationEntryDTO--><rect codeLine="8" fill="#FEFECE" filter="url(#f47u3kehk4a9o)" height="111.5313" id="PublicationEntryDTO" style="stroke:#A80036;stroke-width:1.5;" width="146" x="178" y="394"/><ellipse cx="193" cy="414.0938" fill="#8FBC8F" rx="11" ry="11" style="stroke:#A80036;stroke-width:1.0;"/><path d="M191.8594,414.8906 L191.8594,417.3906 L196.1875,417.3906 L196.1875,416.4688 Q196.1875,415.8594 196.4219,415.5938 Q196.6719,415.3281 197.0469,415.3281 Q197.4219,415.3281 197.6563,415.5938 Q197.8906,415.8594 197.8906,416.4688 L197.8906,419.0938 L189.8906,419.0938 Q189.2656,419.0938 189,418.8594 Q188.75,418.625 188.75,418.2344 Q188.75,417.8594 189.0156,417.625 Q189.2813,417.3906 189.8906,417.3906 L190.1563,417.3906 L190.1563,410.7344 L189.8906,410.7344 Q189.2656,410.7344 189,410.5 Q188.75,410.2656 188.75,409.875 Q188.75,409.5 189,409.2656 Q189.2656,409.0313 189.8906,409.0313 L197.5156,409.0313 L197.5156,411.625 Q197.5156,412.2344 197.2813,412.5 Q197.0625,412.75 196.6719,412.75 Q196.2969,412.75 196.0625,412.5 Q195.8281,412.2344 195.8281,411.625 L195.8281,410.7344 L191.8594,410.7344 L191.8594,413.1875 L193.3438,413.1875 Q193.3438,412.5313 193.4688,412.3438 Q193.7344,411.9375 194.2031,411.9375 Q194.5781,411.9375 194.8125,412.2031 Q195.0469,412.4531 195.0469,413.0625 L195.0469,415.0313 Q195.0469,415.5781 194.9219,415.7656 Q194.6563,416.1563 194.2031,416.1563 Q193.7344,416.1563 193.4688,415.75 Q193.3438,415.5625 193.3438,414.8906 L191.8594,414.8906 Z " fill="#000000"/><text fill="#000000" font-family="sans-serif" font-size="12" font-style="italic" lengthAdjust="spacing" textLength="44" x="242" y="411.457">«Entity»</text><text fill="#000000" font-family="sans-serif" font-size="12" lengthAdjust="spacing" textLength="114" x="207" y="426.5508">PublicationEntryDTO</text><line style="stroke:#A80036;stroke-width:1.5;" x1="179" x2="323" y1="434.1875" y2="434.1875"/><text fill="#000000" font-family="sans-serif" font-size="11" lengthAdjust="spacing" textLength="47" x="184" y="449.6064">String title</text><text fill="#000000" font-family="sans-serif" font-size="11" lengthAdjust="spacing" textLength="68" x="184" y="463.4424">String authors</text><text fill="#000000" font-family="sans-serif" font-size="11" lengthAdjust="spacing" textLength="61" x="184" y="477.2783">String venue</text><text fill="#000000" font-family="sans-serif" font-size="11" lengthAdjust="spacing" textLength="78" x="184" y="491.1143">PaperId paperId</text><line style="stroke:#A80036;stroke-width:1.5;" x1="179" x2="323" y1="497.5313" y2="497.5313"/><!--MD5=[5cfd8e76160c04ba7547953f0e36c8a8]
class PaperId--><rect codeLine="14" fill="#FEFECE" filter="url(#f47u3kehk4a9o)" height="70.0234" id="PaperId" style="stroke:#A80036;stroke-width:1.5;" width="112" x="252" y="584"/><ellipse cx="267" cy="604.0938" fill="#8FBC8F" rx="11" ry="11" style="stroke:#A80036;stroke-width:1.0;"/><path d="M267.5938,607.3594 L270.0625,601.4844 L269.6719,601.4844 Q269.0625,601.4844 268.7969,601.25 Q268.5313,601.0156 268.5313,600.625 Q268.5313,600.25 268.7969,600.0156 Q269.0625,599.7813 269.6719,599.7813 L271.9531,599.7813 Q272.5625,599.7813 272.8281,600.0156 Q273.0938,600.25 273.0938,600.625 Q273.0938,601.0938 272.6875,601.3594 Q272.5,601.4844 271.9063,601.4844 L268.4219,609.8438 L266.7813,609.8438 L263.2969,601.4844 Q262.7031,601.4844 262.5156,601.3594 Q262.1094,601.0938 262.1094,600.625 Q262.1094,600.25 262.375,600.0156 Q262.6406,599.7813 263.25,599.7813 L265.5469,599.7813 Q266.1563,599.7813 266.4063,600.0156 Q266.6719,600.25 266.6719,600.625 Q266.6719,601.0156 266.4063,601.25 Q266.1563,601.4844 265.5469,601.4844 L265.1406,601.4844 L267.5938,607.3594 Z " fill="#000000"/><text fill="#000000" font-family="sans-serif" font-size="12" font-style="italic" lengthAdjust="spacing" textLength="84" x="279" y="601.457">«Value Object»</text><text fill="#000000" font-family="sans-serif" font-size="12" lengthAdjust="spacing" textLength="43" x="299.5" y="616.5508">PaperId</text><line style="stroke:#A80036;stroke-width:1.5;" x1="253" x2="363" y1="624.1875" y2="624.1875"/><text fill="#000000" font-family="sans-serif" font-size="11" lengthAdjust="spacing" textLength="22" x="258" y="639.6064">int id</text><line style="stroke:#A80036;stroke-width:1.5;" x1="253" x2="363" y1="646.0234" y2="646.0234"/><!--MD5=[0e261b8850bbd558fca29134a2e6b078]
class PublicationManagementFacade--><rect codeLine="17" fill="#FEFECE" filter="url(#f47u3kehk4a9o)" height="125.3672" id="PublicationManagementFacade" style="stroke:#A80036;stroke-width:1.5;" width="359" x="23.5" y="43"/><ellipse cx="111.75" cy="63.0938" fill="#8FBC8F" rx="11" ry="11" style="stroke:#A80036;stroke-width:1.0;"/><path d="M109.8594,67.6563 Q109.6406,67.9219 109.5,68 Q109.3594,68.0781 109.1719,68.0781 Q108.7813,68.0781 108.5313,67.8125 Q108.2969,67.5469 108.2969,66.9531 L108.2969,65.7969 Q108.2969,65.1875 108.5313,64.9375 Q108.7813,64.6719 109.1719,64.6719 Q109.4688,64.6719 109.6719,64.8281 Q109.875,64.9844 109.9844,65.3594 Q110.0938,65.7188 110.2031,65.8594 Q110.4531,66.1094 111.0625,66.375 Q111.6719,66.6406 112.4063,66.6406 Q113.5469,66.6406 114.2656,66.1094 Q114.7344,65.7813 114.7344,65.3125 Q114.7344,65 114.5156,64.7188 Q114.2969,64.4375 113.7813,64.2656 Q113.4531,64.1406 112.2969,63.9219 Q110.9063,63.6563 110.1875,63.2969 Q109.4688,62.9375 109.0469,62.2813 Q108.6406,61.6094 108.6406,60.8281 Q108.6406,59.6094 109.6563,58.7031 Q110.6875,57.7813 112.3281,57.7813 Q112.9844,57.7813 113.5313,57.9219 Q114.0938,58.0625 114.5625,58.3594 Q114.8906,58.0469 115.2188,58.0469 Q115.5938,58.0469 115.8281,58.3125 Q116.0625,58.5625 116.0625,59.1719 L116.0625,60.4531 Q116.0625,61.0625 115.8281,61.3281 Q115.5938,61.5781 115.2188,61.5781 Q114.9063,61.5781 114.6719,61.3906 Q114.4844,61.25 114.3906,60.8281 Q114.3125,60.4063 114.1719,60.2188 Q113.9219,59.9063 113.4375,59.7031 Q112.9688,59.4844 112.3281,59.4844 Q111.4063,59.4844 110.875,59.9063 Q110.3438,60.3281 110.3438,60.7969 Q110.3438,61.1094 110.5625,61.4063 Q110.7813,61.7031 111.2031,61.875 Q111.4844,61.9844 112.7813,62.25 Q114.0938,62.5 114.7969,62.8125 Q115.5,63.1094 115.9688,63.7656 Q116.4375,64.4219 116.4375,65.3281 Q116.4375,66.5938 115.5469,67.3438 Q114.3594,68.3438 112.5313,68.3438 Q111.8281,68.3438 111.1563,68.1719 Q110.5,68 109.8594,67.6563 Z " fill="#000000"/><text fill="#000000" font-family="sans-serif" font-size="12" font-style="italic" lengthAdjust="spacing" textLength="55" x="191.75" y="60.457">«Service»</text><text fill="#000000" font-family="sans-serif" font-size="12" lengthAdjust="spacing" textLength="174" x="132.25" y="75.5508">PublicationManagementFacade</text><line style="stroke:#A80036;stroke-width:1.5;" x1="24.5" x2="381.5" y1="83.1875" y2="83.1875"/><line style="stroke:#A80036;stroke-width:1.5;" x1="24.5" x2="381.5" y1="91.1875" y2="91.1875"/><text fill="#000000" font-family="sans-serif" font-size="11" lengthAdjust="spacing" textLength="218" x="29.5" y="106.6064">PaperId add(PublicationEntryDTO newEntry)</text><text fill="#000000" font-family="sans-serif" font-size="11" lengthAdjust="spacing" textLength="218" x="29.5" y="120.4424">PublicationArchive dumpPubllicationArchive()</text><text fill="#000000" font-family="sans-serif" font-size="11" lengthAdjust="spacing" textLength="347" x="29.5" y="134.2783">Set&lt;PublicationEntryDTO&gt; lookupPublicationsFromAuthor(String writer)</text><text fill="#000000" font-family="sans-serif" font-size="11" lengthAdjust="spacing" textLength="192" x="29.5" y="148.1143">String renderAsBibtex(PaperId paperId)</text><text fill="#000000" font-family="sans-serif" font-size="11" lengthAdjust="spacing" textLength="249" x="29.5" y="161.9502">String convertToBibtex(PublicationEntryDTO entry)</text><!--MD5=[c4a98376d0fc429bf438bfc5a0581354]
reverse link PublicationArchive to PublicationEntryDTO--><path codeLine="25" d="M161.78,326.87 C176.83,347.47 194.81,372.09 210.68,393.81 " fill="none" id="PublicationArchive-backto-PublicationEntryDTO" style="stroke:#A80036;stroke-width:1.0;"/><polygon fill="#FFFFFF" points="153.98,316.2,154.2898,323.4044,161.0592,325.8894,160.7494,318.685,153.98,316.2" style="stroke:#A80036;stroke-width:1.0;"/><text fill="#000000" font-family="sans-serif" font-size="13" lengthAdjust="spacing" textLength="78" x="188" y="360.4951">paperitemList</text><!--MD5=[e0ff8f15693b3a49b5e45067af2e08f7]
link PublicationEntryDTO to PaperId--><path codeLine="26" d="M269.82,506.14 C277.96,529.99 287.3,557.34 294.7,579.03 " fill="none" id="PublicationEntryDTO-to-PaperId" style="stroke:#A80036;stroke-width:1.0;"/><polygon fill="#A80036" points="296.34,583.85,297.2178,574.0403,294.7246,579.1181,289.6468,576.625,296.34,583.85" style="stroke:#A80036;stroke-width:1.0;"/><text fill="#000000" font-family="sans-serif" font-size="13" lengthAdjust="spacing" textLength="43" x="285" y="550.4951">paperId</text><!--MD5=[8da2bd1984169cc2ef58a0e4f2034031]
link PublicationManagementFacade to PaperId--><path codeLine="27" d="M291.5,168.33 C313.93,189.77 334.17,216.05 343,246 C381.72,377.33 372.81,421.85 337,554 C334.75,562.29 331.55,570.86 328.09,578.93 " fill="none" id="PublicationManagementFacade-to-PaperId" style="stroke:#A80036;stroke-width:1.0;"/><polygon fill="#A80036" points="325.9,583.88,333.1894,577.2569,327.9161,579.3045,325.8685,574.0312,325.9,583.88" style="stroke:#A80036;stroke-width:1.0;"/><text fill="#000000" font-family="sans-serif" font-size="13" lengthAdjust="spacing" textLength="21" x="368" y="360.4951">add</text><!--MD5=[b0954865d728abf78164c1c911149e63]
link PublicationManagementFacade to PublicationEntryDTO--><path codeLine="28" d="M281.44,168.25 C288.92,177.4 295.41,187.37 300,198 C326.72,259.93 304.47,336.75 281.96,388.98 " fill="none" id="PublicationManagementFacade-to-PublicationEntryDTO" style="stroke:#A80036;stroke-width:1.0;"/><polygon fill="#A80036" points="279.93,393.64,287.2194,387.0169,281.9461,389.0645,279.8985,383.7912,279.93,393.64" style="stroke:#A80036;stroke-width:1.0;"/><text fill="#000000" font-family="sans-serif" font-size="13" lengthAdjust="spacing" textLength="21" x="313" y="286.4951">add</text><!--MD5=[120d3aacd1ccf94be1dd8686fd4dd603]
link PublicationManagementFacade to PublicationArchive--><path codeLine="29" d="M165.15,168.19 C159.98,177.96 155.06,188.11 151,198 C145.42,211.6 140.85,227.05 137.34,240.85 " fill="none" id="PublicationManagementFacade-to-PublicationArchive" style="stroke:#A80036;stroke-width:1.0;"/><polygon fill="#A80036" points="136.1,245.85,142.1634,238.0889,137.3127,240.9993,134.4023,236.1486,136.1,245.85" style="stroke:#A80036;stroke-width:1.0;"/><text fill="#000000" font-family="sans-serif" font-size="13" lengthAdjust="spacing" textLength="143" x="152" y="212.4951">dumpPubllicationArchive</text><!--MD5=[0d9bc37b974be368361fb80c8d79a5ae]
@startuml

skinparam componentStyle uml2

package "'PublicationEndpoint' Aggregate" <<Rectangle>> {
	class PublicationArchive <<(E,DarkSeaGreen) Entity>> {
		List<PublicationEntryDTO> paperitemList
	}
	class PublicationEntryDTO <<(E,DarkSeaGreen) Entity>> {
		String title
		String authors
		String venue
		PaperId paperId
	}
	class PaperId <<(V,DarkSeaGreen) Value Object>> {
		int id
	}
	class PublicationManagementFacade <<(S,DarkSeaGreen) Service>> {
		PaperId add(PublicationEntryDTO newEntry)
		PublicationArchive dumpPubllicationArchive()
		Set<PublicationEntryDTO> lookupPublicationsFromAuthor(String writer)
		String renderAsBibtex(PaperId paperId)
		String convertToBibtex(PublicationEntryDTO entry)
	}
}
PublicationArchive o- - PublicationEntryDTO : paperitemList
PublicationEntryDTO - -> PaperId : paperId
PublicationManagementFacade - -> PaperId : add
PublicationManagementFacade - -> PublicationEntryDTO : add
PublicationManagementFacade - -> PublicationArchive : dumpPubllicationArchive


@enduml

PlantUML version 1.2021.00(Sun Jan 10 11:25:05 CET 2021)
(GPL source distribution)
Java Runtime: OpenJDK Runtime Environment
JVM: OpenJDK 64-Bit Server VM
Default Encoding: Cp1252
Language: en
Country: US
--></g></svg>