<?xml version="1.0" encoding="UTF-8" standalone="no"?><svg xmlns="http://www.w3.org/2000/svg" xmlns:xlink="http://www.w3.org/1999/xlink" contentScriptType="application/ecmascript" contentStyleType="text/css" height="669px" preserveAspectRatio="none" style="width:888px;height:669px;background:#FFFFFF;" version="1.1" viewBox="0 0 888 669" width="888px" zoomAndPan="magnify"><defs><filter height="300%" id="f19yghqmoc7gtg" width="300%" x="-1" y="-1"><feGaussianBlur result="blurOut" stdDeviation="2.0"/><feColorMatrix in="blurOut" result="blurOut2" type="matrix" values="0 0 0 0 0 0 0 0 0 0 0 0 0 0 0 0 0 0 .4 0"/><feOffset dx="4.0" dy="4.0" in="blurOut2" result="blurOut3"/><feBlend in="SourceGraphic" in2="blurOut3" mode="normal"/></filter></defs><g><!--MD5=[4809e00bb9a025f21ca4471bf841174a]
cluster 'PublicationEndpoint' Aggregate--><rect fill="#FFFFFF" filter="url(#f19yghqmoc7gtg)" height="650" style="stroke:#000000;stroke-width:1.5;" width="827" x="7" y="7"/><text fill="#000000" font-family="sans-serif" font-size="14" font-weight="bold" lengthAdjust="spacing" textLength="222" x="309.5" y="23.5332">'PublicationEndpoint' Aggregate</text><!--MD5=[fd31816d3b08c53072fad4d9de776098]
class PublicationArchive--><rect codeLine="5" fill="#FEFECE" filter="url(#f19yghqmoc7gtg)" height="70.0234" id="PublicationArchive" style="stroke:#A80036;stroke-width:1.5;" width="211" x="23.5" y="226"/><ellipse cx="73.75" cy="246.0938" fill="#8FBC8F" rx="11" ry="11" style="stroke:#A80036;stroke-width:1.0;"/><path d="M72.6094,246.8906 L72.6094,249.3906 L76.9375,249.3906 L76.9375,248.4688 Q76.9375,247.8594 77.1719,247.5938 Q77.4219,247.3281 77.7969,247.3281 Q78.1719,247.3281 78.4063,247.5938 Q78.6406,247.8594 78.6406,248.4688 L78.6406,251.0938 L70.6406,251.0938 Q70.0156,251.0938 69.75,250.8594 Q69.5,250.625 69.5,250.2344 Q69.5,249.8594 69.7656,249.625 Q70.0313,249.3906 70.6406,249.3906 L70.9063,249.3906 L70.9063,242.7344 L70.6406,242.7344 Q70.0156,242.7344 69.75,242.5 Q69.5,242.2656 69.5,241.875 Q69.5,241.5 69.75,241.2656 Q70.0156,241.0313 70.6406,241.0313 L78.2656,241.0313 L78.2656,243.625 Q78.2656,244.2344 78.0313,244.5 Q77.8125,244.75 77.4219,244.75 Q77.0469,244.75 76.8125,244.5 Q76.5781,244.2344 76.5781,243.625 L76.5781,242.7344 L72.6094,242.7344 L72.6094,245.1875 L74.0938,245.1875 Q74.0938,244.5313 74.2188,244.3438 Q74.4844,243.9375 74.9531,243.9375 Q75.3281,243.9375 75.5625,244.2031 Q75.7969,244.4531 75.7969,245.0625 L75.7969,247.0313 Q75.7969,247.5781 75.6719,247.7656 Q75.4063,248.1563 74.9531,248.1563 Q74.4844,248.1563 74.2188,247.75 Q74.0938,247.5625 74.0938,246.8906 L72.6094,246.8906 Z " fill="#000000"/><text fill="#000000" font-family="sans-serif" font-size="12" font-style="italic" lengthAdjust="spacing" textLength="44" x="123.25" y="243.457">«Entity»</text><text fill="#000000" font-family="sans-serif" font-size="12" lengthAdjust="spacing" textLength="102" x="94.25" y="258.5508">PublicationArchive</text><line style="stroke:#A80036;stroke-width:1.5;" x1="24.5" x2="233.5" y1="266.1875" y2="266.1875"/><text fill="#000000" font-family="sans-serif" font-size="11" lengthAdjust="spacing" textLength="199" x="29.5" y="281.6064">List&lt;PublicationEntryDTO&gt; paperitemList</text><line style="stroke:#A80036;stroke-width:1.5;" x1="24.5" x2="233.5" y1="288.0234" y2="288.0234"/><!--MD5=[37e308c654c87ebce488e51b0c1aa8ad]
class PublicationEntryDTO--><rect codeLine="8" fill="#FEFECE" filter="url(#f19yghqmoc7gtg)" height="111.5313" id="PublicationEntryDTO" style="stroke:#A80036;stroke-width:1.5;" width="146" x="305" y="381"/><ellipse cx="320" cy="401.0938" fill="#8FBC8F" rx="11" ry="11" style="stroke:#A80036;stroke-width:1.0;"/><path d="M318.8594,401.8906 L318.8594,404.3906 L323.1875,404.3906 L323.1875,403.4688 Q323.1875,402.8594 323.4219,402.5938 Q323.6719,402.3281 324.0469,402.3281 Q324.4219,402.3281 324.6563,402.5938 Q324.8906,402.8594 324.8906,403.4688 L324.8906,406.0938 L316.8906,406.0938 Q316.2656,406.0938 316,405.8594 Q315.75,405.625 315.75,405.2344 Q315.75,404.8594 316.0156,404.625 Q316.2813,404.3906 316.8906,404.3906 L317.1563,404.3906 L317.1563,397.7344 L316.8906,397.7344 Q316.2656,397.7344 316,397.5 Q315.75,397.2656 315.75,396.875 Q315.75,396.5 316,396.2656 Q316.2656,396.0313 316.8906,396.0313 L324.5156,396.0313 L324.5156,398.625 Q324.5156,399.2344 324.2813,399.5 Q324.0625,399.75 323.6719,399.75 Q323.2969,399.75 323.0625,399.5 Q322.8281,399.2344 322.8281,398.625 L322.8281,397.7344 L318.8594,397.7344 L318.8594,400.1875 L320.3438,400.1875 Q320.3438,399.5313 320.4688,399.3438 Q320.7344,398.9375 321.2031,398.9375 Q321.5781,398.9375 321.8125,399.2031 Q322.0469,399.4531 322.0469,400.0625 L322.0469,402.0313 Q322.0469,402.5781 321.9219,402.7656 Q321.6563,403.1563 321.2031,403.1563 Q320.7344,403.1563 320.4688,402.75 Q320.3438,402.5625 320.3438,401.8906 L318.8594,401.8906 Z " fill="#000000"/><text fill="#000000" font-family="sans-serif" font-size="12" font-style="italic" lengthAdjust="spacing" textLength="44" x="369" y="398.457">«Entity»</text><text fill="#000000" font-family="sans-serif" font-size="12" lengthAdjust="spacing" textLength="114" x="334" y="413.5508">PublicationEntryDTO</text><line style="stroke:#A80036;stroke-width:1.5;" x1="306" x2="450" y1="421.1875" y2="421.1875"/><text fill="#000000" font-family="sans-serif" font-size="11" lengthAdjust="spacing" textLength="47" x="311" y="436.6064">String title</text><text fill="#000000" font-family="sans-serif" font-size="11" lengthAdjust="spacing" textLength="68" x="311" y="450.4424">String authors</text><text fill="#000000" font-family="sans-serif" font-size="11" lengthAdjust="spacing" textLength="61" x="311" y="464.2783">String venue</text><text fill="#000000" font-family="sans-serif" font-size="11" lengthAdjust="spacing" textLength="78" x="311" y="478.1143">PaperId paperId</text><line style="stroke:#A80036;stroke-width:1.5;" x1="306" x2="450" y1="484.5313" y2="484.5313"/><!--MD5=[5cfd8e76160c04ba7547953f0e36c8a8]
class PaperId--><rect codeLine="14" fill="#FEFECE" filter="url(#f19yghqmoc7gtg)" height="70.0234" id="PaperId" style="stroke:#A80036;stroke-width:1.5;" width="112" x="594" y="571"/><ellipse cx="609" cy="591.0938" fill="#8FBC8F" rx="11" ry="11" style="stroke:#A80036;stroke-width:1.0;"/><path d="M609.5938,594.3594 L612.0625,588.4844 L611.6719,588.4844 Q611.0625,588.4844 610.7969,588.25 Q610.5313,588.0156 610.5313,587.625 Q610.5313,587.25 610.7969,587.0156 Q611.0625,586.7813 611.6719,586.7813 L613.9531,586.7813 Q614.5625,586.7813 614.8281,587.0156 Q615.0938,587.25 615.0938,587.625 Q615.0938,588.0938 614.6875,588.3594 Q614.5,588.4844 613.9063,588.4844 L610.4219,596.8438 L608.7813,596.8438 L605.2969,588.4844 Q604.7031,588.4844 604.5156,588.3594 Q604.1094,588.0938 604.1094,587.625 Q604.1094,587.25 604.375,587.0156 Q604.6406,586.7813 605.25,586.7813 L607.5469,586.7813 Q608.1563,586.7813 608.4063,587.0156 Q608.6719,587.25 608.6719,587.625 Q608.6719,588.0156 608.4063,588.25 Q608.1563,588.4844 607.5469,588.4844 L607.1406,588.4844 L609.5938,594.3594 Z " fill="#000000"/><text fill="#000000" font-family="sans-serif" font-size="12" font-style="italic" lengthAdjust="spacing" textLength="84" x="621" y="588.457">«Value Object»</text><text fill="#000000" font-family="sans-serif" font-size="12" lengthAdjust="spacing" textLength="43" x="641.5" y="603.5508">PaperId</text><line style="stroke:#A80036;stroke-width:1.5;" x1="595" x2="705" y1="611.1875" y2="611.1875"/><text fill="#000000" font-family="sans-serif" font-size="11" lengthAdjust="spacing" textLength="22" x="600" y="626.6064">int id</text><line style="stroke:#A80036;stroke-width:1.5;" x1="595" x2="705" y1="633.0234" y2="633.0234"/><!--MD5=[26818d951d156b5f81821ca14a45b56a]
class PublicationManagementCommands--><rect codeLine="17" fill="#FEFECE" filter="url(#f19yghqmoc7gtg)" height="83.8594" id="PublicationManagementCommands" style="stroke:#A80036;stroke-width:1.5;" width="261" x="519.5" y="219"/><ellipse cx="549.35" cy="239.0938" fill="#8FBC8F" rx="11" ry="11" style="stroke:#A80036;stroke-width:1.0;"/><path d="M547.4594,243.6563 Q547.2406,243.9219 547.1,244 Q546.9594,244.0781 546.7719,244.0781 Q546.3813,244.0781 546.1313,243.8125 Q545.8969,243.5469 545.8969,242.9531 L545.8969,241.7969 Q545.8969,241.1875 546.1313,240.9375 Q546.3813,240.6719 546.7719,240.6719 Q547.0688,240.6719 547.2719,240.8281 Q547.475,240.9844 547.5844,241.3594 Q547.6938,241.7188 547.8031,241.8594 Q548.0531,242.1094 548.6625,242.375 Q549.2719,242.6406 550.0063,242.6406 Q551.1469,242.6406 551.8656,242.1094 Q552.3344,241.7813 552.3344,241.3125 Q552.3344,241 552.1156,240.7188 Q551.8969,240.4375 551.3813,240.2656 Q551.0531,240.1406 549.8969,239.9219 Q548.5063,239.6563 547.7875,239.2969 Q547.0688,238.9375 546.6469,238.2813 Q546.2406,237.6094 546.2406,236.8281 Q546.2406,235.6094 547.2563,234.7031 Q548.2875,233.7813 549.9281,233.7813 Q550.5844,233.7813 551.1313,233.9219 Q551.6938,234.0625 552.1625,234.3594 Q552.4906,234.0469 552.8188,234.0469 Q553.1938,234.0469 553.4281,234.3125 Q553.6625,234.5625 553.6625,235.1719 L553.6625,236.4531 Q553.6625,237.0625 553.4281,237.3281 Q553.1938,237.5781 552.8188,237.5781 Q552.5063,237.5781 552.2719,237.3906 Q552.0844,237.25 551.9906,236.8281 Q551.9125,236.4063 551.7719,236.2188 Q551.5219,235.9063 551.0375,235.7031 Q550.5688,235.4844 549.9281,235.4844 Q549.0063,235.4844 548.475,235.9063 Q547.9438,236.3281 547.9438,236.7969 Q547.9438,237.1094 548.1625,237.4063 Q548.3813,237.7031 548.8031,237.875 Q549.0844,237.9844 550.3813,238.25 Q551.6938,238.5 552.3969,238.8125 Q553.1,239.1094 553.5688,239.7656 Q554.0375,240.4219 554.0375,241.3281 Q554.0375,242.5938 553.1469,243.3438 Q551.9594,244.3438 550.1313,244.3438 Q549.4281,244.3438 548.7563,244.1719 Q548.1,244 547.4594,243.6563 Z " fill="#000000"/><text fill="#000000" font-family="sans-serif" font-size="12" font-style="italic" lengthAdjust="spacing" textLength="55" x="637.15" y="236.457">«Service»</text><text fill="#000000" font-family="sans-serif" font-size="12" lengthAdjust="spacing" textLength="196" x="566.65" y="251.5508">PublicationManagementCommands</text><line style="stroke:#A80036;stroke-width:1.5;" x1="520.5" x2="779.5" y1="259.1875" y2="259.1875"/><line style="stroke:#A80036;stroke-width:1.5;" x1="520.5" x2="779.5" y1="267.1875" y2="267.1875"/><text fill="#000000" font-family="sans-serif" font-size="11" lengthAdjust="spacing" textLength="218" x="525.5" y="282.6064">PaperId add(PublicationEntryDTO newEntry)</text><text fill="#000000" font-family="sans-serif" font-size="11" lengthAdjust="spacing" textLength="249" x="525.5" y="296.4424">String convertToBibtex(PublicationEntryDTO entry)</text><!--MD5=[d7f53e08a2914ecf74c87b4c37843bf6]
class PublicationManagementQueries--><rect codeLine="21" fill="#FEFECE" filter="url(#f19yghqmoc7gtg)" height="97.6953" id="PublicationManagementQueries" style="stroke:#A80036;stroke-width:1.5;" width="359" x="125.5" y="43"/><ellipse cx="212.75" cy="63.0938" fill="#8FBC8F" rx="11" ry="11" style="stroke:#A80036;stroke-width:1.0;"/><path d="M210.8594,67.6563 Q210.6406,67.9219 210.5,68 Q210.3594,68.0781 210.1719,68.0781 Q209.7813,68.0781 209.5313,67.8125 Q209.2969,67.5469 209.2969,66.9531 L209.2969,65.7969 Q209.2969,65.1875 209.5313,64.9375 Q209.7813,64.6719 210.1719,64.6719 Q210.4688,64.6719 210.6719,64.8281 Q210.875,64.9844 210.9844,65.3594 Q211.0938,65.7188 211.2031,65.8594 Q211.4531,66.1094 212.0625,66.375 Q212.6719,66.6406 213.4063,66.6406 Q214.5469,66.6406 215.2656,66.1094 Q215.7344,65.7813 215.7344,65.3125 Q215.7344,65 215.5156,64.7188 Q215.2969,64.4375 214.7813,64.2656 Q214.4531,64.1406 213.2969,63.9219 Q211.9063,63.6563 211.1875,63.2969 Q210.4688,62.9375 210.0469,62.2813 Q209.6406,61.6094 209.6406,60.8281 Q209.6406,59.6094 210.6563,58.7031 Q211.6875,57.7813 213.3281,57.7813 Q213.9844,57.7813 214.5313,57.9219 Q215.0938,58.0625 215.5625,58.3594 Q215.8906,58.0469 216.2188,58.0469 Q216.5938,58.0469 216.8281,58.3125 Q217.0625,58.5625 217.0625,59.1719 L217.0625,60.4531 Q217.0625,61.0625 216.8281,61.3281 Q216.5938,61.5781 216.2188,61.5781 Q215.9063,61.5781 215.6719,61.3906 Q215.4844,61.25 215.3906,60.8281 Q215.3125,60.4063 215.1719,60.2188 Q214.9219,59.9063 214.4375,59.7031 Q213.9688,59.4844 213.3281,59.4844 Q212.4063,59.4844 211.875,59.9063 Q211.3438,60.3281 211.3438,60.7969 Q211.3438,61.1094 211.5625,61.4063 Q211.7813,61.7031 212.2031,61.875 Q212.4844,61.9844 213.7813,62.25 Q215.0938,62.5 215.7969,62.8125 Q216.5,63.1094 216.9688,63.7656 Q217.4375,64.4219 217.4375,65.3281 Q217.4375,66.5938 216.5469,67.3438 Q215.3594,68.3438 213.5313,68.3438 Q212.8281,68.3438 212.1563,68.1719 Q211.5,68 210.8594,67.6563 Z " fill="#000000"/><text fill="#000000" font-family="sans-serif" font-size="12" font-style="italic" lengthAdjust="spacing" textLength="55" x="293.75" y="60.457">«Service»</text><text fill="#000000" font-family="sans-serif" font-size="12" lengthAdjust="spacing" textLength="176" x="233.25" y="75.5508">PublicationManagementQueries</text><line style="stroke:#A80036;stroke-width:1.5;" x1="126.5" x2="483.5" y1="83.1875" y2="83.1875"/><line style="stroke:#A80036;stroke-width:1.5;" x1="126.5" x2="483.5" y1="91.1875" y2="91.1875"/><text fill="#000000" font-family="sans-serif" font-size="11" lengthAdjust="spacing" textLength="216" x="131.5" y="106.6064">PublicationArchive dumpPublicationArchive()</text><text fill="#000000" font-family="sans-serif" font-size="11" lengthAdjust="spacing" textLength="347" x="131.5" y="120.4424">Set&lt;PublicationEntryDTO&gt; lookupPublicationsFromAuthor(String writer)</text><text fill="#000000" font-family="sans-serif" font-size="11" lengthAdjust="spacing" textLength="192" x="131.5" y="134.2783">String renderAsBibtex(PaperId paperId)</text><!--MD5=[c4a98376d0fc429bf438bfc5a0581354]
reverse link PublicationArchive to PublicationEntryDTO--><path codeLine="27" d="M166.85,306.08 C181.3,321.4 198.51,337.98 216,351 C243.26,371.3 276.03,389.47 304.95,403.76 " fill="none" id="PublicationArchive-backto-PublicationEntryDTO" style="stroke:#A80036;stroke-width:1.0;"/><polygon fill="#FFFFFF" points="157.79,296.25,158.9174,303.3724,165.9255,305.0712,164.7982,297.9487,157.79,296.25" style="stroke:#A80036;stroke-width:1.0;"/><text fill="#000000" font-family="sans-serif" font-size="13" lengthAdjust="spacing" textLength="78" x="217" y="347.4951">paperitemList</text><!--MD5=[e0ff8f15693b3a49b5e45067af2e08f7]
link PublicationEntryDTO to PaperId--><path codeLine="28" d="M451.25,482.97 C494.67,509.63 549.02,543 589.9,568.1 " fill="none" id="PublicationEntryDTO-to-PaperId" style="stroke:#A80036;stroke-width:1.0;"/><polygon fill="#A80036" points="594.32,570.81,588.7317,562.7,590.0554,568.1999,584.5555,569.5235,594.32,570.81" style="stroke:#A80036;stroke-width:1.0;"/><text fill="#000000" font-family="sans-serif" font-size="13" lengthAdjust="spacing" textLength="43" x="539" y="537.4951">paperId</text><!--MD5=[a893fe688ee8cab00985cbac80f723fd]
link PublicationManagementCommands to PaperId--><path codeLine="29" d="M650,303.03 C650,369.45 650,499.66 650,565.25 " fill="none" id="PublicationManagementCommands-to-PaperId" style="stroke:#A80036;stroke-width:1.0;"/><polygon fill="#A80036" points="650,570.62,654,561.62,650,565.62,646,561.62,650,570.62" style="stroke:#A80036;stroke-width:1.0;"/><text fill="#000000" font-family="sans-serif" font-size="13" lengthAdjust="spacing" textLength="21" x="651" y="442.4951">add</text><!--MD5=[309f7aeaee07c686325433dd6c3f9ca2]
link PublicationManagementCommands to PublicationEntryDTO--><path codeLine="30" d="M585.88,303.02 C546.86,327.98 496.75,360.03 455.51,386.41 " fill="none" id="PublicationManagementCommands-to-PublicationEntryDTO" style="stroke:#A80036;stroke-width:1.0;"/><polygon fill="#A80036" points="451.3,389.11,461.0359,387.6229,455.5101,386.4127,456.7203,380.8868,451.3,389.11" style="stroke:#A80036;stroke-width:1.0;"/><text fill="#000000" font-family="sans-serif" font-size="13" lengthAdjust="spacing" textLength="21" x="539" y="347.4951">add</text><!--MD5=[c82647234b6eb81aeebf31e646c09277]
link PublicationManagementQueries to PublicationArchive--><path codeLine="31" d="M187.14,141.02 C174.76,149.62 163.32,159.56 154,171 C142.6,184.98 136.4,203.84 133.02,220.59 " fill="none" id="PublicationManagementQueries-to-PublicationArchive" style="stroke:#A80036;stroke-width:1.0;"/><polygon fill="#A80036" points="132.06,225.72,137.6615,217.6192,132.9883,220.8069,129.8006,216.1338,132.06,225.72" style="stroke:#A80036;stroke-width:1.0;"/><text fill="#000000" font-family="sans-serif" font-size="13" lengthAdjust="spacing" textLength="140" x="155" y="185.4951">dumpPublicationArchive</text><!--MD5=[fefd7470d65652018e4b1673fdb8b745]
link PublicationManagementQueries to PublicationEntryDTO--><path codeLine="32" d="M304.97,141.21 C305.91,184.22 309.76,248.6 323,303 C329.01,327.71 338.94,353.79 348.71,376.24 " fill="none" id="PublicationManagementQueries-to-PublicationEntryDTO" style="stroke:#A80036;stroke-width:1.0;"/><polygon fill="#A80036" points="350.79,380.98,350.8215,371.1312,348.7739,376.4045,343.5006,374.3569,350.79,380.98" style="stroke:#A80036;stroke-width:1.0;"/><text fill="#000000" font-family="sans-serif" font-size="13" lengthAdjust="spacing" textLength="177" x="324" y="266.4951">lookupPublicationsFromAuthor</text><!--MD5=[c1963317339ebc514548d74a3176c5e4]
link PublicationManagementQueries to PaperId--><path codeLine="33" d="M484.75,115.66 C609.19,135.47 759.16,168.98 798,219 C842.11,275.8 726.45,480.24 674.14,566.34 " fill="none" id="PublicationManagementQueries-to-PaperId" style="stroke:#A80036;stroke-width:1.0;"/><polygon fill="#A80036" points="671.4,570.85,679.4963,565.242,673.9997,566.579,672.6627,561.0824,671.4,570.85" style="stroke:#A80036;stroke-width:1.0;"/><text fill="#000000" font-family="sans-serif" font-size="13" lengthAdjust="spacing" textLength="89" x="791" y="347.4951">renderAsBibtex</text><!--MD5=[5a679c769568e76564cbcf8aab14929d]
@startuml

skinparam componentStyle uml2

package "'PublicationEndpoint' Aggregate" <<Rectangle>> {
	class PublicationArchive <<(E,DarkSeaGreen) Entity>> {
		List<PublicationEntryDTO> paperitemList
	}
	class PublicationEntryDTO <<(E,DarkSeaGreen) Entity>> {
		String title
		String authors
		String venue
		PaperId paperId
	}
	class PaperId <<(V,DarkSeaGreen) Value Object>> {
		int id
	}
	class PublicationManagementCommands <<(S,DarkSeaGreen) Service>> {
		PaperId add(PublicationEntryDTO newEntry)
		String convertToBibtex(PublicationEntryDTO entry)
	}
	class PublicationManagementQueries <<(S,DarkSeaGreen) Service>> {
		PublicationArchive dumpPublicationArchive()
		Set<PublicationEntryDTO> lookupPublicationsFromAuthor(String writer)
		String renderAsBibtex(PaperId paperId)
	}
}
PublicationArchive o- - PublicationEntryDTO : paperitemList
PublicationEntryDTO - -> PaperId : paperId
PublicationManagementCommands - -> PaperId : add
PublicationManagementCommands - -> PublicationEntryDTO : add
PublicationManagementQueries - -> PublicationArchive : dumpPublicationArchive
PublicationManagementQueries - -> PublicationEntryDTO : lookupPublicationsFromAuthor
PublicationManagementQueries - -> PaperId : renderAsBibtex


@enduml

PlantUML version 1.2021.7(Sun May 23 14:40:07 CEST 2021)
(GPL source distribution)
Java Runtime: OpenJDK Runtime Environment
JVM: OpenJDK 64-Bit Server VM
Default Encoding: Cp1252
Language: en
Country: US
--></g></svg>